<ttFont>
        <CharString name=".notdef">
          -402 endchar
        </CharString>
        <CharString name="A">
          64 21 -21 131 120 246 148 hstem
          6 592 vstem
          598 hmoveto
          -189 645 rlineto
          -195 hlineto
          -208 -645 rlineto
          159 hlineto
          18 103 8 26 100 3 116 -2 9 -37 17 -93 rlineto
          -57 252 rmoveto
          -74 -2 -74 2 75 245 rlineto
          10 hlineto
          endchar
        </CharString>
        <CharString name="AE">
          283 0 126 393 126 -12 12 hstemhm
          -19 844 -430 152 hintmask 11010000
          825 120 rmoveto
          -10 12 -164 -6 rlineto
          hintmask 11001000
          -98 hlineto
          -12 118 197 51 -14 113 -11 9 -184 -51 -16 153 rlineto
          82 hlineto
          153 -6 rlineto
          hintmask 10110000
          12 120 rlineto
          hintmask 11001000
          -10 12 rlineto
          -473 hlineto
          -296 -645 rlineto
          160 hlineto
          32 103 19 43 197 56 12 -109 5 -93 rlineto
          408 hlineto
          -438 323 rmoveto
          -121 -34 92 208 rlineto
          10 hlineto
          endchar
        </CharString>
        <CharString name="AEacute">
          283 0 126 393 126 -12 12 hstemhm
          -18 843 -429 151 hintmask 11010000
          414 718 rmoveto
          15 -4 73 23 71 23 80 29 rlinecurve
          5 13 -40 95 -14 3 -70 -41 -68 -37 -77 -38 rlinecurve
          436 -664 rmoveto
          -9 12 -165 -6 rlineto
          hintmask 11001000
          -98 hlineto
          -12 118 197 51 -13 113 -12 9 -184 -51 -16 153 rlineto
          83 hlineto
          153 -6 rlineto
          hintmask 10110000
          11 120 rlineto
          hintmask 11001000
          -9 12 rlineto
          -473 hlineto
          -296 -645 rlineto
          160 hlineto
          31 103 19 43 198 56 12 -109 5 -93 rlineto
          408 hlineto
          -438 323 rmoveto
          -121 -34 92 208 rlineto
          10 hlineto
          endchar
        </CharString>
        <CharString name="Aacute">
          64 21 -21 131 120 246 148 hstem
          6 592 vstem
          217 718 rmoveto
          15 -4 73 23 71 23 80 29 rlinecurve
          5 13 -40 95 -14 3 -70 -41 -68 -37 -77 -38 rlinecurve
          406 -784 rmoveto
          -189 645 rlineto
          -194 hlineto
          -209 -645 rlineto
          159 hlineto
          18 103 8 26 101 3 115 -2 9 -37 17 -93 rlineto
          -57 252 rmoveto
          -74 -2 -74 2 75 245 rlineto
          11 hlineto
          endchar
        </CharString>
        <CharString name="Abreve">
          64 21 -21 131 120 246 148 73 110 hstem
          6 592 vstem
          305 718 rmoveto
          79 58 41 73 27 hvcurveto
          -34 49 rlineto
          -23 hlineto
          -34 -19 -36 -19 -47 hhcurveto
          -50 -38 19 34 -20 hvcurveto
          -22 hlineto
          -34 -49 rlineto
          -73 25 56 -41 78 hhcurveto
          293 -718 rmoveto
          -189 645 rlineto
          -194 hlineto
          -209 -645 rlineto
          159 hlineto
          18 103 8 26 101 3 115 -2 9 -37 17 -93 rlineto
          -57 252 rmoveto
          -74 -2 -74 2 75 245 rlineto
          11 hlineto
          endchar
        </CharString>
        <CharString name="Abreveacute">
          64 21 -21 131 120 246 148 53 110 hstem
          6 592 vstem
          302 847 rmoveto
          13 3 40 37 40 37 39 39 rlinecurve
          -3 12 -72 47 -11 -3 -31 -46 -31 -44 -32 -44 rlinecurve
          51 -187 rmoveto
          79 58 41 73 27 hvcurveto
          -34 49 rlineto
          -23 hlineto
          -34 -19 -36 -19 -47 hhcurveto
          -50 -38 19 34 -20 hvcurveto
          -22 hlineto
          -34 -49 rlineto
          -73 25 56 -41 78 hhcurveto
          293 -698 rmoveto
          -189 645 rlineto
          -194 hlineto
          -209 -645 rlineto
          159 hlineto
          18 103 8 26 101 3 115 -2 9 -37 17 -93 rlineto
          -57 252 rmoveto
          -74 -2 -74 2 75 245 rlineto
          11 hlineto
          endchar
        </CharString>
        <CharString name="Abrevedotbelow">
          64 -210 166 65 -21 131 120 246 148 73 110 hstem
          220 162 vstem
          304 718 rmoveto
          79 59 41 73 27 hvcurveto
          -35 49 rlineto
          -22 hlineto
          -34 -19 -37 -19 -46 hhcurveto
          -50 -39 19 34 -19 hvcurveto
          -22 hlineto
          -35 -49 rlineto
          -73 25 57 -41 77 hhcurveto
          294 -718 rmoveto
          -189 645 rlineto
          -194 hlineto
          -209 -645 rlineto
          159 hlineto
          18 103 8 26 101 3 115 -2 9 -37 17 -93 rlineto
          -57 252 rmoveto
          -74 -2 -74 2 75 245 rlineto
          11 hlineto
          -10 -541 rmoveto
          -52 -32 -34 -52 -51 27 -29 51 51 33 34 53 49 -29 30 -49 hvcurveto
          endchar
        </CharString>
        <CharString name="Abrevegrave">
          64 21 -21 131 120 246 148 53 110 hstem
          6 592 vstem
          315 847 rmoveto
          48 38 -32 44 -32 44 -30 46 rlinecurve
          -11 3 -73 -47 -2 -12 39 -39 39 -37 41 -37 rlinecurve
          3 -152 rmoveto
          79 58 41 73 27 hvcurveto
          -34 49 rlineto
          -23 hlineto
          -34 -19 -36 -19 -47 hhcurveto
          -50 -38 19 34 -20 hvcurveto
          -22 hlineto
          -34 -49 rlineto
          -73 25 56 -41 78 hhcurveto
          293 -698 rmoveto
          -189 645 rlineto
          -194 hlineto
          -209 -645 rlineto
          159 hlineto
          18 103 8 26 101 3 115 -2 9 -37 17 -93 rlineto
          -57 252 rmoveto
          -74 -2 -74 2 75 245 rlineto
          11 hlineto
          endchar
        </CharString>
        <CharString name="Abrevehookabove">
          64 21 -21 131 120 246 148 53 110 201 70 hstem
          307 82 vstem
          278 1009 rmoveto
          16 13 -7 -16 -20 -20 -29 -33 -24 hvcurveto
          47 -72 55 33 -25 40 rlineto
          43 38 15 21 28 vvcurveto
          46 -39 32 -49 -41 -42 -21 -34 -31 vhcurveto
          25 -40 rlineto
          16 20 26 9 20 hhcurveto
          27 -311 rmoveto
          79 58 41 73 27 hvcurveto
          -34 49 rlineto
          -23 hlineto
          -34 -19 -36 -19 -47 hhcurveto
          -50 -38 19 34 -20 hvcurveto
          -22 hlineto
          -34 -49 rlineto
          -73 25 56 -41 78 hhcurveto
          293 -698 rmoveto
          -189 645 rlineto
          -194 hlineto
          -209 -645 rlineto
          159 hlineto
          18 103 8 26 101 3 115 -2 9 -37 17 -93 rlineto
          -57 252 rmoveto
          -74 -2 -74 2 75 245 rlineto
          11 hlineto
          endchar
        </CharString>
        <CharString name="Abrevetilde">
          64 21 -21 131 120 246 148 54 103 hstem
          6 592 vstem
          185 878 rmoveto
          12 hlineto
          25 22 17 25 21 hhcurveto
          24 72 -27 -5 45 hvcurveto
          13 5 69 91 rlineto
          13 vlineto
          -43 42 rlineto
          -13 hlineto
          -26 -22 -17 -24 -21 hhcurveto
          -23 -73 26 6 -45 hvcurveto
          -13 -5 -68 -92 rlineto
          -12 vlineto
          171 -118 rmoveto
          -47 -36 18 33 -19 hvcurveto
          -21 hlineto
          -32 -47 rlineto
          -69 23 54 -38 73 hhcurveto
          75 55 38 69 25 hvcurveto
          -32 47 rlineto
          -21 hlineto
          -33 -18 -35 -18 -44 hhcurveto
          285 -802 rmoveto
          -189 645 rlineto
          -194 hlineto
          -209 -645 rlineto
          159 hlineto
          18 103 8 26 101 3 115 -2 9 -37 17 -93 rlineto
          -57 252 rmoveto
          -74 -2 -74 2 75 245 rlineto
          11 hlineto
          endchar
        </CharString>
        <CharString name="Acaron">
          64 21 -21 131 120 246 148 hstem
          6 592 vstem
          323 715 rmoveto
          42 38 47 37 52 35 -28 63 rcurveline
          -15 hlineto
          -38 -21 -38 -20 -37 -21 -114 62 rcurveline
          -15 hlineto
          -28 -63 52 -35 47 -37 43 -38 rlinecurve
          305 -715 rmoveto
          -189 645 rlineto
          -194 hlineto
          -209 -645 rlineto
          159 hlineto
          18 103 8 26 101 3 115 -2 9 -37 17 -93 rlineto
          -57 252 rmoveto
          -74 -2 -74 2 75 245 rlineto
          11 hlineto
          endchar
        </CharString>
        <CharString name="Acircumflex">
          64 21 -21 131 120 246 148 hstem
          6 592 vstem
          179 725 rmoveto
          15 hlineto
          38 21 38 20 37 21 114 -62 rcurveline
          15 hlineto
          28 63 -52 35 -47 37 -43 38 rlinecurve
          -30 hlineto
          -42 -38 -47 -37 -52 -35 rrcurveto
          447 -788 rmoveto
          -189 645 rlineto
          -194 hlineto
          -209 -645 rlineto
          159 hlineto
          18 103 8 26 101 3 115 -2 9 -37 17 -93 rlineto
          -57 252 rmoveto
          -74 -2 -74 2 75 245 rlineto
          11 hlineto
          endchar
        </CharString>
        <CharString name="Acircumflexacute">
          64 21 -21 131 120 246 148 hstem
          6 592 vstem
          416 839 rmoveto
          10 hlineto
          101 134 -3 11 -80 34 -10 -5 -70 -134 rlineto
          -186 -174 rmoveto
          15 hlineto
          38 21 38 20 37 21 114 -62 rcurveline
          15 hlineto
          28 63 -52 35 -47 37 -43 38 rlinecurve
          -30 hlineto
          -42 -38 -47 -37 -52 -35 rrcurveto
          448 -768 rmoveto
          -189 645 rlineto
          -194 hlineto
          -209 -645 rlineto
          159 hlineto
          18 103 8 26 101 3 115 -2 9 -37 17 -93 rlineto
          -57 252 rmoveto
          -74 -2 -74 2 75 245 rlineto
          11 hlineto
          endchar
        </CharString>
        <CharString name="Acircumflexdotbelow">
          64 -210 166 65 -21 131 120 246 148 hstem
          220 162 vstem
          178 725 rmoveto
          15 hlineto
          38 21 38 20 37 21 114 -62 rcurveline
          15 hlineto
          28 63 -52 35 -47 37 -43 38 rlinecurve
          -30 hlineto
          -42 -38 -47 -37 -52 -35 rrcurveto
          448 -788 rmoveto
          -189 645 rlineto
          -194 hlineto
          -209 -645 rlineto
          159 hlineto
          18 103 8 26 101 3 115 -2 9 -37 17 -93 rlineto
          -57 252 rmoveto
          -74 -2 -74 2 75 245 rlineto
          11 hlineto
          -10 -541 rmoveto
          -52 -32 -34 -52 -51 27 -29 51 51 33 34 53 49 -29 30 -49 hvcurveto
          endchar
        </CharString>
        <CharString name="Acircumflexgrave">
          64 21 -21 131 120 246 148 hstem
          6 592 vstem
          418 839 rmoveto
          10 hlineto
          53 40 -70 134 -11 5 -79 -34 -4 -11 rlineto
          -139 -268 rmoveto
          15 hlineto
          38 21 38 20 37 21 114 -62 rcurveline
          15 hlineto
          28 63 -52 35 -47 37 -43 38 rlinecurve
          -30 hlineto
          -42 -38 -47 -37 -52 -35 rrcurveto
          448 -768 rmoveto
          -189 645 rlineto
          -194 hlineto
          -209 -645 rlineto
          159 hlineto
          18 103 8 26 101 3 115 -2 9 -37 17 -93 rlineto
          -57 252 rmoveto
          -74 -2 -74 2 75 245 rlineto
          11 hlineto
          endchar
        </CharString>
        <CharString name="Acircumflexhookabove">
          64 21 -21 131 120 246 148 352 67 hstem
          419 78 vstem
          391 997 rmoveto
          16 12 -6 -16 -18 -19 -28 -32 -23 hvcurveto
          45 -68 52 31 -23 38 rlineto
          41 36 14 20 27 vvcurveto
          44 -37 30 -47 -39 -40 -21 -32 -30 vhcurveto
          24 -38 rlineto
          15 19 25 9 19 hhcurveto
          -213 -292 rmoveto
          15 hlineto
          38 21 38 20 37 21 114 -62 rcurveline
          15 hlineto
          28 63 -52 35 -47 37 -43 38 rlinecurve
          -30 hlineto
          -42 -38 -47 -37 -52 -35 rrcurveto
          448 -768 rmoveto
          -189 645 rlineto
          -194 hlineto
          -209 -645 rlineto
          159 hlineto
          18 103 8 26 101 3 115 -2 9 -37 17 -93 rlineto
          -57 252 rmoveto
          -74 -2 -74 2 75 245 rlineto
          11 hlineto
          endchar
        </CharString>
        <CharString name="Acircumflextilde">
          64 21 -21 131 120 246 148 hstem
          6 592 vstem
          185 878 rmoveto
          12 hlineto
          25 22 17 25 21 hhcurveto
          24 72 -27 -5 45 hvcurveto
          13 5 69 91 rlineto
          13 vlineto
          -43 42 rlineto
          -13 hlineto
          -26 -22 -17 -24 -21 hhcurveto
          -23 -73 26 6 -45 hvcurveto
          -13 -5 -68 -92 rlineto
          -12 vlineto
          149 -42 rmoveto
          -42 -38 -47 -37 -52 -35 28 -63 rcurveline
          15 hlineto
          38 21 38 20 37 21 114 -62 rcurveline
          15 hlineto
          28 63 -52 35 -47 37 -43 38 rlinecurve
          277 -878 rmoveto
          -189 645 rlineto
          -194 hlineto
          -209 -645 rlineto
          159 hlineto
          18 103 8 26 101 3 115 -2 9 -37 17 -93 rlineto
          -57 252 rmoveto
          -74 -2 -74 2 75 245 rlineto
          11 hlineto
          endchar
        </CharString>
        <CharString name="Adieresis">
          64 21 -21 131 120 246 148 81 149 hstem
          144 146 36 146 vstem
          215 726 rmoveto
          46 29 30 48 44 -26 27 -44 -47 -29 -30 -48 -45 25 -26 46 hvcurveto
          182 hmoveto
          46 29 30 48 44 -26 27 -44 -47 -29 -30 -48 -45 25 -26 46 hvcurveto
          201 -726 rmoveto
          -189 645 rlineto
          -194 hlineto
          -209 -645 rlineto
          159 hlineto
          18 103 8 26 101 3 115 -2 9 -37 17 -93 rlineto
          -57 252 rmoveto
          -74 -2 -74 2 75 245 rlineto
          11 hlineto
          endchar
        </CharString>
        <CharString name="Adotbelow">
          64 -210 166 65 -21 131 120 246 148 hstem
          220 162 vstem
          598 hmoveto
          -189 645 rlineto
          -194 hlineto
          -209 -645 rlineto
          159 hlineto
          18 103 8 26 101 3 115 -2 9 -37 17 -93 rlineto
          -57 252 rmoveto
          -74 -2 -74 2 75 245 rlineto
          11 hlineto
          -10 -541 rmoveto
          -52 -32 -34 -52 -51 27 -29 51 51 33 34 53 49 -29 30 -49 hvcurveto
          endchar
        </CharString>
        <CharString name="Agrave">
          64 21 -21 131 120 246 148 hstem
          6 592 vstem
          418 718 rmoveto
          25 66 -77 38 -68 37 -70 41 rlinecurve
          -14 -3 -40 -95 5 -13 80 -29 71 -23 73 -23 rlinecurve
          195 -714 rmoveto
          -189 645 rlineto
          -194 hlineto
          -209 -645 rlineto
          159 hlineto
          18 103 8 26 101 3 115 -2 9 -37 17 -93 rlineto
          -57 252 rmoveto
          -74 -2 -74 2 75 245 rlineto
          11 hlineto
          endchar
        </CharString>
        <CharString name="Ahookabove">
          64 21 -21 131 120 246 148 216 70 hstem
          302 82 vstem
          273 861 rmoveto
          16 13 -7 -16 -20 -20 -29 -33 -24 hvcurveto
          47 -72 55 33 -25 40 rlineto
          43 38 15 21 28 vvcurveto
          46 -39 32 -49 -41 -42 -21 -34 -31 vhcurveto
          25 -40 rlineto
          16 20 26 9 20 hhcurveto
          325 -861 rmoveto
          -189 645 rlineto
          -194 hlineto
          -209 -645 rlineto
          159 hlineto
          18 103 8 26 101 3 115 -2 9 -37 17 -93 rlineto
          -57 252 rmoveto
          -74 -2 -74 2 75 245 rlineto
          11 hlineto
          endchar
        </CharString>
        <CharString name="Amacron">
          64 21 -21 131 120 246 148 106 99 hstem
          6 592 vstem
          169 751 rmoveto
          278 hlineto
          8 88 -10 11 rlineto
          -279 hlineto
          -7 -88 rlineto
          439 -762 rmoveto
          -189 645 rlineto
          -194 hlineto
          -209 -645 rlineto
          159 hlineto
          18 103 8 26 101 3 115 -2 9 -37 17 -93 rlineto
          -57 252 rmoveto
          -74 -2 -74 2 75 245 rlineto
          11 hlineto
          endchar
        </CharString>
        <CharString name="Aogonek">
          64 -197 84 134 -21 131 120 246 148 hstem
          423 83 vstem
          614 -87 rmoveto
          -8 hlineto
          -16 -22 -23 -10 -20 hhcurveto
          -24 -11 13 20 18 9 23 29 39 hvcurveto
          54 hlineto
          -189 645 rlineto
          -194 hlineto
          -209 -645 rlineto
          159 hlineto
          18 103 8 26 101 3 115 -2 9 -37 17 -93 rlineto
          37 hlineto
          -35 -43 -12 -29 -32 vvcurveto
          -55 36 -38 59 37 32 16 32 39 vhcurveto
          -250 401 rmoveto
          -74 -2 -74 2 75 245 rlineto
          11 hlineto
          endchar
        </CharString>
        <CharString name="Aring">
          64 21 -21 131 120 246 148 68 64 72 65 hstem
          205 64 76 64 vstem
          304 713 rmoveto
          66 39 38 67 61 -33 35 -66 -68 -37 -36 -66 -65 36 -34 63 hvcurveto
          2 136 rmoveto
          28 11 -12 -25 -25 -12 -10 -25 -27 -12 11 27 23 11 11 26 hvcurveto
          292 -849 rmoveto
          -189 645 rlineto
          -194 hlineto
          -209 -645 rlineto
          159 hlineto
          18 103 8 26 101 3 115 -2 9 -37 17 -93 rlineto
          -57 252 rmoveto
          -74 -2 -74 2 75 245 rlineto
          11 hlineto
          endchar
        </CharString>
        <CharString name="Aringacute">
          64 21 -21 128 116.5 400.5 -20 92 65 hstem
          210 64 76 64 vstem
          216 801 rmoveto
          14 -6 76 12 73 12 84 17 rlinecurve
          7 13 -26 99 -13 5 -76 -30 -72 -26 -82 -27 rlinecurve
          397 -870 rmoveto
          -197 628 rlineto
          9 16 4 19 23 vvcurveto
          61 -33 35 -66 -68 -37 -36 -66 -22 4 -18 8 -14 vhcurveto
          -216 -626 rlineto
          159 hlineto
          18 100 8 26 101 3 114 -2 10 -37 17 -90 rlineto
          -122 717 rmoveto
          28 11 -12 -25 -25 -12 -10 -25 -27 -12 11 27 23 11 11 26 hvcurveto
          65 -472 rmoveto
          -74 -1 -74 1 75 238 rlineto
          11 hlineto
          endchar
        </CharString>
        <CharString name="Atilde">
          64 21 -21 131 120 246 148 hstem
          6 592 vstem
          169 712 rmoveto
          14 hlineto
          28 24 18 26 23 hhcurveto
          26 79 -28 -7 49 hvcurveto
          14 6 74 99 rlineto
          13 vlineto
          -46 46 rlineto
          -14 hlineto
          -28 -24 -18 -27 -23 hhcurveto
          -26 -79 29 6 -49 hvcurveto
          -14 -5 -74 -99 rlineto
          -13 vlineto
          475 -758 rmoveto
          -189 645 rlineto
          -194 hlineto
          -209 -645 rlineto
          159 hlineto
          18 103 8 26 101 3 115 -2 9 -37 17 -93 rlineto
          -57 252 rmoveto
          -74 -2 -74 2 75 245 rlineto
          11 hlineto
          endchar
        </CharString>
        <CharString name="B">
          53 -6 112 -85 -21 267 108 159 112 hstemhm
          74.5 149 154.5 165 -137 164 hintmask 10111010
          445 333 rmoveto
          hintmask 01111100
          63 29 35 53 68 vvcurveto
          107 -83 56 -136 vhcurveto
          -254 -1 9 -454 -9 -191 rlineto
          1 hlineto
          hintmask 10111010
          -4 61 90 -2 40 hhcurveto
          202 106 59 131 79 -38 48 -87 22 hvcurveto
          hintmask 10111100
          -67 128 rmoveto
          -49 -22 -26 -45 -13 vhcurveto
          -86 4 4 157 rlineto
          32 hlineto
          88 29 -19 -54 hvcurveto
          hintmask 10111010
          -86 -355 rmoveto
          -16 -25 2 2 -26 hvcurveto
          -3 97 1 59 105 2 rlineto
          53 -12 25 -23 -42 vvcurveto
          -56 -43 -29 -71 vhcurveto
          endchar
        </CharString>
        <CharString name="C">
          -31 -10 135 397 132 hstem
          24 171 vstem
          342 654 rmoveto
          -203 -115 -123 -214 -211 104 -116 203 51 50 8 20 50 hvcurveto
          13 133 -14 8 rlineto
          -21 -40 -53 -13 -44 hhcurveto
          -99 -50 68 142 130 46 57 95 45 50 -15 -25 38 hvcurveto
          11 6 29 133 rlineto
          21 -48 -56 12 -63 hhcurveto
          endchar
        </CharString>
        <CharString name="C.ss01">
          -96 0 55 -55 121 267 120 -55 55 hstemhm
          34 152 hintmask 00000000
          hintmask 10101000
          288 388 rmoveto
          34 42 -11 -17 28 hvcurveto
          10 6 rlineto
          hintmask 10011000
          18 87 rlineto
          131 55 -651 -55 220 hlineto
          -56 -43 -30 -70 -91 vvcurveto
          -87 25 -65 50 -42 vhcurveto
          -209 -55 651 55 -145 hlineto
          hintmask 01011000
          8 80 -12 7 rlineto
          -12 -30 -43 -9 -33 hhcurveto
          -74 -36 46 99 hvcurveto
          hintmask 10101000
          87 33 35 69 vhcurveto
          endchar
        </CharString>
        <CharString name="Cacute">
          -31 -10 135 397 132 hstem
          24 171 vstem
          430 897 rmoveto
          -14 3 -70 -41 -68 -37 -77 -38 rlinecurve
          25 -66 15 -4 73 23 71 23 80 29 rlinecurve
          5 13 rlineto
          -127 -148 rmoveto
          -203 -116 -123 -214 -211 105 -116 202 51 50 8 20 50 hvcurveto
          13 133 -14 8 rlineto
          -21 -39 -54 -13 -44 hhcurveto
          -99 -50 68 142 130 47 57 94 46 50 -15 -25 37 hvcurveto
          12 6 28 133 rlineto
          21 -48 -56 12 -62 hhcurveto
          endchar
        </CharString>
        <CharString name="Ccaron">
          -31 -10 135 397 132 hstem
          24 171 vstem
          445 888 rmoveto
          -15 hlineto
          -38 -21 -38 -20 -37 -21 -114 62 rcurveline
          -15 hlineto
          -28 -63 52 -35 47 -37 43 -38 rlinecurve
          30 hlineto
          42 38 47 37 52 35 rrcurveto
          -130 -171 rmoveto
          -203 -116 -123 -214 -211 105 -116 202 51 50 8 20 50 hvcurveto
          13 133 -14 8 rlineto
          -21 -39 -54 -13 -44 hhcurveto
          -99 -50 68 142 130 47 57 94 46 50 -15 -25 37 hvcurveto
          12 6 28 133 rlineto
          21 -48 -56 12 -62 hhcurveto
          endchar
        </CharString>
        <CharString name="Ccedilla">
          -31 -203 64 129 135 -114 -21 24 -21 529 132 hstemhm
          24 171 131 90 hintmask 00000000
          hintmask 11001100
          344 125 rmoveto
          -99 -50 68 142 130 47 57 94 46 50 -15 -25 37 hvcurveto
          12 6 28 133 rlineto
          21 -48 -56 12 -62 hhcurveto
          -203 -116 -123 -214 hvcurveto
          hintmask 10011110
          -191 86 -114 167 -19 vhcurveto
          -15 -69 49 -27 rlineto
          10 -5 5 -5 -8 vvcurveto
          -12 -7 -6 -14 -17 -22 10 19 -20 vhcurveto
          -7 -3 -10 -64 rlineto
          -15 24 28 -11 34 hhcurveto
          63 38 33 45 hvcurveto
          hintmask 10101110
          24 -10 20 -32 17 vhcurveto
          -34 19 8 35 45 2 44 8 45 18 rlinecurve
          hintmask 11001100
          13 133 -14 8 rlineto
          -21 -39 -54 -13 -44 hhcurveto
          endchar
        </CharString>
        <CharString name="Ccircumflex">
          -31 -10 135 397 132 hstem
          24 171 vstem
          188 725 rmoveto
          15 hlineto
          38 21 38 20 37 21 114 -62 rcurveline
          15 hlineto
          28 63 -52 35 -47 37 -43 38 rlinecurve
          -30 hlineto
          -42 -38 -47 -37 -52 -35 rrcurveto
          183 -134 rmoveto
          -203 -116 -123 -214 -211 105 -116 202 51 50 8 20 50 hvcurveto
          13 133 -14 8 rlineto
          -21 -39 -54 -13 -44 hhcurveto
          -99 -50 68 142 130 47 57 94 46 50 -15 -25 37 hvcurveto
          12 6 28 133 rlineto
          21 -48 -56 12 -62 hhcurveto
          endchar
        </CharString>
        <CharString name="Cdotaccent">
          -31 -10 135 397 132 65 166 hstem
          24 171 40 162 vstem
          319 885 rmoveto
          -52 -32 -34 -52 -51 27 -29 51 51 33 34 53 49 -29 30 -49 hvcurveto
          24 -231 rmoveto
          -203 -116 -123 -214 -211 105 -116 202 51 50 8 20 50 hvcurveto
          13 133 -14 8 rlineto
          -21 -39 -54 -13 -44 hhcurveto
          -99 -50 68 142 130 47 57 94 46 50 -15 -25 37 hvcurveto
          12 6 28 133 rlineto
          21 -48 -56 12 -62 hhcurveto
          endchar
        </CharString>
        <CharString name="D">
          112 -8 123 -94 -21 521 128 hstemhm
          74.5 155.5 236 169 hintmask 10111000
          71 645 rmoveto
          -1 hlineto
          9 -454 rlineto
          hintmask 01111000
          -9 -191 rlineto
          1 hlineto
          hintmask 10111000
          -4 70 106 -4 56 hhcurveto
          214 118 127 229 194 -103 107 -189 hvcurveto
          -10 -534 rmoveto
          -20 -47 3 5 -37 hvcurveto
          -2 84 6 310 rlineto
          3 33 44 1 20 hhcurveto
          95 41 -59 -153 -139 -50 -55 -83 hvcurveto
          endchar
        </CharString>
        <CharString name="D.ss01">
          25 0 55 -55 110 277 121 -55 55 hstemhm
          77 138 171 151 hintmask 10011100
          672 453 rmoveto
          55 -772 -55 174 vlineto
          6 -301 -5 -97 rlineto
          -175 -55 772 55 -224 hlineto
          58 46 31 73 99 vvcurveto
          80 -25 61 -48 39 vhcurveto
          -252 -286 rmoveto
          hintmask 01101100
          6 217 rlineto
          2 25 29 1 16 hhcurveto
          69 29 -38 -111 -94 -36 -34 -58 -16 -36 3 4 -26 hvcurveto
          endchar
        </CharString>
        <CharString name="Dcaron">
          112 -8 123 -94 -21 521 128 hstemhm
          74.5 154.5 237 170 hintmask 10111000
          339 715 rmoveto
          42 38 47 37 52 35 -28 63 rcurveline
          -15 hlineto
          -38 -21 -38 -20 -37 -21 -114 62 rcurveline
          -15 hlineto
          -28 -63 52 -35 47 -37 43 -38 rlinecurve
          -238 -70 rmoveto
          -1 hlineto
          9 -454 rlineto
          hintmask 01111000
          -9 -191 rlineto
          1 hlineto
          hintmask 10111000
          -4 71 105 -4 57 hhcurveto
          213 119 127 229 194 -104 107 -188 hvcurveto
          -10 -534 rmoveto
          -21 -48 3 5 -36 hvcurveto
          -3 84 6 310 rlineto
          3 34 44 1 20 hhcurveto
          95 41 -59 -153 -139 -49 -55 -83 hvcurveto
          endchar
        </CharString>
        <CharString name="Dcroat">
          112 -8 123 -94 -21 521 128 102 99 hstemhm
          74.5 154.5 237 170 hintmask 10111100
          186 751 rmoveto
          278 hlineto
          8 88 -10 11 rlineto
          -279 hlineto
          -7 -88 rlineto
          -105 -117 rmoveto
          -1 hlineto
          9 -454 rlineto
          hintmask 01111100
          -9 -191 rlineto
          1 hlineto
          hintmask 10111100
          -4 71 105 -4 57 hhcurveto
          213 119 127 229 194 -104 107 -188 hvcurveto
          -10 -534 rmoveto
          -21 -48 3 5 -36 hvcurveto
          -3 84 6 310 rlineto
          3 34 44 1 20 hhcurveto
          95 41 -59 -153 -139 -49 -55 -83 hvcurveto
          endchar
        </CharString>
        <CharString name="Delta">
          64 0 121 376 148 hstem
          6 592 vstem
          598 hmoveto
          -189 645 rlineto
          -195 hlineto
          -208 -645 rlineto
          297 497 rmoveto
          10 hlineto
          97 -376 rlineto
          -222 hlineto
          endchar
        </CharString>
        <CharString name="E">
          -25 0 126.5 -126.5 129 134 126 127 129 -126.5 126.5 -12 12 hstemhm
          74.5 157.5 hintmask 01101010
          497 132 rmoveto
          hintmask 10101010
          -162 -6 rlineto
          hintmask 01101010
          -106 1 -2 80 1 56 rlineto
          97 hlineto
          115 -3 10 120 -9 12 -105 -3 rlineto
          -105 hlineto
          2 129 110 1 rlineto
          hintmask 01110010
          157 -6 rlineto
          hintmask 01100110
          11 120 rlineto
          hintmask 01101010
          -9 12 rlineto
          -432 hlineto
          9 -454 -9 -191 rlineto
          426 hlineto
          10 120 rlineto
          endchar
        </CharString>
        <CharString name="Eacute">
          -25 0 126.5 -126.5 129 134 126 127 129 -126.5 126.5 -12 12 hstemhm
          74.5 156.5 hintmask 01101010
          197 718 rmoveto
          15 -4 73 23 71 23 80 29 rlinecurve
          5 13 -40 95 -14 3 -70 -41 -68 -37 -77 -38 rlinecurve
          325 -652 rmoveto
          hintmask 10101010
          -162 -6 rlineto
          hintmask 01101010
          -106 1 -3 80 1 56 rlineto
          98 hlineto
          115 -3 10 120 -9 12 -105 -3 rlineto
          -106 hlineto
          2 129 111 1 rlineto
          hintmask 01110010
          156 -6 rlineto
          hintmask 01100110
          11 120 rlineto
          hintmask 01101010
          -9 12 rlineto
          -431 hlineto
          9 -454 -9 -191 rlineto
          426 hlineto
          10 120 rlineto
          endchar
        </CharString>
        <CharString name="Ebreve">
          -25 0 126.5 -126.5 129 134 126 127 129 -126.5 126.5 -12 12 73 110 hstemhm
          74.5 156.5 hintmask 01101011
          284 718 rmoveto
          79 58 41 73 27 hvcurveto
          -34 49 rlineto
          -23 hlineto
          -34 -19 -36 -19 -47 hhcurveto
          -50 -38 19 34 -20 hvcurveto
          -22 hlineto
          -34 -49 rlineto
          -73 25 56 -41 78 hhcurveto
          213 -586 rmoveto
          hintmask 10101011
          -162 -6 rlineto
          hintmask 01101011
          -106 1 -3 80 1 56 rlineto
          98 hlineto
          115 -3 10 120 -9 12 -105 -3 rlineto
          -106 hlineto
          2 129 111 1 rlineto
          hintmask 01110011
          156 -6 rlineto
          hintmask 01100111
          11 120 rlineto
          hintmask 01101011
          -9 12 rlineto
          -431 hlineto
          9 -454 -9 -191 rlineto
          426 hlineto
          10 120 rlineto
          endchar
        </CharString>
        <CharString name="Ecaron">
          -25 0 126.5 -126.5 129 134 126 127 129 -126.5 126.5 -12 12 hstemhm
          74.5 156.5 hintmask 01101010
          302 715 rmoveto
          42 38 47 37 52 35 -28 63 rcurveline
          -15 hlineto
          -38 -21 -38 -20 -37 -21 -114 62 rcurveline
          -15 hlineto
          -28 -63 52 -35 47 -37 43 -38 rlinecurve
          225 -583 rmoveto
          hintmask 10101010
          -162 -6 rlineto
          hintmask 01101010
          -106 1 -3 80 1 56 rlineto
          98 hlineto
          115 -3 10 120 -9 12 -105 -3 rlineto
          -106 hlineto
          2 129 111 1 rlineto
          hintmask 01110010
          156 -6 rlineto
          hintmask 01100110
          11 120 rlineto
          hintmask 01101010
          -9 12 rlineto
          -431 hlineto
          9 -454 -9 -191 rlineto
          426 hlineto
          10 120 rlineto
          endchar
        </CharString>
        <CharString name="Ecircumflex">
          -25 0 126.5 -126.5 129 134 126 127 129 -126.5 126.5 -12 12 hstemhm
          74.5 156.5 hintmask 01101010
          158 725 rmoveto
          15 hlineto
          38 20 38 21 37 21 38 -21 38 -21 38 -20 rrcurveto
          15 hlineto
          28 62 -52 36 -47 36 -43 38 rlinecurve
          -30 hlineto
          -42 -38 -47 -36 -52 -36 rrcurveto
          367 -655 rmoveto
          hintmask 10101010
          -162 -6 rlineto
          hintmask 01101010
          -106 1 -3 80 1 56 rlineto
          98 hlineto
          115 -3 10 120 -9 12 -105 -3 rlineto
          -106 hlineto
          2 129 111 1 rlineto
          hintmask 01110010
          156 -6 rlineto
          hintmask 01100110
          11 120 rlineto
          hintmask 01101010
          -9 12 rlineto
          -431 hlineto
          9 -454 -9 -191 rlineto
          426 hlineto
          10 120 rlineto
          endchar
        </CharString>
        <CharString name="Ecircumflexacute">
          -25 0 126.5 -126.5 129 134 126 127 129 -126.5 126.5 -12 12 hstemhm
          74.5 156.5 hintmask 01101010
          396 839 rmoveto
          10 hlineto
          101 134 -4 11 -79 34 -11 -5 -70 -134 rlineto
          -186 -174 rmoveto
          15 hlineto
          38 20 38 21 37 21 38 -21 38 -21 38 -20 rrcurveto
          15 hlineto
          28 62 -52 36 -47 36 -43 38 rlinecurve
          -30 hlineto
          -42 -38 -47 -36 -52 -36 rrcurveto
          368 -635 rmoveto
          hintmask 10101010
          -162 -6 rlineto
          hintmask 01101010
          -106 1 -3 80 1 56 rlineto
          98 hlineto
          115 -3 10 120 -9 12 -105 -3 rlineto
          -106 hlineto
          2 129 111 1 rlineto
          hintmask 01110010
          156 -6 rlineto
          hintmask 01100110
          11 120 rlineto
          hintmask 01101010
          -9 12 rlineto
          -431 hlineto
          9 -454 -9 -191 rlineto
          426 hlineto
          10 120 rlineto
          endchar
        </CharString>
        <CharString name="Ecircumflexdotbelow">
          -25 -209 165 44 126.5 -126.5 129 134 126 127 129 -126.5 126.5 -12 12 hstemhm
          74.5 156.5 -13 162 hintmask 0011010100000000
          158 725 rmoveto
          15 hlineto
          38 20 38 21 37 21 38 -21 38 -21 38 -20 rrcurveto
          15 hlineto
          28 62 -52 36 -47 36 -43 38 rlinecurve
          -30 hlineto
          -42 -38 -47 -36 -52 -36 rrcurveto
          367 -655 rmoveto
          hintmask 0101010100000000
          -162 -6 rlineto
          hintmask 0011010100000000
          -106 1 -3 80 1 56 rlineto
          98 hlineto
          115 -3 10 120 -9 12 -105 -3 rlineto
          -106 hlineto
          2 129 111 1 rlineto
          hintmask 0011100100000000
          156 -6 rlineto
          hintmask 0011001100000000
          11 120 rlineto
          hintmask 0011010100000000
          -9 12 rlineto
          -431 hlineto
          9 -454 -9 -191 rlineto
          426 hlineto
          10 120 rlineto
          hintmask 1011010010000000
          -203 -164 rmoveto
          -52 -33 -33 -53 -51 28 -28 51 51 32 33 53 50 -28 29 -49 hvcurveto
          endchar
        </CharString>
        <CharString name="Ecircumflexgrave">
          -25 0 126.5 -126.5 129 134 126 127 129 -126.5 126.5 -12 12 hstemhm
          74.5 156.5 hintmask 01101010
          397 839 rmoveto
          10 hlineto
          53 40 -70 134 -11 5 -79 -34 -4 -11 rlineto
          -139 -268 rmoveto
          15 hlineto
          38 20 38 21 37 21 38 -21 38 -21 38 -20 rrcurveto
          15 hlineto
          28 62 -52 36 -47 36 -43 38 rlinecurve
          -30 hlineto
          -42 -38 -47 -36 -52 -36 rrcurveto
          368 -635 rmoveto
          hintmask 10101010
          -162 -6 rlineto
          hintmask 01101010
          -106 1 -3 80 1 56 rlineto
          98 hlineto
          115 -3 10 120 -9 12 -105 -3 rlineto
          -106 hlineto
          2 129 111 1 rlineto
          hintmask 01110010
          156 -6 rlineto
          hintmask 01100110
          11 120 rlineto
          hintmask 01101010
          -9 12 rlineto
          -431 hlineto
          9 -454 -9 -191 rlineto
          426 hlineto
          10 120 rlineto
          endchar
        </CharString>
        <CharString name="Ecircumflexhookabove">
          -25 0 126.5 -126.5 129 134 126 127 129 -126.5 126.5 -12 12 352 67 hstemhm
          74.5 156.5 167 78 hintmask 0110101110000000
          370 997 rmoveto
          16 12 -6 -16 -18 -19 -28 -31 -23 hvcurveto
          45 -68 52 31 -24 38 rlineto
          41 36 14 20 27 vvcurveto
          44 -37 30 -47 -39 -40 -21 -32 -29 vhcurveto
          23 -38 rlineto
          15 20 25 9 18 hhcurveto
          -213 -292 rmoveto
          15 hlineto
          38 20 38 21 37 21 38 -21 38 -21 38 -20 rrcurveto
          15 hlineto
          28 62 -52 36 -47 36 -43 38 rlinecurve
          -30 hlineto
          -42 -38 -47 -36 -52 -36 rrcurveto
          368 -635 rmoveto
          hintmask 1010101110000000
          -162 -6 rlineto
          hintmask 0110101110000000
          -106 1 -3 80 1 56 rlineto
          98 hlineto
          115 -3 10 120 -9 12 -105 -3 rlineto
          -106 hlineto
          2 129 111 1 rlineto
          hintmask 0111001110000000
          156 -6 rlineto
          hintmask 0110011110000000
          11 120 rlineto
          hintmask 0110101110000000
          -9 12 rlineto
          -431 hlineto
          9 -454 -9 -191 rlineto
          426 hlineto
          10 120 rlineto
          endchar
        </CharString>
        <CharString name="Ecircumflextilde">
          -25 0 126.5 -126.5 129 134 126 127 129 -126.5 126.5 -12 12 hstemhm
          74.5 156.5 hintmask 01101010
          397 839 rmoveto
          10 hlineto
          53 40 -70 134 -11 5 -79 -34 -4 -11 rlineto
          -139 -268 rmoveto
          15 hlineto
          38 20 38 21 37 21 38 -21 38 -21 38 -20 rrcurveto
          15 hlineto
          28 62 -52 36 -47 36 -43 38 rlinecurve
          -30 hlineto
          -42 -38 -47 -36 -52 -36 rrcurveto
          368 -635 rmoveto
          hintmask 10101010
          -162 -6 rlineto
          hintmask 01101010
          -106 1 -3 80 1 56 rlineto
          98 hlineto
          115 -3 10 120 -9 12 -105 -3 rlineto
          -106 hlineto
          2 129 111 1 rlineto
          hintmask 01110010
          156 -6 rlineto
          hintmask 01100110
          11 120 rlineto
          hintmask 01101010
          -9 12 rlineto
          -431 hlineto
          9 -454 -9 -191 rlineto
          426 hlineto
          10 120 rlineto
          endchar
        </CharString>
        <CharString name="Edieresis">
          -25 0 126.5 -126.5 129 134 126 127 129 -126.5 126.5 -12 12 81 149 hstemhm
          74.5 156.5 -108 146 36 146 hintmask 0000000000000000
          hintmask 0110101011000000
          194 726 rmoveto
          46 29 30 48 44 -26 27 -44 -47 -29 -30 -48 -45 25 -26 46 hvcurveto
          182 hmoveto
          46 29 30 48 44 -26 27 -44 -47 -29 -30 -48 -45 25 -26 46 hvcurveto
          121 -594 rmoveto
          hintmask 1010100101000000
          -162 -6 rlineto
          hintmask 0110100100000000
          -106 1 -3 80 1 56 rlineto
          98 hlineto
          115 -3 10 120 -9 12 -105 -3 rlineto
          -106 hlineto
          2 129 111 1 rlineto
          hintmask 0111000100000000
          156 -6 rlineto
          hintmask 0110010100000000
          11 120 rlineto
          hintmask 0110100100000000
          -9 12 rlineto
          -431 hlineto
          9 -454 -9 -191 rlineto
          426 hlineto
          10 120 rlineto
          endchar
        </CharString>
        <CharString name="Edotaccent">
          -25 0 126.5 -126.5 129 134 126 127 129 -126.5 126.5 -12 12 74 166 hstemhm
          74.5 156.5 -25 162 hintmask 0000000000000000
          hintmask 0110101010000000
          284 719 rmoveto
          51 33 34 53 49 -29 30 -49 -52 -32 -34 -52 -51 27 -29 51 hvcurveto
          213 -587 rmoveto
          hintmask 1010100010000000
          -162 -6 rlineto
          hintmask 0110100100000000
          -106 1 -3 80 1 56 rlineto
          98 hlineto
          115 -3 10 120 -9 12 -105 -3 rlineto
          -106 hlineto
          2 129 111 1 rlineto
          hintmask 0111000100000000
          156 -6 rlineto
          hintmask 0110010100000000
          11 120 rlineto
          hintmask 0110100100000000
          -9 12 rlineto
          -431 hlineto
          9 -454 -9 -191 rlineto
          426 hlineto
          10 120 rlineto
          endchar
        </CharString>
        <CharString name="Edotbelow">
          -25 -210 166 44 126.5 -126.5 129 134 126 127 129 -126.5 126.5 -12 12 hstemhm
          74.5 156.5 -12 162 hintmask 0011010100000000
          497 132 rmoveto
          hintmask 0101010100000000
          -162 -6 rlineto
          hintmask 0011010100000000
          -106 1 -3 80 1 56 rlineto
          98 hlineto
          115 -3 10 120 -9 12 -105 -3 rlineto
          -106 hlineto
          2 129 111 1 rlineto
          hintmask 0011100100000000
          156 -6 rlineto
          hintmask 0011001100000000
          11 120 rlineto
          hintmask 0011010100000000
          -9 12 rlineto
          -431 hlineto
          9 -454 -9 -191 rlineto
          426 hlineto
          10 120 rlineto
          hintmask 1011010010000000
          -203 -164 rmoveto
          -52 -32 -34 -52 -51 27 -29 51 51 33 34 53 49 -29 30 -49 hvcurveto
          endchar
        </CharString>
        <CharString name="Egrave">
          -25 0 126.5 -126.5 129 134 126 127 129 -126.5 126.5 -12 12 hstemhm
          74.5 156.5 hintmask 01101010
          398 718 rmoveto
          25 66 -77 38 -68 37 -70 41 rlinecurve
          -14 -3 -40 -95 5 -13 80 -29 71 -23 73 -23 rlinecurve
          114 -582 rmoveto
          hintmask 10101010
          -162 -6 rlineto
          hintmask 01101010
          -106 1 -3 80 1 56 rlineto
          98 hlineto
          115 -3 10 120 -9 12 -105 -3 rlineto
          -106 hlineto
          2 129 111 1 rlineto
          hintmask 01110010
          156 -6 rlineto
          hintmask 01100110
          11 120 rlineto
          hintmask 01101010
          -9 12 rlineto
          -431 hlineto
          9 -454 -9 -191 rlineto
          426 hlineto
          10 120 rlineto
          endchar
        </CharString>
        <CharString name="Ehookabove">
          -25 0 126.5 -126.5 129 134 126 127 129 -126.5 126.5 -12 12 216 70 hstemhm
          74.5 156.5 51 82 hintmask 0110101110000000
          253 861 rmoveto
          16 13 -7 -16 -20 -20 -29 -33 -24 hvcurveto
          47 -72 55 33 -25 40 rlineto
          43 38 15 21 28 vvcurveto
          46 -39 32 -49 -41 -42 -21 -34 -31 vhcurveto
          25 -40 rlineto
          16 20 26 9 20 hhcurveto
          244 -729 rmoveto
          hintmask 1010101110000000
          -162 -6 rlineto
          hintmask 0110101110000000
          -106 1 -3 80 1 56 rlineto
          98 hlineto
          115 -3 10 120 -9 12 -105 -3 rlineto
          -106 hlineto
          2 129 111 1 rlineto
          hintmask 0111001110000000
          156 -6 rlineto
          hintmask 0110011110000000
          11 120 rlineto
          hintmask 0110101110000000
          -9 12 rlineto
          -431 hlineto
          9 -454 -9 -191 rlineto
          426 hlineto
          10 120 rlineto
          endchar
        </CharString>
        <CharString name="Emacron">
          -25 0 126.5 -126.5 129 134 126 127 129 -126.5 126.5 -12 12 106 99 hstemhm
          74.5 156.5 hintmask 01101011
          149 751 rmoveto
          278 hlineto
          8 88 -10 11 rlineto
          -279 hlineto
          -7 -88 rlineto
          358 -630 rmoveto
          hintmask 10101011
          -162 -6 rlineto
          hintmask 01101011
          -106 1 -3 80 1 56 rlineto
          98 hlineto
          115 -3 10 120 -9 12 -105 -3 rlineto
          -106 hlineto
          2 129 111 1 rlineto
          hintmask 01110011
          156 -6 rlineto
          hintmask 01100111
          11 120 rlineto
          hintmask 01101011
          -9 12 rlineto
          -431 hlineto
          9 -454 -9 -191 rlineto
          426 hlineto
          10 120 rlineto
          endchar
        </CharString>
        <CharString name="Eng">
          154 21 -21 645 -20 23 -20 hstemhm
          75 137.5 271 143 hintmask 10111000
          622 204 rmoveto
          9 444 -150 -9 5 -379 rlineto
          -10 hlineto
          hintmask 11011000
          -229 385 rlineto
          -176 hlineto
          8 -455 -9 -190 rlineto
          149 hlineto
          -7 227 1 172 rlineto
          10 hlineto
          241 -399 -14 -30 -29 -23 -48 -24 rlinecurve
          -14 vlineto
          45 -84 rlineto
          157 53 51 62 115 vvcurveto
          endchar
        </CharString>
        <CharString name="Eogonek">
          -25 -197 84 113 126.5 -126.5 129 134 126 127 129 -126.5 126.5 -12 12 hstemhm
          74.5 156.5 79 83 hintmask 1101010110000000
          502 -87 rmoveto
          -9 hlineto
          -16 -21 -23 -10 -19 hhcurveto
          -25 -12 15 21 14 6 15 10 16 hvcurveto
          21 32 rlineto
          66 hlineto
          hintmask 1011010110000000
          10 120 -9 12 rlineto
          hintmask 1101010110000000
          -162 -6 -106 1 -3 80 1 56 rlineto
          98 hlineto
          115 -3 10 120 -9 12 -105 -3 rlineto
          -106 hlineto
          2 129 111 1 rlineto
          hintmask 1101100110000000
          156 -6 rlineto
          hintmask 1101001110000000
          11 120 rlineto
          hintmask 1101010110000000
          -9 12 rlineto
          -431 hlineto
          9 -454 -9 -191 rlineto
          286 hlineto
          -15 -20 rlineto
          -21 -29 -10 -29 -27 vvcurveto
          -52 37 -40 60 36 31 15 33 39 vhcurveto
          endchar
        </CharString>
        <CharString name="Eth">
          139 -8 123 -94 -21 265 106 150 128 hstemhm
          100.5 158 -153 149 238.5 170 hintmask 00000000
          hintmask 10111010
          98 645 rmoveto
          5 -274 rlineto
          hintmask 01110110
          -81 hlineto
          -5 -95 7 -11 rlineto
          81 hlineto
          1 -74 -8 -191 rlineto
          hintmask 10110110
          -4 71 105 -4 57 hhcurveto
          213 119 127 229 194 -104 107 -188 hvcurveto
          -10 -534 rmoveto
          -21 -47 3 5 -36 hvcurveto
          -3 84 1 58 rlineto
          108 hlineto
          5 95 -7 11 rlineto
          hintmask 10111010
          -104 hlineto
          3 146 rlineto
          3 33 44 1 20 hhcurveto
          95 41 -59 -153 hvcurveto
          hintmask 10110110
          -139 -49 -55 -83 vhcurveto
          endchar
        </CharString>
        <CharString name="Etilde">
          -25 0 126.5 -126.5 129 134 126 127 129 -126.5 126.5 -12 12 hstemhm
          74.5 156.5 hintmask 01101010
          148 712 rmoveto
          14 hlineto
          28 24 18 26 23 hhcurveto
          26 79 -28 -7 49 hvcurveto
          14 6 74 99 rlineto
          13 vlineto
          -46 46 rlineto
          -14 hlineto
          -28 -24 -18 -27 -23 hhcurveto
          -26 -79 29 6 -49 hvcurveto
          -14 -5 -74 -99 rlineto
          -13 vlineto
          395 -626 rmoveto
          hintmask 10101010
          -162 -6 rlineto
          hintmask 01101010
          -106 1 -3 80 1 56 rlineto
          98 hlineto
          115 -3 10 120 -9 12 -105 -3 rlineto
          -106 hlineto
          2 129 111 1 rlineto
          hintmask 01110010
          156 -6 rlineto
          hintmask 01100110
          11 120 rlineto
          hintmask 01101010
          -9 12 rlineto
          -431 hlineto
          9 -454 -9 -191 rlineto
          426 hlineto
          10 120 rlineto
          endchar
        </CharString>
        <CharString name="Euro">
          -88 -8 120 50 73 35 73 52 121 hstem
          2 449 vstem
          7 270 rmoveto
          351 hlineto
          4 66 -6 7 rlineto
          -123 hlineto
          36 14 28 16 43 hhcurveto
          31 40 -10 -15 28 hvcurveto
          10 6 24 117 rlineto
          14 -37 -44 9 -46 hhcurveto
          -131 -86 -62 -111 -31 hvcurveto
          -70 hlineto
          -4 -65 rlineto
          322 -166 rmoveto
          -42 -29 16 34 -16 hvcurveto
          121 hlineto
          4 65 -6 8 rlineto
          -350 hlineto
          -4 -66 5 -7 rlineto
          64 hlineto
          -111 25 80 -59 139 hhcurveto
          35 39 4 13 38 hvcurveto
          12 116 -13 8 rlineto
          -12 -29 -44 -9 -29 hhcurveto
          endchar
        </CharString>
        <CharString name="F">
          -81 21 -21 242 126 148 129 -126.5 126.5 -12 12 hstemhm
          74.5 157 hintmask 11100100
          233 518 rmoveto
          hintmask 11010100
          83 1 rlineto
          hintmask 11100100
          156 -6 rlineto
          hintmask 11001100
          11 120 rlineto
          hintmask 11100100
          -9 12 rlineto
          -404 hlineto
          9 -454 -9 -191 rlineto
          163 hlineto
          -6 207 1 35 rlineto
          71 hlineto
          123 -3 10 120 -9 12 -112 -3 rlineto
          -81 hlineto
          endchar
        </CharString>
        <CharString name="G">
          50 -10 125 409 130 hstem
          24 169 216.5 146 vstem
          372 654 rmoveto
          -223 -125 -120 -225 -202 100 -117 207 69 74 13 29 82 hvcurveto
          -1 165 2 87 -149 -10 3 -104 -1 -45 rlineto
          -7 -26 -17 -3 -22 hhcurveto
          -111 -41 50 152 156 44 51 105 60 46 -16 -34 63 hvcurveto
          14 hlineto
          34 145 rlineto
          24 -54 -65 11 -68 hhcurveto
          endchar
        </CharString>
        <CharString name="Gbreve">
          50 -10 125 409 130 64 110 hstem
          24 170 216 145.5 vstem
          455 881 rmoveto
          -23 hlineto
          -34 -19 -36 -19 -47 hhcurveto
          -50 -38 19 34 -20 hvcurveto
          -22 hlineto
          -34 -49 rlineto
          -73 25 56 -41 78 hhcurveto
          79 58 41 73 27 hvcurveto
          -117 -178 rmoveto
          -222 -126 -120 -225 -202 101 -117 207 69 74 13 29 81 hvcurveto
          -1 165 3 87 -149 -10 2 -104 -1 -45 rlineto
          -7 -26 -16 -3 -23 hhcurveto
          -111 -40 50 152 156 43 51 105 60 46 -16 -34 63 hvcurveto
          14 hlineto
          35 145 rlineto
          24 -55 -64 11 -69 hhcurveto
          endchar
        </CharString>
        <CharString name="Gcircumflex">
          50 -10 125 409 130 hstem
          24 170 216 145.5 vstem
          199 725 rmoveto
          15 hlineto
          38 21 38 20 37 21 114 -62 rcurveline
          15 hlineto
          28 63 -52 35 -47 37 -43 38 rlinecurve
          -30 hlineto
          -42 -38 -47 -37 -52 -35 rrcurveto
          201 -134 rmoveto
          -222 -126 -120 -225 -202 101 -117 207 69 74 13 29 81 hvcurveto
          -1 165 3 87 -149 -10 2 -104 -1 -45 rlineto
          -7 -26 -16 -3 -23 hhcurveto
          -111 -40 50 152 156 43 51 105 60 46 -16 -34 63 hvcurveto
          14 hlineto
          35 145 rlineto
          24 -55 -64 11 -69 hhcurveto
          endchar
        </CharString>
        <CharString name="Gcommaaccent">
          50 -67 -21 78 125 409 130 hstemhm
          24 170 76 114 26 145.5 hintmask 11110100
          372 654 rmoveto
          -222 -126 -120 -225 -202 101 -117 207 69 74 13 29 81 hvcurveto
          -1 165 3 87 -149 -10 2 -104 -1 -45 rlineto
          -7 -26 -16 -3 -23 hhcurveto
          -111 -40 50 152 156 43 51 105 60 46 -16 -34 63 hvcurveto
          14 hlineto
          35 145 rlineto
          24 -55 -64 11 -69 hhcurveto
          hintmask 11111100
          -29 -688 rmoveto
          -36 -9 -34 -15 -31 -18 -1 -12 rcurveline
          20 -17 9 -18 -23 vvcurveto
          -33 -16 -29 -33 -28 vhcurveto
          1 -10 44 -39 rlineto
          80 56 38 54 59 vvcurveto
          33 -13 26 -28 23 vhcurveto
          endchar
        </CharString>
        <CharString name="Gdieresis">
          50 -10 125 409 130 72 149 hstemhm
          24 170 -30 146 36 146 -82 145.5 hintmask 00000000
          hintmask 11101100
          240 875 rmoveto
          -47 -29 -30 -48 -45 25 -26 46 46 29 30 48 44 -26 27 -44 hvcurveto
          182 hmoveto
          -47 -29 -30 -48 -45 25 -26 46 46 29 30 48 44 -26 27 -44 hvcurveto
          -50 -221 rmoveto
          hintmask 11110010
          -222 -126 -120 -225 -202 101 -117 207 69 74 13 29 81 hvcurveto
          -1 165 3 87 -149 -10 2 -104 -1 -45 rlineto
          -7 -26 -16 -3 -23 hhcurveto
          -111 -40 50 152 156 43 51 105 60 46 -16 -34 63 hvcurveto
          14 hlineto
          35 145 rlineto
          hintmask 11101100
          24 -55 -64 11 -69 hhcurveto
          endchar
        </CharString>
        <CharString name="Gdotaccent">
          50 -10 125 409 130 65 166 hstemhm
          24 170 53 162 1 145.5 hintmask 00000000
          hintmask 11111000
          331 885 rmoveto
          -52 -32 -34 -52 -51 27 -29 51 51 33 34 53 49 -29 30 -49 hvcurveto
          41 -231 rmoveto
          -222 -126 -120 -225 -202 101 -117 207 hvcurveto
          hintmask 11110100
          69 74 13 29 81 hvcurveto
          -1 165 3 87 -149 -10 2 -104 -1 -45 rlineto
          -7 -26 -16 -3 -23 hhcurveto
          -111 -40 50 152 156 43 51 105 60 46 -16 -34 63 hvcurveto
          14 hlineto
          35 145 rlineto
          hintmask 11111000
          24 -55 -64 11 -69 hhcurveto
          endchar
        </CharString>
        <CharString name="Germandbls">
          139 -10 122 -112 30 -9 -21 526 129 hstemhm
          61 152 299 161 hintmask 10011000
          348 655 rmoveto
          -190 -100 -97 -148 1 hvcurveto
          4 -220 rlineto
          hintmask 00111000
          -9 -190 rlineto
          163 hlineto
          -6 207 4 203 rlineto
          78 -1 37 38 84 hhcurveto
          32 27 -6 -13 33 hvcurveto
          -126 -173 5 -22 rlineto
          hintmask 10011100
          157 -72 49 -37 -41 vvcurveto
          -29 -23 -21 -36 -41 -56 27 46 -52 vhcurveto
          -17 -10 rlineto
          hintmask 01011000
          -23 -145 rlineto
          hintmask 10011100
          -26 54 66 -14 59 hhcurveto
          124 106 62 129 96 -60 37 -119 69 hvcurveto
          133 181 -7 21 rlineto
          hintmask 10011000
          45 -97 -79 25 -96 hhcurveto
          endchar
        </CharString>
        <CharString name="Gtilde">
          50 -10 125 409 130 hstem
          24 170 216 145.5 vstem
          510 849 rmoveto
          -46 46 rlineto
          -14 hlineto
          -28 -24 -18 -27 -23 hhcurveto
          -26 -79 29 6 -49 hvcurveto
          -14 -5 -74 -99 rlineto
          -13 vlineto
          46 -46 rlineto
          14 hlineto
          28 24 18 26 23 hhcurveto
          26 79 -28 -7 49 hvcurveto
          14 6 74 99 rlineto
          -138 -182 rmoveto
          -222 -126 -120 -225 -202 101 -117 207 69 74 13 29 81 hvcurveto
          -1 165 3 87 -149 -10 2 -104 -1 -45 rlineto
          -7 -26 -16 -3 -23 hhcurveto
          -111 -40 50 152 156 43 51 105 60 46 -16 -34 63 hvcurveto
          14 hlineto
          35 145 rlineto
          24 -55 -64 11 -69 hhcurveto
          endchar
        </CharString>
        <CharString name="H">
          155 21 -21 257 130 258 -20 hstem
          74.5 159 235 158 vstem
          622 207 rmoveto
          9 438 rlineto
          -165 hlineto
          5 -257 -118 -2 -122 3 5 256 rlineto
          -166 hlineto
          9 -454 -9 -191 rlineto
          163 hlineto
          -6 207 1 48 115 3 130 -2 1 -65 -8 -191 rlineto
          163 hlineto
          endchar
        </CharString>
        <CharString name="Hbar">
          188 21 -21 257 130 87 87 -87 171 hstemhm
          84.5 163.5 -158.5 155 235.5 163 -160 154.5 hintmask 11010101
          640 474 rmoveto
          hintmask 11010110
          71 hlineto
          hintmask 11100110
          5 78 -7 9 rlineto
          -67 hlineto
          hintmask 11010110
          2 84 rlineto
          -165 hlineto
          hintmask 11101010
          2 -84 rlineto
          -234 hlineto
          hintmask 11011001
          2 84 rlineto
          -165 hlineto
          hintmask 11101001
          1 -84 rlineto
          hintmask 11100101
          -60 hlineto
          hintmask 11010101
          -5 -79 7 -8 rlineto
          60 hlineto
          5 -283 -8 -191 rlineto
          163 hlineto
          -7 207 1 48 115 3 131 -2 1 -65 -9 -191 rlineto
          163 hlineto
          -7 207 rlineto
          -153 267 rmoveto
          2 -86 -118 -2 -122 3 1 85 rlineto
          endchar
        </CharString>
        <CharString name="Hcircumflex">
          155 21 -21 257 130 258 -20 hstem
          74.5 158 236 158 vstem
          221 725 rmoveto
          15 hlineto
          38 21 38 20 37 21 114 -62 rcurveline
          15 hlineto
          28 63 -52 35 -47 37 -43 38 rlinecurve
          -30 hlineto
          -42 -38 -47 -37 -52 -35 rrcurveto
          429 -581 rmoveto
          9 438 rlineto
          -165 hlineto
          5 -257 -118 -2 -123 3 5 256 rlineto
          -165 hlineto
          9 -454 -9 -191 rlineto
          163 hlineto
          -7 207 1 48 116 3 131 -2 1 -65 -9 -191 rlineto
          163 hlineto
          endchar
        </CharString>
        <CharString name="I">
          -239 21 -21 645 -20 hstem
          74.5 157 vstem
          227 207 rmoveto
          9 438 rlineto
          -166 hlineto
          9 -454 -9 -191 rlineto
          163 hlineto
          endchar
        </CharString>
        <CharString name="I.ss01">
          -258 0 55 398 55 hstem
          69 144 vstem
          209 164 rmoveto
          8 289 rlineto
          172 55 -489 -55 166 hlineto
          6 -304 -4 -94 rlineto
          -168 -55 489 55 -176 hlineto
          endchar
        </CharString>
        <CharString name="IJ">
          107 21 -21 527.5 117.5 hstem
          74.5 156 197.5 152.5 vstem
          235 645 rmoveto
          -165 hlineto
          9 -454 -9 -191 rlineto
          163 hlineto
          -7 207 rlineto
          350 6 rmoveto
          9 432 rlineto
          -263 hlineto
          -7 -108 10 -11 97 3 6 -332 rlineto
          -71 vlineto
          -64 -28 -34 -76 -38 vhcurveto
          -14 vlineto
          46 -85 rlineto
          157 54 51 61 116 vvcurveto
          endchar
        </CharString>
        <CharString name="Iacute">
          -239 21 -21 645 -20 hstem
          74.5 156 vstem
          267 897 rmoveto
          -14 3 -70 -41 -68 -37 -77 -38 rlinecurve
          25 -66 15 -4 73 23 71 23 80 29 rlinecurve
          5 13 rlineto
          -81 -595 rmoveto
          9 438 rlineto
          -165 hlineto
          9 -454 -9 -191 rlineto
          163 hlineto
          endchar
        </CharString>
        <CharString name="Iacute_J.loclNLD">
          107 21 -21 527.5 117.5 hstem
          74.5 156 197.5 152.5 vstem
          267 897 rmoveto
          -14 3 -70 -41 -68 -37 -77 -38 rlinecurve
          25 -66 15 -4 73 23 71 23 80 29 rlinecurve
          5 13 rlineto
          310 hmoveto
          -40 95 -14 3 -70 -41 -68 -37 -77 -38 rlinecurve
          25 -66 15 -4 73 23 71 23 80 29 rlinecurve
          -377 -144 rmoveto
          -165 hlineto
          9 -454 -9 -191 rlineto
          163 hlineto
          -7 207 rlineto
          359 438 rmoveto
          -263 hlineto
          -7 -108 10 -11 97 3 6 -332 rlineto
          -71 vlineto
          -64 -28 -34 -76 -38 vhcurveto
          -14 vlineto
          46 -85 rlineto
          157 54 51 61 116 vvcurveto
          -2 91 rlineto
          endchar
        </CharString>
        <CharString name="Ibreve">
          -239 21 -21 645 -20 93 110 hstem
          74.5 156 vstem
          281 881 rmoveto
          -23 hlineto
          -34 -19 -36 -19 -47 hhcurveto
          -50 -38 19 34 -20 hvcurveto
          -22 hlineto
          -34 -49 rlineto
          -73 25 56 -41 78 hhcurveto
          79 58 41 73 27 hvcurveto
          -89 -625 rmoveto
          9 438 rlineto
          -165 hlineto
          9 -454 -9 -191 rlineto
          163 hlineto
          endchar
        </CharString>
        <CharString name="Icaron">
          -239 21 -21 645 -20 hstem
          74.5 156 vstem
          282 888 rmoveto
          -15 hlineto
          -38 -21 -38 -20 -37 -21 -114 62 rcurveline
          -15 hlineto
          -28 -63 52 -35 47 -37 43 -38 rlinecurve
          30 hlineto
          42 38 47 37 52 35 rrcurveto
          -84 -618 rmoveto
          9 438 rlineto
          -165 hlineto
          9 -454 -9 -191 rlineto
          163 hlineto
          endchar
        </CharString>
        <CharString name="Icircumflex">
          -239 21 -21 645 -20 hstem
          74.5 156 vstem
          25 725 rmoveto
          15 hlineto
          38 21 38 20 37 21 114 -62 rcurveline
          15 hlineto
          28 63 -52 35 -47 37 -43 38 rlinecurve
          -30 hlineto
          -42 -38 -47 -37 -52 -35 rrcurveto
          229 -581 rmoveto
          9 438 rlineto
          -165 hlineto
          9 -454 -9 -191 rlineto
          163 hlineto
          endchar
        </CharString>
        <CharString name="Idieresis">
          -239 21 -21 645 -20 101 149 hstemhm
          -2 146 -69.5 156 -67.5 146 hintmask 00000000
          hintmask 11110000
          74 875 rmoveto
          -47 -29 -30 -48 -45 25 -26 46 46 29 30 48 44 -26 27 -44 hvcurveto
          hintmask 11100100
          165 hmoveto
          -47 -29 -30 -48 -45 25 -26 46 46 29 30 48 44 -26 27 -44 hvcurveto
          hintmask 11101000
          -13 -668 rmoveto
          9 438 rlineto
          -165 hlineto
          9 -454 -9 -191 rlineto
          163 hlineto
          endchar
        </CharString>
        <CharString name="Idotaccent">
          -239 21 -21 645 -20 94 166 hstemhm
          72 162 -159.5 156 hintmask 00000000
          hintmask 11110000
          156 885 rmoveto
          -52 -32 -34 -52 -51 27 -29 51 51 33 34 53 49 -29 30 -49 hvcurveto
          hintmask 11101000
          70 -678 rmoveto
          9 438 rlineto
          -165 hlineto
          9 -454 -9 -191 rlineto
          163 hlineto
          endchar
        </CharString>
        <CharString name="Idotbelow">
          -239 -210 166 65 -21 645 -20 hstemhm
          66 162 -153.5 156 hintmask 11101000
          226 207 rmoveto
          9 438 rlineto
          -165 hlineto
          9 -454 -9 -191 rlineto
          163 hlineto
          hintmask 11110000
          -83 -44 rmoveto
          -52 -32 -34 -52 -51 27 -29 51 51 33 34 53 49 -29 30 -49 hvcurveto
          endchar
        </CharString>
        <CharString name="Igrave">
          -239 21 -21 645 -20 hstem
          74.5 156 vstem
          60 897 rmoveto
          -40 -95 5 -13 80 -29 71 -23 73 -23 rlinecurve
          15 4 25 66 -77 38 -68 37 -70 41 rlinecurve
          152 -693 rmoveto
          9 438 rlineto
          -165 hlineto
          9 -454 -9 -191 rlineto
          163 hlineto
          endchar
        </CharString>
        <CharString name="Ihookabove">
          -239 21 -21 645 -20 236 70 hstemhm
          74.5 156 -82.5 82 hintmask 00000000
          hintmask 11101000
          142 931 rmoveto
          -41 -42 -21 -34 -31 hvcurveto
          25 -40 rlineto
          16 20 26 9 20 hhcurveto
          16 13 -7 -16 -20 -20 -29 -33 -24 hvcurveto
          47 -72 55 33 -25 40 rlineto
          43 38 15 21 28 vvcurveto
          46 -39 32 -49 vhcurveto
          hintmask 11110000
          84 -724 rmoveto
          9 438 rlineto
          -165 hlineto
          9 -454 -9 -191 rlineto
          163 hlineto
          endchar
        </CharString>
        <CharString name="Imacron">
          -239 21 -21 645 -20 126 99 hstem
          74.5 156 vstem
          276 839 rmoveto
          -10 11 rlineto
          -229 hlineto
          -8 -88 10 -11 rlineto
          230 hlineto
          -43 -544 rmoveto
          9 438 rlineto
          -165 hlineto
          9 -454 -9 -191 rlineto
          163 hlineto
          endchar
        </CharString>
        <CharString name="Iogonek">
          -239 -197 84 -63 -21 218 -21 645 -20 hstemhm
          32 83 -40.5 156 hintmask 01110100
          233 hmoveto
          -7 207 9 438 rlineto
          -165 hlineto
          9 -454 -9 -191 rlineto
          1 hlineto
          hintmask 01111000
          -30 -45 -9 -29 -31 vvcurveto
          -53 36 -39 59 33 33 13 29 35 vhcurveto
          hintmask 10111000
          -11 66 rlineto
          -9 hlineto
          -16 -18 -24 -8 -17 hhcurveto
          -23 -11 13 20 18 8 23 26 39 hvcurveto
          endchar
        </CharString>
        <CharString name="Itilde">
          -239 21 -21 645 -20 hstem
          74.5 156 vstem
          314 846 rmoveto
          -46 46 rlineto
          -13 hlineto
          -27 -19 -16 -26 -22 hhcurveto
          -21 -62 27 6 -43 hvcurveto
          -13 -5 -67 -97 rlineto
          -14 vlineto
          46 -45 rlineto
          14 hlineto
          27 19 16 25 22 hhcurveto
          21 62 -27 -6 43 hvcurveto
          13 5 66 98 rlineto
          -88 -626 rmoveto
          9 438 rlineto
          -165 hlineto
          9 -454 -9 -191 rlineto
          163 hlineto
          endchar
        </CharString>
        <CharString name="J">
          -201 527.5 117.5 hstem
          120 152.5 vstem
          268 213 rmoveto
          9 432 rlineto
          -263 hlineto
          -7 -108 10 -11 97 3 6 -332 rlineto
          -71 vlineto
          -64 -28 -34 -76 -38 vhcurveto
          -14 vlineto
          46 -85 rlineto
          157 54 51 61 116 vvcurveto
          endchar
        </CharString>
        <CharString name="Jcircumflex">
          -201 527.5 117.5 hstem
          120 152.5 vstem
          139 898 rmoveto
          -42 -38 -47 -37 -52 -35 28 -63 rcurveline
          15 hlineto
          38 21 38 20 37 21 114 -62 rcurveline
          15 hlineto
          28 63 -52 35 -47 37 -43 38 rlinecurve
          108 -253 rmoveto
          -263 hlineto
          -7 -108 10 -11 97 3 6 -332 rlineto
          -71 vlineto
          -64 -28 -34 -76 -38 vhcurveto
          -14 vlineto
          46 -85 rlineto
          156 54 52 61 116 vvcurveto
          -2 91 rlineto
          endchar
        </CharString>
        <CharString name="K">
          55 10 -21 32 -21 645 -20 hstemhm
          74.5 157.5 hintmask 01110000
          596 645 rmoveto
          -174 hlineto
          -36 -65 -157 -224 6 289 rlineto
          -165 hlineto
          9 -454 -9 -191 rlineto
          163 hlineto
          -7 207 2 112 rlineto
          hintmask 10110000
          66 -110 69 -105 71 -105 18 -10 rcurveline
          54 5 53 9 54 13 2 18 rcurveline
          -81 98 -79 104 -71 105 rrcurveto
          endchar
        </CharString>
        <CharString name="Kcommaaccent">
          55 -67 -21 98 -21 32 -21 645 -20 hstemhm
          74.5 157.5 42 114 hintmask 10111000
          596 645 rmoveto
          -174 hlineto
          -36 -65 -157 -224 6 289 rlineto
          -165 hlineto
          9 -454 -9 -191 rlineto
          163 hlineto
          -7 207 2 112 rlineto
          hintmask 11011100
          66 -110 69 -105 71 -105 18 -10 rcurveline
          54 5 53 9 54 13 2 18 rcurveline
          -81 98 -79 104 -71 105 rrcurveto
          -37 -375 rmoveto
          -36 -9 -34 -15 -31 -18 -1 -12 rcurveline
          20 -17 9 -18 -23 vvcurveto
          -33 -16 -29 -33 -28 vhcurveto
          1 -10 44 -39 rlineto
          80 56 38 54 59 vvcurveto
          33 -13 26 -28 23 vhcurveto
          endchar
        </CharString>
        <CharString name="L">
          -106 0 133 -12 12 512 -20 hstemhm
          70.5 156 hintmask 00000000
          hintmask 01110000
          440 121 rmoveto
          hintmask 10110000
          -10 12 rlineto
          -205 hlineto
          -3 74 9 438 rlineto
          -165 hlineto
          9 -454 -9 -191 rlineto
          363 hlineto
          endchar
        </CharString>
        <CharString name="L.ss01">
          -134 0 55 60 11 327 55 hstem
          68 141 vstem
          213 453 rmoveto
          300 55 -613 -55 165 hlineto
          6 -302 -5 -96 rlineto
          -166 -55 613 55 -140 hlineto
          5 60 -8 11 rlineto
          -163 hlineto
          -2 40 rlineto
          endchar
        </CharString>
        <CharString name="Lacute">
          -106 0 133 -12 12 512 -20 hstemhm
          70.5 156 hintmask 10110000
          127 718 rmoveto
          15 -4 73 23 71 23 80 29 rlinecurve
          5 13 -40 95 -14 3 -70 -41 -68 -37 -77 -38 rlinecurve
          hintmask 01110000
          338 -663 rmoveto
          hintmask 10110000
          -9 12 rlineto
          -206 hlineto
          -3 74 9 438 rlineto
          -165 hlineto
          9 -454 -9 -191 rlineto
          364 hlineto
          endchar
        </CharString>
        <CharString name="Lcaron">
          -58 0 133 -12 12 452 -20 30 -20 70 -20 hstemhm
          70.5 156 hintmask 10011100
          431 133 rmoveto
          -206 hlineto
          -3 74 9 438 rlineto
          -165 hlineto
          9 -454 -9 -191 rlineto
          364 hlineto
          hintmask 01101100
          10 121 rlineto
          -96 249 rmoveto
          11 -8 68 10 37 213 -9 10 rlineto
          hintmask 10011100
          -113 -7 rlineto
          endchar
        </CharString>
        <CharString name="Lcommaaccent">
          -106 -67 -21 88 133 -12 12 512 -20 hstemhm
          70.5 156 -24.5 114 hintmask 00000000
          hintmask 10111000
          440 121 rmoveto
          hintmask 11011000
          -9 12 rlineto
          -206 hlineto
          -3 74 9 438 rlineto
          -165 hlineto
          9 -454 -9 -191 rlineto
          364 hlineto
          hintmask 11010100
          -155 -34 rmoveto
          -36 -9 -34 -15 -31 -18 -1 -12 rcurveline
          20 -17 9 -18 -23 vvcurveto
          -33 -16 -29 -33 -28 vhcurveto
          1 -10 44 -39 rlineto
          80 56 38 54 59 vvcurveto
          33 -13 26 -28 23 vhcurveto
          endchar
        </CharString>
        <CharString name="Ldot">
          -72 0 133 -12 12 178 166 168 -20 hstemhm
          70.5 156 70.5 162 hintmask 10111000
          431 133 rmoveto
          -206 hlineto
          -3 74 9 438 rlineto
          -165 hlineto
          9 -454 -9 -191 rlineto
          364 hlineto
          hintmask 01111100
          10 121 rlineto
          -65 190 rmoveto
          51 33 34 53 49 -29 30 -49 -52 -32 -34 -52 -51 27 -29 51 hvcurveto
          endchar
        </CharString>
        <CharString name="Lslash">
          -89 0 133 -12 12 341 -20 191 -20 hstemhm
          87 160 -158.5 153 hintmask 00000000
          hintmask 01111000
          458 121 rmoveto
          hintmask 10110100
          -10 12 rlineto
          -205 hlineto
          -3 74 2 98 134 69 rlineto
          hintmask 10111000
          -29 93 -15 7 -87 -44 4 215 rlineto
          -165 hlineto
          6 -294 rlineto
          hintmask 10110100
          -96 -49 29 -94 14 -8 55 28 1 -37 -9 -191 rlineto
          363 hlineto
          endchar
        </CharString>
        <CharString name="M">
          254 21 -21 65 210 133 237 0 -20 hstemhm
          37 722 hintmask 11011000
          759 hmoveto
          -55 645 rlineto
          -184 hlineto
          -26 -97 -90 -273 rlineto
          -10 hlineto
          -83 276 -23 94 rlineto
          -187 hlineto
          -64 -645 rlineto
          135 hlineto
          13 211 rlineto
          hintmask 11101000
          20 197 rlineto
          11 hlineto
          112 -343 rlineto
          124 hlineto
          128 343 rlineto
          10 hlineto
          18 -212 8 -196 rlineto
          endchar
        </CharString>
        <CharString name="M.ss01">
          141 0 55 398 55 hstem
          -100 888 vstem
          589 453 rmoveto
          199 55 -888 -55 198 hlineto
          -41 -398 rlineto
          -157 -55 888 55 -164 hlineto
          -211 398 rmoveto
          -9 -27 -58 -153 rlineto
          -9 hlineto
          -53 156 -6 24 rlineto
          223 -398 rmoveto
          -326 hlineto
          5 130 12 113 rlineto
          8 hlineto
          79 -208 rlineto
          109 hlineto
          92 208 rlineto
          8 hlineto
          10 -124 rlineto
          endchar
        </CharString>
        <CharString name="N">
          154 21 -21 645 -20 23 -20 hstemhm
          75 137.5 271 143 hintmask 10111000
          622 204 rmoveto
          9 444 -150 -9 5 -393 rlineto
          -10 hlineto
          hintmask 11011000
          -229 399 rlineto
          -176 hlineto
          8 -455 -9 -190 rlineto
          149 hlineto
          -7 227 1 172 rlineto
          10 hlineto
          229 -399 rlineto
          176 hlineto
          endchar
        </CharString>
        <CharString name="Nacute">
          154 21 -21 645 -20 23 -20 hstemhm
          75 137.5 271 142.5 hintmask 10111000
          464 897 rmoveto
          -14 3 -70 -41 -68 -37 -77 -38 rlinecurve
          25 -66 15 -4 73 23 71 23 80 29 rlinecurve
          5 13 rlineto
          117 -598 rmoveto
          10 444 -150 -9 5 -393 rlineto
          -11 hlineto
          hintmask 11011000
          -229 399 rlineto
          -175 hlineto
          8 -455 -9 -190 rlineto
          148 hlineto
          -6 227 1 172 rlineto
          10 hlineto
          229 -399 rlineto
          176 hlineto
          endchar
        </CharString>
        <CharString name="Ncaron">
          154 21 -21 645 -20 23 -20 hstemhm
          75 137.5 271 142.5 hintmask 10111000
          479 888 rmoveto
          -15 hlineto
          -38 -21 -38 -20 -37 -21 -114 62 rcurveline
          -15 hlineto
          -28 -63 52 -35 47 -37 43 -38 rlinecurve
          30 hlineto
          42 38 47 37 52 35 rrcurveto
          114 -621 rmoveto
          10 444 -150 -9 5 -393 rlineto
          -11 hlineto
          hintmask 11011000
          -229 399 rlineto
          -175 hlineto
          8 -455 -9 -190 rlineto
          148 hlineto
          -6 227 1 172 rlineto
          10 hlineto
          229 -399 rlineto
          176 hlineto
          endchar
        </CharString>
        <CharString name="Ncommaaccent">
          154 -67 -21 109 -21 645 -20 23 -20 hstemhm
          75 137.5 105.5 114 51.5 142.5 hintmask 11011010
          621 204 rmoveto
          10 444 -150 -9 5 -393 rlineto
          -11 hlineto
          hintmask 11101110
          -229 399 rlineto
          -175 hlineto
          8 -455 -9 -190 rlineto
          148 hlineto
          -6 227 1 172 rlineto
          10 hlineto
          229 -399 rlineto
          176 hlineto
          -237 -34 rmoveto
          -36 -9 -34 -15 -31 -18 -1 -12 rcurveline
          20 -17 9 -18 -23 vvcurveto
          -33 -16 -29 -33 -28 vhcurveto
          1 -10 44 -39 rlineto
          80 56 38 54 59 vvcurveto
          33 -13 26 -28 23 vhcurveto
          endchar
        </CharString>
        <CharString name="Ntilde">
          154 21 -21 645 -20 23 -20 hstemhm
          75 137.5 271 142.5 hintmask 10111000
          533 849 rmoveto
          -46 46 rlineto
          -14 hlineto
          -28 -24 -18 -27 -23 hhcurveto
          -26 -79 29 6 -49 hvcurveto
          -14 -5 -74 -99 rlineto
          -13 vlineto
          46 -46 rlineto
          14 hlineto
          28 24 18 26 23 hhcurveto
          26 79 -28 -7 49 hvcurveto
          14 6 74 99 rlineto
          88 -632 rmoveto
          10 444 -150 -9 5 -393 rlineto
          -11 hlineto
          hintmask 11011000
          -229 399 rlineto
          -175 hlineto
          8 -455 -9 -190 rlineto
          148 hlineto
          -6 227 1 172 rlineto
          10 hlineto
          229 -399 rlineto
          176 hlineto
          endchar
        </CharString>
        <CharString name="O">
          100 -11 123 413 130 hstem
          24 169 261 170 vstem
          336 655 rmoveto
          -199 -113 -123 -219 -206 104 -118 183 199 114 127 222 202 -104 115 -184 hvcurveto
          -14 -130 rmoveto
          97 35 -55 -166 -143 -36 -49 -93 -96 -36 55 168 141 35 49 94 hvcurveto
          endchar
        </CharString>
        <CharString name="OE">
          330 -12 122 -110 126.5 -126.5 129 134 126 130 126 -118 130 -24 12 hstemhm
          24 169 235 153 hintmask 0000000000000000
          hintmask 1001010110000000
          350 657 rmoveto
          -205 -121 -125 -218 -207 110 -119 194 hvcurveto
          hintmask 0011100110000000
          76 75 14 -2 63 hvcurveto
          308 hlineto
          11 120 -10 12 rlineto
          hintmask 0101100110000000
          -163 -6 rlineto
          hintmask 0011100110000000
          -105 1 -2 78 rlineto
          58 97 vlineto
          117 -3 10 120 -9 12 -107 -3 rlineto
          -104 hlineto
          2 130 rlineto
          113 hlineto
          154 -6 rlineto
          hintmask 0011001110000000
          11 120 rlineto
          hintmask 0011100110000000
          -9 12 rlineto
          -314 hlineto
          hintmask 1001010110000000
          -58 -60 12 -74 hhcurveto
          -13 -130 rmoveto
          40 28 -6 -9 11 hvcurveto
          8 -7 4 -13 -26 vvcurveto
          5 -294 1 -26 -5 -14 -12 -8 rlinecurve
          -9 -12 -28 -5 -36 hhcurveto
          -107 -41 64 153 144 39 56 105 hvcurveto
          endchar
        </CharString>
        <CharString name="Oacute">
          100 -11 123 413 130 hstem
          24 169 261 170 vstem
          439 897 rmoveto
          -14 3 -70 -41 -68 -37 -77 -38 rlinecurve
          25 -66 15 -4 73 23 71 23 80 29 rlinecurve
          5 13 rlineto
          -142 -147 rmoveto
          -200 -113 -123 -219 -206 104 -118 184 199 113 127 222 202 -104 115 -183 hvcurveto
          -15 -130 rmoveto
          97 35 -55 -166 -143 -36 -49 -93 -96 -36 55 168 141 35 49 94 hvcurveto
          endchar
        </CharString>
        <CharString name="Obreve">
          100 -11 123 413 130 63 110 hstem
          24 169 261 170 vstem
          452 881 rmoveto
          -23 hlineto
          -34 -19 -36 -19 -47 hhcurveto
          -50 -38 19 34 -20 hvcurveto
          -22 hlineto
          -34 -49 rlineto
          -73 25 56 -41 78 hhcurveto
          79 58 41 73 27 hvcurveto
          -149 -177 rmoveto
          -200 -113 -123 -219 -206 104 -118 184 199 113 127 222 202 -104 115 -183 hvcurveto
          -15 -130 rmoveto
          97 35 -55 -166 -143 -36 -49 -93 -96 -36 55 168 141 35 49 94 hvcurveto
          endchar
        </CharString>
        <CharString name="Ocaron">
          100 -11 123 413 130 hstem
          24 169 261 170 vstem
          453 888 rmoveto
          -15 hlineto
          -38 -21 -38 -20 -37 -21 -114 62 rcurveline
          -15 hlineto
          -28 -63 52 -35 47 -37 43 -38 rlinecurve
          30 hlineto
          42 38 47 37 52 35 rrcurveto
          -144 -170 rmoveto
          -200 -113 -123 -219 -206 104 -118 184 199 113 127 222 202 -104 115 -183 hvcurveto
          -15 -130 rmoveto
          97 35 -55 -166 -143 -36 -49 -93 -96 -36 55 168 141 35 49 94 hvcurveto
          endchar
        </CharString>
        <CharString name="Ocircumflex">
          100 -11 123 413 130 hstem
          24 169 261 170 vstem
          196 725 rmoveto
          15 hlineto
          38 21 38 20 37 21 114 -62 rcurveline
          15 hlineto
          28 63 -52 35 -47 37 -43 38 rlinecurve
          -30 hlineto
          -42 -38 -47 -37 -52 -35 rrcurveto
          169 -133 rmoveto
          -200 -113 -123 -219 -206 104 -118 184 199 113 127 222 202 -104 115 -183 hvcurveto
          -15 -130 rmoveto
          97 35 -55 -166 -143 -36 -49 -93 -96 -36 55 168 141 35 49 94 hvcurveto
          endchar
        </CharString>
        <CharString name="Ocircumflexacute">
          100 -11 123 413 130 hstem
          24 169 261 170 vstem
          541 984 rmoveto
          -80 34 -10 -5 -70 -134 52 -40 rlineto
          10 hlineto
          101 134 rlineto
          -349 -268 rmoveto
          15 hlineto
          38 21 38 20 37 21 114 -62 rcurveline
          15 hlineto
          28 63 -52 35 -47 37 -43 38 rlinecurve
          -30 hlineto
          -42 -38 -47 -37 -52 -35 rrcurveto
          170 -113 rmoveto
          -200 -113 -123 -219 -206 104 -118 184 199 113 127 222 202 -104 115 -183 hvcurveto
          -15 -130 rmoveto
          97 35 -55 -166 -143 -36 -49 -93 -96 -36 55 168 141 35 49 94 hvcurveto
          endchar
        </CharString>
        <CharString name="Ocircumflexdotbelow">
          100 -210 166 33 123 413 130 hstem
          24 169 53 162 46 170 vstem
          199 723 rmoveto
          15 hlineto
          38 21 38 20 37 21 114 -62 rcurveline
          15 hlineto
          28 63 -52 35 -47 37 -43 38 rlinecurve
          -30 hlineto
          -42 -38 -47 -37 -52 -35 rrcurveto
          166 -131 rmoveto
          -200 -113 -123 -219 -206 104 -118 184 199 113 127 222 202 -104 115 -183 hvcurveto
          -15 -130 rmoveto
          97 35 -55 -166 -143 -36 -49 -93 -96 -36 55 168 141 35 49 94 hvcurveto
          8 -569 rmoveto
          -52 -32 -34 -52 -51 27 -29 51 51 33 34 53 49 -29 30 -49 hvcurveto
          endchar
        </CharString>
        <CharString name="Ocircumflexgrave">
          100 -11 123 413 130 hstem
          24 169 261 170 vstem
          428 1013 rmoveto
          -11 5 -79 -34 -4 -11 101 -134 rlineto
          10 hlineto
          53 40 rlineto
          -303 -174 rmoveto
          15 hlineto
          38 21 38 20 37 21 114 -62 rcurveline
          15 hlineto
          28 63 -52 35 -47 37 -43 38 rlinecurve
          -30 hlineto
          -42 -38 -47 -37 -52 -35 rrcurveto
          170 -113 rmoveto
          -200 -113 -123 -219 -206 104 -118 184 199 113 127 222 202 -104 115 -183 hvcurveto
          -15 -130 rmoveto
          97 35 -55 -166 -143 -36 -49 -93 -96 -36 55 168 141 35 49 94 hvcurveto
          endchar
        </CharString>
        <CharString name="Ocircumflexhookabove">
          100 -11 123 413 130 342 67 hstemhm
          24 169 243 78 -60 170 hintmask 00000000
          hintmask 11111000
          430 1064 rmoveto
          -39 -40 -21 -32 -30 hvcurveto
          24 -38 rlineto
          15 19 25 9 19 hhcurveto
          16 12 -6 -16 -18 -19 -28 -32 -23 hvcurveto
          45 -68 52 31 -23 38 rlineto
          41 36 14 20 27 vvcurveto
          44 -37 30 -47 vhcurveto
          -235 -359 rmoveto
          15 hlineto
          38 21 38 20 37 21 114 -62 rcurveline
          15 hlineto
          28 63 -52 35 -47 37 -43 38 rlinecurve
          -30 hlineto
          -42 -38 -47 -37 -52 -35 rrcurveto
          hintmask 11010100
          170 -113 rmoveto
          -200 -113 -123 -219 -206 104 -118 184 199 113 127 222 202 -104 115 -183 hvcurveto
          -15 -130 rmoveto
          97 35 -55 -166 -143 -36 -49 -93 -96 -36 55 168 141 35 49 94 hvcurveto
          endchar
        </CharString>
        <CharString name="Ocircumflextilde">
          100 -11 123 413 130 hstem
          24 169 261 170 vstem
          497 1005 rmoveto
          -43 42 rlineto
          -13 hlineto
          -26 -22 -17 -24 -21 hhcurveto
          -23 -73 26 6 -45 hvcurveto
          -13 -5 -68 -92 rlineto
          -12 vlineto
          43 -42 rlineto
          12 hlineto
          25 22 17 25 21 hhcurveto
          24 72 -27 -5 45 hvcurveto
          13 5 69 91 rlineto
          -302 -287 rmoveto
          15 hlineto
          38 21 38 20 37 21 114 -62 rcurveline
          15 hlineto
          28 63 -52 35 -47 37 -43 38 rlinecurve
          -30 hlineto
          -42 -38 -47 -37 -52 -35 rrcurveto
          170 -113 rmoveto
          -200 -113 -123 -219 -206 104 -118 184 199 113 127 222 202 -104 115 -183 hvcurveto
          -15 -130 rmoveto
          97 35 -55 -166 -143 -36 -49 -93 -96 -36 55 168 141 35 49 94 hvcurveto
          endchar
        </CharString>
        <CharString name="Odieresis">
          100 -11 123 413 130 71 149 hstemhm
          24 169 -32 146 36 146 -35 170 hintmask 00000000
          hintmask 11101100
          237 875 rmoveto
          -47 -29 -30 -48 -45 25 -26 46 46 29 30 48 44 -26 27 -44 hvcurveto
          182 hmoveto
          -47 -29 -30 -48 -45 25 -26 46 46 29 30 48 44 -26 27 -44 hvcurveto
          hintmask 11110010
          -82 -220 rmoveto
          -200 -113 -123 -219 -206 104 -118 184 199 113 127 222 202 -104 115 -183 hvcurveto
          -15 -130 rmoveto
          97 35 -55 -166 -143 -36 -49 -93 -96 -36 55 168 141 35 49 94 hvcurveto
          endchar
        </CharString>
        <CharString name="Odotbelow">
          100 -210 166 33 123 413 130 hstem
          24 169 53 162 46 170 vstem
          337 655 rmoveto
          -200 -113 -123 -219 -206 104 -118 184 199 113 127 222 202 -104 115 -183 hvcurveto
          -15 -130 rmoveto
          97 35 -55 -166 -143 -36 -49 -93 -96 -36 55 168 141 35 49 94 hvcurveto
          8 -569 rmoveto
          -52 -32 -34 -52 -51 27 -29 51 51 33 34 53 49 -29 30 -49 hvcurveto
          endchar
        </CharString>
        <CharString name="Ograve">
          100 -11 123 413 130 hstem
          24 169 261 170 vstem
          232 897 rmoveto
          -40 -95 5 -13 80 -29 71 -23 73 -23 rlinecurve
          15 4 25 66 -77 38 -68 37 -70 41 rlinecurve
          91 -245 rmoveto
          -200 -113 -123 -219 -206 104 -118 184 199 113 127 222 202 -104 115 -183 hvcurveto
          -15 -130 rmoveto
          97 35 -55 -166 -143 -36 -49 -93 -96 -36 55 168 141 35 49 94 hvcurveto
          endchar
        </CharString>
        <CharString name="Ohm">
          211 0 121 -107 -21 25 -21 528 130 hstemhm
          78 169 94 7 162 170 hintmask 10011110
          386 655 rmoveto
          -200 -108 -120 -164 -84 29 -81 73 -81 hvcurveto
          -2 -4 -46 -1 -95 8 rlineto
          hintmask 00111110
          -18 -123 9 -10 rlineto
          hintmask 10011110
          103 5 rlineto
          173 hlineto
          hintmask 00111110
          37 -3 7 6 rlineto
          95 vlineto
          -67 72 -34 83 104 vvcurveto
          110 37 58 92 95 39 -61 -114 -101 -31 -81 -70 -70 vhcurveto
          -95 vlineto
          7 -6 rlineto
          hintmask 10011110
          37 3 rlineto
          146 hlineto
          hintmask 01011110
          123 -7 rlineto
          hintmask 10011110
          18 127 -9 10 -85 -9 rlineto
          -67 hlineto
          -2 4 rlineto
          71 81 32 87 89 vvcurveto
          160 -100 113 -194 vhcurveto
          endchar
        </CharString>
        <CharString name="Ohookabove">
          100 -11 123 413 130 206 70 hstem
          24 169 127 82 52 170 vstem
          314 931 rmoveto
          -41 -42 -21 -34 -31 hvcurveto
          25 -40 rlineto
          16 20 26 9 20 hhcurveto
          16 13 -7 -16 -20 -20 -29 -33 -24 hvcurveto
          47 -72 55 33 -25 40 rlineto
          43 38 15 21 28 vvcurveto
          46 -39 32 -49 vhcurveto
          23 -276 rmoveto
          -200 -113 -123 -219 -206 104 -118 184 199 113 127 222 202 -104 115 -183 hvcurveto
          -15 -130 rmoveto
          97 35 -55 -166 -143 -36 -49 -93 -96 -36 55 168 141 35 49 94 hvcurveto
          endchar
        </CharString>
        <CharString name="Ohorn">
          107 -11 123 413 130 hstemhm
          24 169 261 170 -72 123 hintmask 00000000
          hintmask 11101000
          601 781 rmoveto
          -27 -28 -15 -15 -21 hvcurveto
          -3 -12 rlineto
          19 -17 11 -24 -23 vvcurveto
          -31 -21 -19 -33 vhcurveto
          -42 -47 30 -87 hhcurveto
          -180 -118 -123 -220 -204 103 -119 187 hvcurveto
          hintmask 11110000
          196 114 130 215 93 -22 73 -44 55 hvcurveto
          hintmask 11101000
          66 12 51 47 70 vvcurveto
          56 -33 41 -41 vhcurveto
          -281 -256 rmoveto
          hintmask 11110000
          98 36 -55 -159 -150 -35 -49 -92 -98 -36 56 159 hvcurveto
          hintmask 11101000
          148 34 50 93 vhcurveto
          endchar
        </CharString>
        <CharString name="Ohornacute">
          107 -11 123 413 130 hstemhm
          24 169 261 170 -72 124 hintmask 11110000
          439 897 rmoveto
          -14 3 -70 -41 -68 -37 -77 -38 rlinecurve
          25 -66 15 -4 73 23 71 23 80 29 rlinecurve
          5 13 rlineto
          hintmask 11101000
          122 -21 rmoveto
          -26 -29 -15 -15 -21 hvcurveto
          -3 -12 rlineto
          19 -17 11 -24 -23 vvcurveto
          -31 -20 -19 -34 vhcurveto
          -42 -46 30 -88 hhcurveto
          -179 -119 -123 -220 -204 103 -119 187 hvcurveto
          hintmask 11110000
          197 113 130 215 93 -22 73 -43 55 hvcurveto
          hintmask 11101000
          66 12 51 47 70 vvcurveto
          56 -34 41 -41 vhcurveto
          -281 -256 rmoveto
          hintmask 11110000
          98 36 -55 -159 -150 -35 -49 -92 -98 -36 56 159 hvcurveto
          hintmask 11101000
          148 34 50 93 vhcurveto
          endchar
        </CharString>
        <CharString name="Ohorndotbelow">
          107 -210 166 33 123 413 130 hstemhm
          24 169 53 162 46 170 -72 124 hintmask 00000000
          hintmask 11111010
          601 781 rmoveto
          -26 -29 -15 -15 -21 hvcurveto
          -3 -12 rlineto
          19 -17 11 -24 -23 vvcurveto
          -31 -20 -19 -34 vhcurveto
          -42 -46 30 -88 hhcurveto
          -179 -119 -123 -220 -204 103 -119 187 hvcurveto
          hintmask 11111100
          197 113 130 215 93 -22 73 -43 55 hvcurveto
          hintmask 11111010
          66 12 51 47 70 vvcurveto
          56 -34 41 -41 vhcurveto
          -281 -256 rmoveto
          hintmask 11111100
          98 36 -55 -159 -150 -35 -49 -92 -98 -36 56 159 hvcurveto
          hintmask 11111010
          148 34 50 93 vhcurveto
          hintmask 11111100
          10 -569 rmoveto
          -52 -32 -34 -52 -51 27 -29 51 51 33 34 53 49 -29 30 -49 hvcurveto
          endchar
        </CharString>
        <CharString name="Ohorngrave">
          107 -11 123 413 130 hstemhm
          24 169 261 170 -72 124 hintmask 11110000
          232 897 rmoveto
          -40 -95 5 -13 80 -29 71 -23 73 -23 rlinecurve
          15 4 25 66 -77 38 -68 37 -70 41 rlinecurve
          hintmask 11101000
          355 -119 rmoveto
          -26 -29 -15 -15 -21 hvcurveto
          -3 -12 rlineto
          19 -17 11 -24 -23 vvcurveto
          -31 -20 -19 -34 vhcurveto
          -42 -46 30 -88 hhcurveto
          -179 -119 -123 -220 -204 103 -119 187 hvcurveto
          hintmask 11110000
          197 113 130 215 93 -22 73 -43 55 hvcurveto
          hintmask 11101000
          66 12 51 47 70 vvcurveto
          56 -34 41 -41 vhcurveto
          -281 -256 rmoveto
          hintmask 11110000
          98 36 -55 -159 -150 -35 -49 -92 -98 -36 56 159 hvcurveto
          hintmask 11101000
          148 34 50 93 vhcurveto
          endchar
        </CharString>
        <CharString name="Ohornhookabove">
          107 -11 123 413 130 206 70 hstemhm
          24 169 127 82 52 170 -72 124 hintmask 11111100
          314 931 rmoveto
          -41 -42 -21 -34 -31 hvcurveto
          25 -40 rlineto
          16 20 26 9 20 hhcurveto
          16 13 -7 -16 -20 -20 -29 -33 -24 hvcurveto
          47 -72 55 33 -25 40 rlineto
          43 38 15 21 28 vvcurveto
          46 -39 32 -49 vhcurveto
          hintmask 11111010
          287 -150 rmoveto
          -26 -29 -15 -15 -21 hvcurveto
          -3 -12 rlineto
          19 -17 11 -24 -23 vvcurveto
          -31 -20 -19 -34 vhcurveto
          -42 -46 30 -88 hhcurveto
          -179 -119 -123 -220 -204 103 -119 187 hvcurveto
          hintmask 11111100
          197 113 130 215 93 -22 73 -43 55 hvcurveto
          hintmask 11111010
          66 12 51 47 70 vvcurveto
          56 -34 41 -41 vhcurveto
          -281 -256 rmoveto
          hintmask 11111100
          98 36 -55 -159 -150 -35 -49 -92 -98 -36 56 159 hvcurveto
          hintmask 11111010
          148 34 50 93 vhcurveto
          endchar
        </CharString>
        <CharString name="Ohorntilde">
          107 -11 123 413 130 hstemhm
          24 169 261 170 -72 124 hintmask 11110000
          507 849 rmoveto
          -46 46 rlineto
          -14 hlineto
          -28 -24 -18 -27 -23 hhcurveto
          -26 -79 29 6 -49 hvcurveto
          -14 -5 -74 -99 rlineto
          -13 vlineto
          46 -46 rlineto
          14 hlineto
          28 24 18 26 23 hhcurveto
          26 79 -28 -7 49 hvcurveto
          14 6 74 99 rlineto
          hintmask 11101000
          94 -55 rmoveto
          -26 -29 -15 -15 -21 hvcurveto
          -3 -12 rlineto
          19 -17 11 -24 -23 vvcurveto
          -31 -20 -19 -34 vhcurveto
          -42 -46 30 -88 hhcurveto
          -179 -119 -123 -220 -204 103 -119 187 hvcurveto
          hintmask 11110000
          197 113 130 215 93 -22 73 -43 55 hvcurveto
          hintmask 11101000
          66 12 51 47 70 vvcurveto
          56 -34 41 -41 vhcurveto
          -281 -256 rmoveto
          hintmask 11110000
          98 36 -55 -159 -150 -35 -49 -92 -98 -36 56 159 hvcurveto
          hintmask 11101000
          148 34 50 93 vhcurveto
          endchar
        </CharString>
        <CharString name="Ohungarumlaut">
          100 -11 123 413 130 60 132 hstem
          24 169 261 170 vstem
          220 713 rmoveto
          14 4 44 38 42 39 41 41 rlinecurve
          -2 12 -73 48 -12 -3 -32 -48 -35 -46 -35 -46 rlinecurve
          209 -39 rmoveto
          13 4 43 38 43 39 42 41 rlinecurve
          -2 12 -74 48 -11 -3 -34 -48 -34 -46 -35 -46 rlinecurve
          5 -97 rmoveto
          -200 -113 -123 -219 -206 104 -118 184 199 113 127 222 202 -104 115 -183 hvcurveto
          -15 -130 rmoveto
          97 35 -55 -166 -143 -36 -49 -93 -96 -36 55 168 141 35 49 94 hvcurveto
          endchar
        </CharString>
        <CharString name="Omacron">
          100 -11 123 413 130 96 99 hstem
          24 169 261 170 vstem
          473 839 rmoveto
          -10 11 rlineto
          -279 hlineto
          -7 -88 10 -11 rlineto
          278 hlineto
          -128 -96 rmoveto
          -200 -113 -123 -219 -206 104 -118 184 199 113 127 222 202 -104 115 -183 hvcurveto
          -15 -130 rmoveto
          97 35 -55 -166 -143 -36 -49 -93 -96 -36 55 168 141 35 49 94 hvcurveto
          endchar
        </CharString>
        <CharString name="Omega">
          211 0 121 -107 -21 25 -21 528 130 hstemhm
          77 170 94 7 162 170 hintmask 10011110
          385 655 rmoveto
          -199 -109 -120 -164 -84 30 -81 73 -81 hvcurveto
          -2 -4 -47 -1 -94 8 rlineto
          hintmask 00111110
          -18 -123 8 -10 rlineto
          hintmask 10011110
          103 5 rlineto
          174 hlineto
          hintmask 00111110
          37 -3 7 6 rlineto
          95 vlineto
          -68 72 -33 83 104 vvcurveto
          110 37 58 92 95 39 -61 -114 -101 -31 -81 -71 -70 vhcurveto
          -95 vlineto
          8 -6 rlineto
          hintmask 10011110
          37 3 rlineto
          145 hlineto
          hintmask 01011110
          123 -7 rlineto
          hintmask 10011110
          18 127 -8 10 -85 -9 rlineto
          -67 hlineto
          -3 4 rlineto
          71 81 33 87 89 vvcurveto
          160 -101 113 -194 vhcurveto
          endchar
        </CharString>
        <CharString name="Oogonek">
          100 -197 84 102 123 413 130 hstem
          24 169 121 83 57 170 vstem
          441 11 rmoveto
          118 45 65 114 168 vvcurveto
          202 -104 115 -183 -200 -113 -123 -219 -206 104 -118 184 14 14 1 1 13 vhcurveto
          -8 -11 rlineto
          -21 -29 -10 -29 -27 vvcurveto
          -52 37 -40 60 36 31 15 33 39 vhcurveto
          -11 62 rlineto
          -9 hlineto
          -16 -21 -23 -10 -19 hhcurveto
          -25 -12 15 21 14 6 15 10 16 hvcurveto
          -220 367 rmoveto
          141 35 49 94 97 35 -55 -166 -143 -36 -49 -93 -96 -36 55 168 vhcurveto
          endchar
        </CharString>
        <CharString name="Oslash">
          100 -11 123 -94 -21 528 130 -9 -20 hstemhm
          24 169 261 170 hintmask 10101100
          581 708 rmoveto
          -9 16 -98 37 rlineto
          hintmask 10011100
          -56 -115 rlineto
          hintmask 01101100
          6 -25 -27 3 -29 hhcurveto
          -200 -113 -123 -219 -121 36 -91 67 -54 hvcurveto
          -59 -123 7 -14 101 -37 60 124 rlineto
          hintmask 10101100
          -5 23 26 -3 27 hhcurveto
          199 113 127 222 116 -34 87 -64 54 hvcurveto
          -201 -483 rmoveto
          -96 -36 55 168 141 35 49 94 97 35 -55 -166 -143 -36 -49 -93 hvcurveto
          endchar
        </CharString>
        <CharString name="Oslashacute">
          100 -11 123 -94 -21 528 130 -9 -20 hstemhm
          24 169 261 170 hintmask 10101100
          234 720 rmoveto
          15 -4 73 23 71 23 80 29 rlinecurve
          5 13 -40 95 -14 3 -70 -41 -68 -37 -77 -38 rlinecurve
          372 -78 rmoveto
          -9 16 -98 37 rlineto
          hintmask 10011100
          -56 -115 rlineto
          hintmask 01101100
          6 -25 -27 3 -29 hhcurveto
          -200 -113 -123 -219 -121 36 -91 67 -54 hvcurveto
          -59 -123 7 -14 101 -37 60 124 rlineto
          hintmask 10101100
          -5 23 26 -3 27 hhcurveto
          199 113 127 222 116 -34 87 -64 54 hvcurveto
          -201 -483 rmoveto
          -96 -36 55 168 141 35 49 94 97 35 -55 -166 -143 -36 -49 -93 hvcurveto
          endchar
        </CharString>
        <CharString name="Otilde">
          100 -11 123 413 130 hstem
          24 169 261 170 vstem
          507 849 rmoveto
          -46 46 rlineto
          -14 hlineto
          -28 -24 -18 -27 -23 hhcurveto
          -26 -79 29 6 -49 hvcurveto
          -14 -5 -74 -99 rlineto
          -13 vlineto
          46 -46 rlineto
          14 hlineto
          28 24 18 26 23 hhcurveto
          26 79 -28 -7 49 hvcurveto
          14 6 74 99 rlineto
          -170 -181 rmoveto
          -200 -113 -123 -219 -206 104 -118 184 199 113 127 222 202 -104 115 -183 hvcurveto
          -15 -130 rmoveto
          97 35 -55 -166 -143 -36 -49 -93 -96 -36 55 168 141 35 49 94 hvcurveto
          endchar
        </CharString>
        <CharString name="P">
          23 21 -21 196 119 213.5 117.5 hstem
          74.5 157 157.5 170 vstem
          70 645 rmoveto
          9 -454 -9 -191 rlineto
          163 hlineto
          -6 196 rlineto
          58 hlineto
          166 108 99 151 128 -78 72 -139 hvcurveto
          -113 -329 rmoveto
          5 210 54 3 rlineto
          68 -3 33 -30 -67 vvcurveto
          -63 -25 -37 -50 -17 vhcurveto
          endchar
        </CharString>
        <CharString name="Q">
          107 -11 123 413 130 hstem
          24 169 261 170 vstem
          732 -81 rmoveto
          -92 25 -84 36 -81 47 rrcurveto
          96 52 53 107 151 vvcurveto
          204 -104 114 -184 -199 -113 -123 -219 -206 103 -118 185 vhcurveto
          18 hlineto
          96 -80 108 -66 115 -49 12 6 rcurveline
          33 29 23 33 21 41 rrcurveto
          -545 430 rmoveto
          143 35 49 93 97 36 -55 -165 -143 -36 -50 -92 -97 -36 55 166 vhcurveto
          endchar
        </CharString>
        <CharString name="R">
          60 10 -21 32 -21 207 120 203 116 hstemhm
          74.5 157.5 157 171 hintmask 01111100
          445 255 rmoveto
          72 46 43 70 80 vvcurveto
          126 -79 69 -139 vhcurveto
          -272 -1 9 -454 -9 -191 rlineto
          163 hlineto
          -6 207 rlineto
          85 hlineto
          hintmask 10111100
          33 -70 35 -68 36 -67 16 -13 rcurveline
          55 4 54 10 52 17 2 18 rcurveline
          hintmask 01111100
          -54 71 -49 73 -47 73 rrcurveto
          -215 74 rmoveto
          4 198 54 3 rlineto
          69 -3 32 -28 -63 vvcurveto
          -58 -23 -35 -49 -18 vhcurveto
          endchar
        </CharString>
        <CharString name="Racute">
          60 10 -21 32 -21 207 120 201.5 117.5 hstemhm
          74.5 156.5 159 170 hintmask 01111100
          233 698 rmoveto
          14 -1 67 36 65 36 74 43 rlinecurve
          3 14 -57 87 -14 1 -61 -55 -60 -49 -68 -52 rlinecurve
          249 -503 rmoveto
          72 46 43 70 80 vvcurveto
          126 -79 69 -138 vhcurveto
          -273 -1 9 -454 -9 -191 rlineto
          163 hlineto
          -7 207 rlineto
          85 hlineto
          hintmask 10111100
          33 -70 36 -68 35 -67 17 -13 rcurveline
          55 4 53 10 52 17 3 18 rcurveline
          hintmask 01111100
          -54 71 -50 73 -46 73 rrcurveto
          -216 74 rmoveto
          4 198 55 3 rlineto
          69 -3 33 -28 -63 vvcurveto
          -58 -24 -35 -49 -18 vhcurveto
          endchar
        </CharString>
        <CharString name="Rcaron">
          60 10 -21 32 -21 207 120 201.5 117.5 hstemhm
          74.5 156.5 159 170 hintmask 01111100
          320 702 rmoveto
          52 53 52 51 46 41 -39 59 rcurveline
          -16 hlineto
          -42 -31 -39 -29 -30 -26 -29 26 -39 29 -43 31 rrcurveto
          -15 hlineto
          -39 -59 52 -47 53 -51 45 -47 rlinecurve
          156 -447 rmoveto
          72 46 43 70 80 vvcurveto
          126 -79 69 -138 vhcurveto
          -273 -1 9 -454 -9 -191 rlineto
          163 hlineto
          -7 207 rlineto
          85 hlineto
          hintmask 10111100
          33 -70 36 -68 35 -67 17 -13 rcurveline
          55 4 53 10 52 17 3 18 rcurveline
          hintmask 01111100
          -54 71 -50 73 -46 73 rrcurveto
          -216 74 rmoveto
          4 198 55 3 rlineto
          69 -3 33 -28 -63 vvcurveto
          -58 -24 -35 -49 -18 vhcurveto
          endchar
        </CharString>
        <CharString name="Rcommaaccent">
          60 -67 -21 98 -21 32 -21 207 120 201.5 117.5 hstemhm
          74.5 156.5 42 114 3 170 hintmask 10111101
          445 255 rmoveto
          72 46 43 70 80 vvcurveto
          126 -79 69 -138 vhcurveto
          -273 -1 9 -454 -9 -191 rlineto
          163 hlineto
          -7 207 rlineto
          85 hlineto
          hintmask 11011101
          33 -70 36 -68 35 -67 17 -13 rcurveline
          55 4 53 10 52 17 3 18 rcurveline
          hintmask 10111101
          -54 71 -50 73 -46 73 rrcurveto
          -216 74 rmoveto
          4 198 55 3 rlineto
          69 -3 33 -28 -63 vvcurveto
          -58 -24 -35 -49 -18 vhcurveto
          hintmask 10111110
          29 -359 rmoveto
          -36 -9 -34 -15 -31 -18 -1 -12 rcurveline
          20 -17 9 -18 -23 vvcurveto
          -33 -16 -29 -33 -28 vhcurveto
          1 -10 44 -39 rlineto
          80 56 38 54 59 vvcurveto
          33 -13 26 -28 23 vhcurveto
          endchar
        </CharString>
        <CharString name="S">
          -37 -10 121 418 126 hstem
          44 159 117 161 vstem
          293 655 rmoveto
          -148 -101 -90 -118 hvcurveto
          -193 276 11 -97 vvcurveto
          -28 -23 -29 -54 -44 -73 24 50 -60 vhcurveto
          -17 -10 -23 -145 rlineto
          -27 67 69 -13 64 hhcurveto
          156 99 92 115 hvcurveto
          190 -278 -5 92 vvcurveto
          28 26 27 46 37 54 -20 -33 51 vhcurveto
          24 9 26 136 rlineto
          25 -65 -61 9 -48 hhcurveto
          endchar
        </CharString>
        <CharString name="Sacute">
          -37 -10 121 418 126 hstem
          44 159 117 161 vstem
          362 913 rmoveto
          -14 1 -61 -55 -60 -49 -68 -52 rlinecurve
          37 -60 14 -1 67 36 65 36 74 43 rlinecurve
          3 14 rlineto
          -126 -171 rmoveto
          -148 -101 -90 -118 hvcurveto
          -193 276 11 -97 vvcurveto
          -28 -23 -29 -53 -45 -73 24 50 -60 vhcurveto
          -17 -10 -23 -145 rlineto
          -27 67 70 -13 64 hhcurveto
          155 99 92 115 hvcurveto
          190 -278 -5 92 vvcurveto
          28 26 27 47 36 55 -20 -33 51 vhcurveto
          23 9 26 136 rlineto
          25 -64 -61 9 -49 hhcurveto
          endchar
        </CharString>
        <CharString name="Scaron">
          -37 -10 121 418 126 hstem
          44 159 117 161 vstem
          393 906 rmoveto
          -16 hlineto
          -42 -31 -39 -29 -30 -26 -29 26 -39 29 -43 31 rrcurveto
          -15 hlineto
          -39 -59 52 -47 53 -51 45 -47 rlinecurve
          31 hlineto
          52 53 52 51 46 41 rrcurveto
          -139 -192 rmoveto
          -148 -101 -90 -118 hvcurveto
          -193 276 11 -97 vvcurveto
          -28 -23 -29 -53 -45 -73 24 50 -60 vhcurveto
          -17 -10 -23 -145 rlineto
          -27 67 70 -13 64 hhcurveto
          155 99 92 115 hvcurveto
          190 -278 -5 92 vvcurveto
          28 26 27 47 36 55 -20 -33 51 vhcurveto
          23 9 26 136 rlineto
          25 -64 -61 9 -49 hhcurveto
          endchar
        </CharString>
        <CharString name="Scedilla">
          -37 -203 64 129 121 -100 -21 539 126 hstemhm
          44 159 55 90 -28 161 hintmask 10111010
          481 197 rmoveto
          190 -278 -5 92 vvcurveto
          28 26 27 47 36 55 -20 -33 51 vhcurveto
          23 9 26 136 rlineto
          25 -64 -61 9 -49 hhcurveto
          -148 -101 -90 -118 hvcurveto
          hintmask 11011010
          -193 276 11 -97 vvcurveto
          -28 -23 -29 -53 -45 -73 24 50 -60 vhcurveto
          -17 -10 -23 -145 rlineto
          hintmask 10111100
          61 -24 63 -13 58 -3 -14 -66 rcurveline
          49 -27 rlineto
          10 -5 5 -5 -8 vvcurveto
          -12 -7 -6 -14 -17 -22 10 19 -20 vhcurveto
          -7 -3 -10 -64 rlineto
          -15 24 28 -11 34 hhcurveto
          63 38 33 45 24 -10 20 -32 17 hvcurveto
          -34 19 8 39 rlineto
          hintmask 10111010
          124 18 77 84 101 vvcurveto
          endchar
        </CharString>
        <CharString name="Scircumflex">
          -37 -10 121 418 126 hstem
          44 159 117 161 vstem
          140 705 rmoveto
          16 hlineto
          42 31 39 29 30 26 29 -26 39 -29 43 -31 rrcurveto
          15 hlineto
          39 59 -52 47 -53 51 -45 47 rlinecurve
          -31 hlineto
          -52 -53 -52 -51 -46 -41 rrcurveto
          192 -109 rmoveto
          -148 -101 -90 -118 hvcurveto
          -193 276 11 -97 vvcurveto
          -28 -23 -29 -53 -45 -73 24 50 -60 vhcurveto
          -17 -10 -23 -145 rlineto
          -27 67 70 -13 64 hhcurveto
          155 99 92 115 hvcurveto
          190 -278 -5 92 vvcurveto
          28 26 27 47 36 55 -20 -33 51 vhcurveto
          23 9 26 136 rlineto
          25 -64 -61 9 -49 hhcurveto
          endchar
        </CharString>
        <CharString name="Scommaaccent">
          -37 -67 -21 78 121 418 126 hstemhm
          44 159 12 114 -9 161 hintmask 11110100
          293 655 rmoveto
          -148 -101 -90 -118 hvcurveto
          -193 276 11 -97 vvcurveto
          -28 -23 -29 -53 -45 -73 24 50 -60 vhcurveto
          -17 -10 -23 -145 rlineto
          -27 67 70 -13 64 hhcurveto
          155 99 92 115 hvcurveto
          190 -278 -5 92 vvcurveto
          28 26 27 47 36 55 -20 -33 51 vhcurveto
          23 9 26 136 rlineto
          25 -64 -61 9 -49 hhcurveto
          hintmask 11111000
          -5 -689 rmoveto
          -36 -9 -34 -15 -31 -18 -1 -12 rcurveline
          20 -17 9 -18 -23 vvcurveto
          -33 -16 -29 -33 -28 vhcurveto
          1 -10 44 -39 rlineto
          80 56 38 54 59 vvcurveto
          33 -13 26 -28 23 vhcurveto
          endchar
        </CharString>
        <CharString name="T">
          -37 21 -21 520 125 -12 12 hstemhm
          181.5 152 hintmask 00000000
          hintmask 10110000
          499 633 rmoveto
          hintmask 11010000
          -9 12 rlineto
          -468 hlineto
          -10 -119 10 -12 127 6 rlineto
          30 hlineto
          5 -329 -9 -191 rlineto
          162 hlineto
          -6 207 5 313 rlineto
          28 hlineto
          126 -6 rlineto
          endchar
        </CharString>
        <CharString name="Tbar">
          -37 21 -21 253 85 182 125 -12 12 hstemhm
          180.5 154 hintmask 11101000
          336 520 rmoveto
          28 hlineto
          125 -6 rlineto
          hintmask 11011000
          10 119 rlineto
          hintmask 11101000
          -10 12 rlineto
          -467 hlineto
          -10 -119 10 -12 127 6 rlineto
          30 hlineto
          3 -182 rlineto
          -89 hlineto
          -6 -74 10 -11 rlineto
          86 hlineto
          1 -62 -9 -191 rlineto
          162 hlineto
          -6 207 1 46 rlineto
          100 hlineto
          6 75 -10 10 rlineto
          -95 hlineto
          endchar
        </CharString>
        <CharString name="Tcaron">
          -37 21 -21 520 125 -12 12 hstemhm
          181.5 152 hintmask 11010000
          273 702 rmoveto
          52 53 52 51 46 41 -39 59 rcurveline
          -16 hlineto
          -42 -31 -39 -29 -30 -26 -29 26 -39 29 -43 31 rrcurveto
          -15 hlineto
          -39 -59 52 -47 53 -51 45 -47 rlinecurve
          hintmask 10110000
          257 -69 rmoveto
          hintmask 11010000
          -10 12 rlineto
          -467 hlineto
          -10 -119 10 -12 127 6 rlineto
          30 hlineto
          5 -329 -9 -191 rlineto
          162 hlineto
          -6 207 5 313 rlineto
          28 hlineto
          125 -6 rlineto
          endchar
        </CharString>
        <CharString name="Tcedilla">
          -37 -203 64 160 -21 520 125 -12 12 hstemhm
          181.5 152 -68.5 90 hintmask 00000000
          hintmask 11011000
          499 633 rmoveto
          hintmask 11101000
          -10 12 rlineto
          -467 hlineto
          -10 -119 10 -12 127 6 rlineto
          30 hlineto
          5 -329 -9 -191 rlineto
          hintmask 11100100
          42 hlineto
          -16 -76 49 -27 rlineto
          10 -5 5 -5 -8 vvcurveto
          -12 -7 -6 -14 -17 -22 10 19 -20 vhcurveto
          -7 -3 -10 -64 rlineto
          -15 24 28 -11 34 hhcurveto
          63 38 33 45 24 -10 20 -32 17 hvcurveto
          hintmask 11101000
          -34 19 10 45 rlineto
          48 hlineto
          -6 207 5 313 rlineto
          28 hlineto
          125 -6 rlineto
          endchar
        </CharString>
        <CharString name="Tcommaaccent">
          -37 -67 -21 109 -21 520 125 -12 12 hstemhm
          181.5 152 -110.5 114 hintmask 00000000
          hintmask 11011000
          499 633 rmoveto
          hintmask 11101000
          -10 12 rlineto
          -467 hlineto
          -10 -119 10 -12 127 6 rlineto
          30 hlineto
          5 -329 -9 -191 rlineto
          162 hlineto
          -6 207 5 313 rlineto
          28 hlineto
          125 -6 rlineto
          hintmask 11100100
          -193 -548 rmoveto
          -36 -9 -34 -15 -31 -18 -1 -12 rcurveline
          20 -17 9 -18 -23 vvcurveto
          -33 -16 -29 -33 -28 vhcurveto
          1 -10 44 -39 rlineto
          80 56 38 54 59 vvcurveto
          33 -13 26 -28 23 vhcurveto
          endchar
        </CharString>
        <CharString name="Thorn">
          31 21 -21 105 118 208 118 -1 97 hstemhm
          76 154.5 163.5 172 hintmask 00000000
          hintmask 11101100
          235 549 rmoveto
          hintmask 11011100
          2 96 rlineto
          -166 hlineto
          2 -97 rlineto
          -2 hlineto
          2 -2 6 -355 -8 -191 rlineto
          164 hlineto
          -4 104 58 1 rlineto
          178 99 89 153 hvcurveto
          hintmask 11101100
          135 -79 67 -140 vhcurveto
          -119 -324 rmoveto
          5 204 59 4 rlineto
          70 -3 32 -27 -68 vvcurveto
          -65 -28 -32 -49 -17 vhcurveto
          endchar
        </CharString>
        <CharString name="U">
          97 -10 130 525 -20 hstem
          57 156.5 215 158.5 vstem
          584 318 rmoveto
          6 327 rlineto
          -165 hlineto
          7 -405 rlineto
          -82 1 -36 -38 -77 hhcurveto
          -76 -35 39 85 1 hvcurveto
          7 401 rlineto
          -162 hlineto
          4 -325 -2 -98 rlineto
          -149 -4 92 -83 168 hhcurveto
          173 98 84 151 -1 hvcurveto
          endchar
        </CharString>
        <CharString name="Uacute">
          97 -10 130 525 -20 hstem
          57 156.5 215 158 vstem
          438 897 rmoveto
          -14 3 -70 -41 -68 -37 -77 -38 rlinecurve
          25 -66 15 -4 73 23 71 23 80 29 rlinecurve
          5 13 rlineto
          106 -484 rmoveto
          5 327 rlineto
          -164 hlineto
          7 -405 rlineto
          -82 1 -36 -38 -77 hhcurveto
          -77 -34 39 85 1 hvcurveto
          7 401 rlineto
          -162 hlineto
          4 -325 -2 -98 rlineto
          -149 -4 92 -83 167 hhcurveto
          174 97 84 151 hvcurveto
          endchar
        </CharString>
        <CharString name="Ubreve">
          97 -10 130 525 -20 84 111 hstem
          57 156.5 215 158 vstem
          452 890 rmoveto
          -23 hlineto
          -46 -17 -38 -24 -49 hhcurveto
          -49 -38 24 46 -19 hvcurveto
          -22 hlineto
          -34 -51 rlineto
          -66 17 47 -64 93 hhcurveto
          94 52 61 69 20 hvcurveto
          98 -521 rmoveto
          5 327 rlineto
          -164 hlineto
          7 -405 rlineto
          -82 1 -36 -38 -77 hhcurveto
          -77 -34 39 85 1 hvcurveto
          7 401 rlineto
          -162 hlineto
          4 -325 -2 -98 rlineto
          -149 -4 92 -83 167 hhcurveto
          174 97 84 151 hvcurveto
          endchar
        </CharString>
        <CharString name="Ucaron">
          97 -10 130 525 -20 hstem
          57 156.5 215 158 vstem
          450 906 rmoveto
          -16 hlineto
          -42 -31 -39 -29 -30 -26 -29 26 -39 29 -43 31 rrcurveto
          -15 hlineto
          -39 -59 52 -47 53 -51 45 -47 rlinecurve
          31 hlineto
          52 53 52 51 46 41 rrcurveto
          95 -529 rmoveto
          5 327 rlineto
          -164 hlineto
          7 -405 rlineto
          -82 1 -36 -38 -77 hhcurveto
          -77 -34 39 85 1 hvcurveto
          7 401 rlineto
          -162 hlineto
          4 -325 -2 -98 rlineto
          -149 -4 92 -83 167 hhcurveto
          174 97 84 151 hvcurveto
          endchar
        </CharString>
        <CharString name="Ucircumflex">
          97 -10 130 525 -20 hstem
          57 156.5 215 158 vstem
          195 725 rmoveto
          15 hlineto
          38 21 38 20 37 21 114 -62 rcurveline
          15 hlineto
          28 63 -52 35 -47 37 -43 38 rlinecurve
          -30 hlineto
          -42 -38 -47 -37 -52 -35 rrcurveto
          417 -470 rmoveto
          5 327 rlineto
          -164 hlineto
          7 -405 rlineto
          -82 1 -36 -38 -77 hhcurveto
          -77 -34 39 85 1 hvcurveto
          7 401 rlineto
          -162 hlineto
          4 -325 -2 -98 rlineto
          -149 -4 92 -83 167 hhcurveto
          174 97 84 151 hvcurveto
          endchar
        </CharString>
        <CharString name="Udieresis">
          97 -10 130 525 -20 101 149 hstemhm
          57 156.5 -53.5 146 36 146 -59.5 158 hintmask 00000000
          hintmask 11101100
          236 875 rmoveto
          -47 -29 -30 -48 -45 25 -26 46 46 29 30 48 44 -26 27 -44 hvcurveto
          182 hmoveto
          -47 -29 -30 -48 -45 25 -26 46 46 29 30 48 44 -26 27 -44 hvcurveto
          hintmask 11110010
          166 -557 rmoveto
          5 327 rlineto
          -164 hlineto
          7 -405 rlineto
          -82 1 -36 -38 -77 hhcurveto
          -77 -34 39 85 1 hvcurveto
          7 401 rlineto
          -162 hlineto
          4 -325 -2 -98 rlineto
          -149 -4 92 -83 167 hhcurveto
          174 97 84 151 hvcurveto
          endchar
        </CharString>
        <CharString name="Udieresisacute">
          97 -10 130 525 -20 83 144 hstemhm
          57 156.5 -52.5 142 40 142 -56.5 158 hintmask 11110010
          430 1042 rmoveto
          -13 6 -76 -28 -74 -25 -82 -24 rlinecurve
          13 -69 14 -6 76 8 74 11 84 14 rlinecurve
          7 13 rlineto
          hintmask 11101100
          -217 -90 rmoveto
          -46 -29 -29 -46 -44 25 -25 44 45 28 29 46 44 -25 25 -42 hvcurveto
          181 hmoveto
          -46 -28 -29 -46 -44 25 -25 44 45 28 29 46 44 -25 25 -43 hvcurveto
          hintmask 11110010
          167 -534 rmoveto
          5 327 rlineto
          -164 hlineto
          7 -405 rlineto
          -82 1 -36 -38 -77 hhcurveto
          -77 -34 39 85 1 hvcurveto
          7 401 rlineto
          -162 hlineto
          4 -325 -2 -98 rlineto
          -149 -4 92 -83 167 hhcurveto
          174 97 84 151 hvcurveto
          endchar
        </CharString>
        <CharString name="Udieresiscaron">
          97 -10 130 525 -20 83 144 hstemhm
          57 156.5 -52.5 142 40 142 -56.5 158 hintmask 11110010
          451 1034 rmoveto
          -15 hlineto
          -38 -20 -38 -21 -37 -21 -38 21 -38 21 -38 20 rrcurveto
          -15 hlineto
          -28 -62 52 -36 47 -37 43 -37 rlinecurve
          30 hlineto
          42 37 47 37 52 36 rrcurveto
          hintmask 11101100
          -243 -120 rmoveto
          -46 -29 -29 -46 -44 25 -25 44 45 28 29 46 44 -25 25 -42 hvcurveto
          181 hmoveto
          -46 -28 -29 -46 -44 25 -25 44 45 28 29 46 44 -25 25 -43 hvcurveto
          hintmask 11110010
          167 -534 rmoveto
          5 327 rlineto
          -164 hlineto
          7 -405 rlineto
          -82 1 -36 -38 -77 hhcurveto
          -77 -34 39 85 1 hvcurveto
          7 401 rlineto
          -162 hlineto
          4 -325 -2 -98 rlineto
          -149 -4 92 -83 167 hhcurveto
          174 97 84 151 hvcurveto
          endchar
        </CharString>
        <CharString name="Udieresisgrave">
          97 -10 130 525 -20 83 144 hstemhm
          57 156.5 -52.5 142 40 142 -56.5 158 hintmask 11110010
          208 1042 rmoveto
          -23 -100 8 -13 83 -14 75 -11 75 -8 rlinecurve
          14 6 13 69 -82 24 -74 25 -75 28 rlinecurve
          hintmask 11101100
          14 -196 rmoveto
          -46 -29 -29 -46 -44 25 -25 44 45 28 29 46 44 -25 25 -42 hvcurveto
          181 hmoveto
          -46 -28 -29 -46 -44 25 -25 44 45 28 29 46 44 -25 25 -43 hvcurveto
          hintmask 11110010
          167 -534 rmoveto
          5 327 rlineto
          -164 hlineto
          7 -405 rlineto
          -82 1 -36 -38 -77 hhcurveto
          -77 -34 39 85 1 hvcurveto
          7 401 rlineto
          -162 hlineto
          4 -325 -2 -98 rlineto
          -149 -4 92 -83 167 hhcurveto
          174 97 84 151 hvcurveto
          endchar
        </CharString>
        <CharString name="Udieresismacron">
          97 -10 130 525 -20 83 144 53 99 hstemhm
          57 156.5 -52.5 142 40 142 -56.5 158 hintmask 11111001
          478 993 rmoveto
          -11 11 rlineto
          -289 hlineto
          -8 -88 11 -11 rlineto
          289 hlineto
          hintmask 11110110
          -234 -53 rmoveto
          -46 -29 -29 -46 -44 25 -25 44 45 28 29 46 44 -25 25 -42 hvcurveto
          181 hmoveto
          -46 -28 -29 -46 -44 25 -25 44 45 28 29 46 44 -25 25 -43 hvcurveto
          hintmask 11111001
          167 -534 rmoveto
          5 327 rlineto
          -164 hlineto
          7 -405 rlineto
          -82 1 -36 -38 -77 hhcurveto
          -77 -34 39 85 1 hvcurveto
          7 401 rlineto
          -162 hlineto
          4 -325 -2 -98 rlineto
          -149 -4 92 -83 167 hhcurveto
          174 97 84 151 hvcurveto
          endchar
        </CharString>
        <CharString name="Udotbelow">
          97 -210 166 34 130 525 -20 hstemhm
          57 156.5 25.5 162 27.5 158 hintmask 11110100
          584 318 rmoveto
          5 327 rlineto
          -164 hlineto
          7 -405 rlineto
          -82 1 -36 -38 -77 hhcurveto
          -77 -34 39 85 1 hvcurveto
          7 401 rlineto
          -162 hlineto
          4 -325 -2 -98 rlineto
          -149 -4 92 -83 167 hhcurveto
          174 97 84 151 hvcurveto
          hintmask 11111100
          -260 -269 rmoveto
          -52 -32 -34 -52 -51 27 -29 51 51 33 34 53 49 -29 30 -49 hvcurveto
          endchar
        </CharString>
        <CharString name="Ugrave">
          97 -10 130 525 -20 hstem
          57 156.5 215 158 vstem
          231 897 rmoveto
          -40 -95 5 -13 80 -29 71 -23 73 -23 rlinecurve
          15 4 25 66 -77 38 -68 37 -70 41 rlinecurve
          339 -582 rmoveto
          5 327 rlineto
          -164 hlineto
          7 -405 rlineto
          -82 1 -36 -38 -77 hhcurveto
          -77 -34 39 85 1 hvcurveto
          7 401 rlineto
          -162 hlineto
          4 -325 -2 -98 rlineto
          -149 -4 92 -83 167 hhcurveto
          174 97 84 151 hvcurveto
          endchar
        </CharString>
        <CharString name="Uhookabove">
          97 -10 130 525 -20 236 70 hstemhm
          57 156.5 105.5 82 27.5 158 hintmask 00000000
          hintmask 11111100
          313 931 rmoveto
          -41 -42 -21 -34 -31 hvcurveto
          25 -40 rlineto
          16 20 26 9 20 hhcurveto
          16 13 -7 -16 -20 -20 -29 -33 -24 hvcurveto
          47 -72 55 33 -25 40 rlineto
          43 38 15 21 28 vvcurveto
          46 -39 32 -49 vhcurveto
          hintmask 11110100
          271 -613 rmoveto
          5 327 rlineto
          -164 hlineto
          7 -405 rlineto
          -82 1 -36 -38 -77 hhcurveto
          -77 -34 39 85 1 hvcurveto
          7 401 rlineto
          -162 hlineto
          4 -325 -2 -98 rlineto
          -149 -4 92 -83 167 hhcurveto
          174 97 84 151 hvcurveto
          endchar
        </CharString>
        <CharString name="Uhorn">
          107 -10 130 525 -20 hstemhm
          57 156.5 215 157.5 -24 123 hintmask 00000000
          hintmask 11101000
          685 708 rmoveto
          51 -34 37 -40 -27 -26 -14 -17 -24 vhcurveto
          -3 -12 rlineto
          20 -17 11 -19 -23 vvcurveto
          -34 -19 -15 -41 vhcurveto
          hintmask 11110000
          -77 hlineto
          7 -405 rlineto
          -82 1 -36 -38 -77 hhcurveto
          -77 -34 39 85 1 hvcurveto
          7 401 rlineto
          -162 hlineto
          4 -325 -2 -98 rlineto
          -149 -4 92 -83 167 hhcurveto
          174 97 84 151 hvcurveto
          1 93 4 267 rlineto
          hintmask 11101000
          60 24 37 46 53 vvcurveto
          endchar
        </CharString>
        <CharString name="Uhornacute">
          107 -10 130 525 -20 hstemhm
          57 156.5 215 157.5 -24 123 hintmask 11110000
          233 718 rmoveto
          15 -4 73 23 71 23 80 29 rlinecurve
          5 13 -40 95 -14 3 -70 -41 -68 -37 -77 -38 rlinecurve
          hintmask 11101000
          477 -76 rmoveto
          51 -34 37 -40 -27 -26 -14 -17 -24 vhcurveto
          -3 -12 rlineto
          20 -17 11 -19 -23 vvcurveto
          -34 -19 -15 -41 vhcurveto
          hintmask 11110000
          -77 hlineto
          7 -405 rlineto
          -82 1 -36 -38 -77 hhcurveto
          -77 -34 39 85 1 hvcurveto
          7 401 rlineto
          -162 hlineto
          4 -325 -2 -98 rlineto
          -149 -4 92 -83 167 hhcurveto
          174 97 84 151 hvcurveto
          1 93 4 267 rlineto
          hintmask 11101000
          60 24 37 46 53 vvcurveto
          endchar
        </CharString>
        <CharString name="Uhorndotbelow">
          107 -210 166 34 130 525 -20 hstemhm
          57 156.5 27.5 162 25.5 157.5 -24 123 hintmask 00000000
          hintmask 11110010
          685 708 rmoveto
          51 -34 37 -40 -27 -26 -14 -17 -24 vhcurveto
          -3 -12 rlineto
          20 -17 11 -19 -23 vvcurveto
          -34 -19 -15 -41 vhcurveto
          hintmask 11110100
          -77 hlineto
          7 -405 rlineto
          -82 1 -36 -38 -77 hhcurveto
          -77 -34 39 85 1 hvcurveto
          7 401 rlineto
          -162 hlineto
          4 -325 -2 -98 rlineto
          -149 -4 92 -83 167 hhcurveto
          174 97 84 151 hvcurveto
          1 93 4 267 rlineto
          hintmask 11110010
          60 24 37 46 53 vvcurveto
          hintmask 11111100
          -360 -752 rmoveto
          -52 -32 -34 -52 -51 27 -29 51 51 33 34 53 49 -29 30 -49 hvcurveto
          endchar
        </CharString>
        <CharString name="Uhorngrave">
          107 -10 130 525 -20 hstemhm
          57 156.5 215 157.5 -24 123 hintmask 11110000
          434 718 rmoveto
          25 66 -77 38 -68 37 -70 41 rlinecurve
          -14 -3 -40 -95 5 -13 80 -29 71 -23 73 -23 rlinecurve
          hintmask 11101000
          266 -6 rmoveto
          51 -34 37 -40 -27 -26 -14 -17 -24 vhcurveto
          -3 -12 rlineto
          20 -17 11 -19 -23 vvcurveto
          -34 -19 -15 -41 vhcurveto
          hintmask 11110000
          -77 hlineto
          7 -405 rlineto
          -82 1 -36 -38 -77 hhcurveto
          -77 -34 39 85 1 hvcurveto
          7 401 rlineto
          -162 hlineto
          4 -325 -2 -98 rlineto
          -149 -4 92 -83 167 hhcurveto
          174 97 84 151 hvcurveto
          1 93 4 267 rlineto
          hintmask 11101000
          60 24 37 46 53 vvcurveto
          endchar
        </CharString>
        <CharString name="Uhornhookabove">
          107 -10 130 525 -20 236 70 hstemhm
          57 156.5 104.5 82 28.5 157.5 -24 123 hintmask 00000000
          hintmask 11111010
          289 861 rmoveto
          16 13 -7 -16 -20 -20 -29 -33 -24 hvcurveto
          47 -72 55 33 -25 40 rlineto
          43 38 15 21 28 vvcurveto
          46 -39 32 -49 -41 -42 -21 -34 -31 vhcurveto
          25 -40 rlineto
          16 20 26 9 20 hhcurveto
          396 -153 rmoveto
          51 -34 37 -40 -27 -26 -14 -17 -24 vhcurveto
          -3 -12 rlineto
          20 -17 11 -19 -23 vvcurveto
          -34 -19 -15 -41 vhcurveto
          hintmask 11110100
          -77 hlineto
          7 -405 rlineto
          -82 1 -36 -38 -77 hhcurveto
          -77 -34 39 85 1 hvcurveto
          7 401 rlineto
          -162 hlineto
          4 -325 -2 -98 rlineto
          -149 -4 92 -83 167 hhcurveto
          174 97 84 151 hvcurveto
          1 93 4 267 rlineto
          hintmask 11111010
          60 24 37 46 53 vvcurveto
          endchar
        </CharString>
        <CharString name="Uhorntilde">
          107 -10 130 525 -20 hstemhm
          57 156.5 215 157.5 -24 123 hintmask 11110000
          185 712 rmoveto
          14 hlineto
          28 24 18 26 23 hhcurveto
          26 79 -28 -7 49 hvcurveto
          14 6 74 99 rlineto
          13 vlineto
          -46 46 rlineto
          -14 hlineto
          -28 -24 -18 -27 -23 hhcurveto
          -26 -79 29 6 -49 hvcurveto
          -14 -5 -74 -99 rlineto
          -13 vlineto
          hintmask 11101000
          546 -50 rmoveto
          51 -34 37 -40 -27 -26 -14 -17 -24 vhcurveto
          -3 -12 rlineto
          20 -17 11 -19 -23 vvcurveto
          -34 -19 -15 -41 vhcurveto
          hintmask 11110000
          -77 hlineto
          7 -405 rlineto
          -82 1 -36 -38 -77 hhcurveto
          -77 -34 39 85 1 hvcurveto
          7 401 rlineto
          -162 hlineto
          4 -325 -2 -98 rlineto
          -149 -4 92 -83 167 hhcurveto
          174 97 84 151 hvcurveto
          1 93 4 267 rlineto
          hintmask 11101000
          60 24 37 46 53 vvcurveto
          endchar
        </CharString>
        <CharString name="Uhungarumlaut">
          97 -10 130 525 -20 90 132 hstem
          57 156.5 215 158 vstem
          219 713 rmoveto
          14 4 44 38 42 39 41 41 rlinecurve
          -2 12 -73 48 -12 -3 -32 -48 -35 -46 -35 -46 rlinecurve
          209 -39 rmoveto
          13 4 43 38 43 39 42 41 rlinecurve
          -2 12 -74 48 -11 -3 -34 -48 -34 -46 -35 -46 rlinecurve
          253 -434 rmoveto
          5 327 rlineto
          -164 hlineto
          7 -405 rlineto
          -82 1 -36 -38 -77 hhcurveto
          -77 -34 39 85 1 hvcurveto
          7 401 rlineto
          -162 hlineto
          4 -325 -2 -98 rlineto
          -149 -4 92 -83 167 hhcurveto
          174 97 84 151 hvcurveto
          endchar
        </CharString>
        <CharString name="Umacron">
          97 -10 130 525 -20 126 99 hstem
          57 156.5 215 158 vstem
          472 839 rmoveto
          -10 11 rlineto
          -279 hlineto
          -7 -88 10 -11 rlineto
          278 hlineto
          120 -433 rmoveto
          5 327 rlineto
          -164 hlineto
          7 -405 rlineto
          -82 1 -36 -38 -77 hhcurveto
          -77 -34 39 85 1 hvcurveto
          7 401 rlineto
          -162 hlineto
          4 -325 -2 -98 rlineto
          -149 -4 92 -83 167 hhcurveto
          174 97 84 151 hvcurveto
          endchar
        </CharString>
        <CharString name="Uogonek">
          97 -197 84 103 130 525 -20 hstemhm
          57 156.5 144.5 82 -11.5 158 hintmask 11110100
          589 645 rmoveto
          -164 hlineto
          7 -405 rlineto
          -82 1 -36 -38 -77 hhcurveto
          -77 -34 39 85 1 hvcurveto
          7 401 rlineto
          -162 hlineto
          4 -325 -2 -98 rlineto
          -149 -4 92 -83 167 hhcurveto
          hintmask 11111000
          33 29 3 6 27 hvcurveto
          -14 -21 rlineto
          -20 -29 -9 -28 -26 vvcurveto
          -52 36 -40 60 36 32 16 32 39 vhcurveto
          -12 62 rlineto
          -8 hlineto
          -17 -22 -23 -9 -20 hhcurveto
          -25 -11 14 19 14 6 16 10 16 hvcurveto
          hintmask 11110100
          50 79 rlineto
          50 40 27 61 79 vvcurveto
          1 93 rlineto
          endchar
        </CharString>
        <CharString name="Uring">
          97 -10 130 525 -20 88 64 72 65 hstemhm
          57 156.5 7.5 64 76 64 3.5 158 hintmask 00000000
          hintmask 11110110
          326 914 rmoveto
          -68 -37 -36 -66 -65 36 -34 63 66 39 38 67 61 -33 35 -66 hvcurveto
          -4 -65 rmoveto
          28 11 -12 -25 -25 -12 -10 -25 -27 -12 11 27 23 11 11 26 hvcurveto
          hintmask 11111001
          262 -531 rmoveto
          5 327 rlineto
          -164 hlineto
          7 -405 rlineto
          -82 1 -36 -38 -77 hhcurveto
          -77 -34 39 85 1 hvcurveto
          7 401 rlineto
          -162 hlineto
          4 -325 -2 -98 rlineto
          -149 -4 92 -83 167 hhcurveto
          174 97 84 151 hvcurveto
          endchar
        </CharString>
        <CharString name="Utilde">
          97 -10 130 525 -20 hstem
          57 156.5 215 158 vstem
          506 849 rmoveto
          -46 46 rlineto
          -14 hlineto
          -28 -24 -18 -27 -23 hhcurveto
          -26 -79 29 6 -49 hvcurveto
          -14 -5 -74 -99 rlineto
          -13 vlineto
          46 -46 rlineto
          14 hlineto
          28 24 18 26 23 hhcurveto
          26 79 -28 -7 49 hvcurveto
          14 6 74 99 rlineto
          78 -518 rmoveto
          5 327 rlineto
          -164 hlineto
          7 -405 rlineto
          -82 1 -36 -38 -77 hhcurveto
          -77 -34 39 85 1 hvcurveto
          7 401 rlineto
          -162 hlineto
          4 -325 -2 -98 rlineto
          -149 -4 92 -83 167 hhcurveto
          174 97 84 151 hvcurveto
          endchar
        </CharString>
        <CharString name="V">
          52 0 148 497 -20 hstem
          7 592 vstem
          391 hmoveto
          208 645 rlineto
          -159 hlineto
          -18 -103 -120 -394 rlineto
          -10 hlineto
          -103 403 -17 94 rlineto
          -165 hlineto
          189 -645 rlineto
          endchar
        </CharString>
        <CharString name="V.ss01">
          -20 0 55 -55 139 314 55 hstemhm
          -100 727 hintmask 10110000
          495 453 rmoveto
          132 55 -727 -55 140 hlineto
          119 -398 rlineto
          -259 -55 727 55 -265 hlineto
          -1 398 rmoveto
          -7 -43 rlineto
          hintmask 01110000
          -86 -271 rlineto
          -9 hlineto
          -72 280 -6 34 rlineto
          endchar
        </CharString>
        <CharString name="W">
          360 0 165 480 -20 hstem
          18 887 vstem
          701 hmoveto
          204 645 rlineto
          -150 hlineto
          -17 -97 -109 -383 rlineto
          -10 hlineto
          -97 376 -14 104 rlineto
          -164 hlineto
          40 -154 -95 -326 rlineto
          -10 hlineto
          -93 392 -10 88 rlineto
          -158 hlineto
          169 -645 rlineto
          172 hlineto
          80 278 rlineto
          10 hlineto
          81 -278 rlineto
          endchar
        </CharString>
        <CharString name="Wacute">
          360 0 165 480 -20 hstem
          18 886 vstem
          562 897 rmoveto
          -14 3 -70 -41 -68 -37 -77 -38 rlinecurve
          25 -66 15 -4 73 23 71 23 80 29 rlinecurve
          5 13 rlineto
          99 -802 rmoveto
          203 645 rlineto
          -149 hlineto
          -17 -97 -109 -383 rlineto
          -11 hlineto
          -96 376 -15 104 rlineto
          -164 hlineto
          41 -154 -95 -326 rlineto
          -10 hlineto
          -93 392 -10 88 rlineto
          -158 hlineto
          168 -645 rlineto
          172 hlineto
          80 278 rlineto
          11 hlineto
          81 -278 rlineto
          endchar
        </CharString>
        <CharString name="Wcircumflex">
          360 0 165 480 -20 hstem
          18 886 vstem
          319 725 rmoveto
          15 hlineto
          38 21 38 20 37 21 114 -62 rcurveline
          15 hlineto
          28 63 -52 35 -47 37 -43 38 rlinecurve
          -30 hlineto
          -42 -38 -47 -37 -52 -35 rrcurveto
          410 -788 rmoveto
          203 645 rlineto
          -149 hlineto
          -17 -97 -109 -383 rlineto
          -11 hlineto
          -96 376 -15 104 rlineto
          -164 hlineto
          41 -154 -95 -326 rlineto
          -10 hlineto
          -93 392 -10 88 rlineto
          -158 hlineto
          168 -645 rlineto
          172 hlineto
          80 278 rlineto
          11 hlineto
          81 -278 rlineto
          endchar
        </CharString>
        <CharString name="Wdieresis">
          360 0 165 480 -20 101 149 hstem
          284 146 36 146 vstem
          360 875 rmoveto
          -47 -29 -30 -48 -45 25 -26 46 46 29 30 48 44 -26 27 -44 hvcurveto
          182 hmoveto
          -47 -29 -30 -48 -45 25 -26 46 46 29 30 48 44 -26 27 -44 hvcurveto
          159 -875 rmoveto
          203 645 rlineto
          -149 hlineto
          -17 -97 -109 -383 rlineto
          -11 hlineto
          -96 376 -15 104 rlineto
          -164 hlineto
          41 -154 -95 -326 rlineto
          -10 hlineto
          -93 392 -10 88 rlineto
          -158 hlineto
          168 -645 rlineto
          172 hlineto
          80 278 rlineto
          11 hlineto
          81 -278 rlineto
          endchar
        </CharString>
        <CharString name="Wgrave">
          360 0 165 480 -20 hstem
          18 886 vstem
          355 897 rmoveto
          -40 -95 5 -13 80 -29 71 -23 73 -23 rlinecurve
          15 4 25 66 -77 38 -68 37 -70 41 rlinecurve
          332 -900 rmoveto
          203 645 rlineto
          -149 hlineto
          -17 -97 -109 -383 rlineto
          -11 hlineto
          -96 376 -15 104 rlineto
          -164 hlineto
          41 -154 -95 -326 rlineto
          -10 hlineto
          -93 392 -10 88 rlineto
          -158 hlineto
          168 -645 rlineto
          172 hlineto
          80 278 rlineto
          11 hlineto
          81 -278 rlineto
          endchar
        </CharString>
        <CharString name="X">
          73 21 -21 645 -20 hstem
          7 609 vstem
          413 339 rmoveto
          191 306 rlineto
          -170 hlineto
          -29 -64 -88 -142 -83 135 -32 71 rlineto
          -195 hlineto
          202 -330 -200 -315 rlineto
          165 hlineto
          30 62 99 150 87 -142 32 -70 rlineto
          194 hlineto
          endchar
        </CharString>
        <CharString name="X.ss01">
          -3 0 55 398 55 hstem
          -100 744 vstem
          362 269 rmoveto
          123 184 rlineto
          159 55 -744 -55 159 hlineto
          132 -204 -131 -194 rlineto
          -160 -55 744 55 -148 hlineto
          -280 398 rmoveto
          133 hlineto
          -9 -19 -58 -84 -54 77 rlineto
          111 -372 rmoveto
          -146 hlineto
          11 22 66 87 56 -80 rlineto
          endchar
        </CharString>
        <CharString name="Y">
          26 21 -21 645 -20 hstem
          202 154.5 vstem
          353 175 rmoveto
          2 39 228 431 rlineto
          -167 hlineto
          -20 -54 -106 -219 rlineto
          -11 hlineto
          -94 225 -15 48 rlineto
          -171 hlineto
          206 -435 1 -35 -8 -175 rlineto
          162 hlineto
          endchar
        </CharString>
        <CharString name="Yacute">
          26 21 -21 645 -20 hstem
          202.5 154.5 vstem
          195 718 rmoveto
          15 -4 73 23 71 23 80 29 rlinecurve
          5 13 -40 95 -14 3 -70 -41 -68 -37 -77 -38 rlinecurve
          184 -609 rmoveto
          1 38 228 432 rlineto
          -166 hlineto
          -20 -54 -106 -219 rlineto
          -11 hlineto
          -94 225 -15 48 rlineto
          -171 hlineto
          206 -435 1 -35 -9 -175 rlineto
          162 hlineto
          endchar
        </CharString>
        <CharString name="Ycircumflex">
          26 21 -21 645 -20 hstem
          202.5 154.5 vstem
          156 725 rmoveto
          15 hlineto
          38 21 38 20 37 21 114 -62 rcurveline
          15 hlineto
          28 63 -52 35 -47 37 -43 38 rlinecurve
          -30 hlineto
          -42 -38 -47 -37 -52 -35 rrcurveto
          226 -613 rmoveto
          1 38 228 432 rlineto
          -166 hlineto
          -20 -54 -106 -219 rlineto
          -11 hlineto
          -94 225 -15 48 rlineto
          -171 hlineto
          206 -435 1 -35 -9 -175 rlineto
          162 hlineto
          endchar
        </CharString>
        <CharString name="Ydieresis">
          26 21 -21 645 -20 101 149 hstemhm
          122 146 -65.5 154.5 -53 146 hintmask 00000000
          hintmask 11110100
          193 726 rmoveto
          46 29 30 48 44 -26 27 -44 -47 -29 -30 -48 -45 25 -26 46 hvcurveto
          182 hmoveto
          46 29 30 48 44 -26 27 -44 -47 -29 -30 -48 -45 25 -26 46 hvcurveto
          hintmask 11101000
          -21 -551 rmoveto
          1 38 228 432 rlineto
          -166 hlineto
          -20 -54 -106 -219 rlineto
          -11 hlineto
          -94 225 -15 48 rlineto
          -171 hlineto
          206 -435 1 -35 -9 -175 rlineto
          162 hlineto
          endchar
        </CharString>
        <CharString name="Ydotbelow">
          26 -210 166 65 -21 645 -20 hstemhm
          198 162 -157.5 154.5 hintmask 11101000
          354 175 rmoveto
          1 38 228 432 rlineto
          -166 hlineto
          -20 -54 -106 -219 rlineto
          -11 hlineto
          -94 225 -15 48 rlineto
          -171 hlineto
          206 -435 1 -35 -9 -175 rlineto
          162 hlineto
          hintmask 11110000
          -78 -44 rmoveto
          -52 -32 -34 -52 -51 27 -29 51 51 33 34 53 49 -29 30 -49 hvcurveto
          endchar
        </CharString>
        <CharString name="Ygrave">
          26 21 -21 645 -20 hstem
          202.5 154.5 vstem
          396 718 rmoveto
          25 66 -77 38 -68 37 -70 41 rlinecurve
          -14 -3 -40 -95 5 -13 80 -29 71 -23 73 -23 rlinecurve
          -27 -539 rmoveto
          1 38 228 432 rlineto
          -166 hlineto
          -20 -54 -106 -219 rlineto
          -11 hlineto
          -94 225 -15 48 rlineto
          -171 hlineto
          206 -435 1 -35 -9 -175 rlineto
          162 hlineto
          endchar
        </CharString>
        <CharString name="Yhookabove">
          26 21 -21 645 -20 236 70 hstemhm
          202.5 154.5 -77 82 hintmask 00000000
          hintmask 11101000
          251 861 rmoveto
          16 13 -7 -16 -20 -20 -29 -33 -24 hvcurveto
          47 -72 55 33 -25 40 rlineto
          43 38 15 21 28 vvcurveto
          46 -39 32 -49 -41 -42 -21 -34 -31 vhcurveto
          25 -40 rlineto
          16 20 26 9 20 hhcurveto
          hintmask 11110000
          103 -686 rmoveto
          1 38 228 432 rlineto
          -166 hlineto
          -20 -54 -106 -219 rlineto
          -11 hlineto
          -94 225 -15 48 rlineto
          -171 hlineto
          206 -435 1 -35 -9 -175 rlineto
          162 hlineto
          endchar
        </CharString>
        <CharString name="Ytilde">
          26 21 -21 645 -20 hstem
          202.5 154.5 vstem
          146 712 rmoveto
          14 hlineto
          28 24 18 26 23 hhcurveto
          26 79 -28 -7 49 hvcurveto
          14 6 74 99 rlineto
          13 vlineto
          -46 46 rlineto
          -14 hlineto
          -28 -24 -18 -27 -23 hhcurveto
          -26 -79 29 6 -49 hvcurveto
          -14 -5 -74 -99 rlineto
          -13 vlineto
          254 -583 rmoveto
          1 38 228 432 rlineto
          -166 hlineto
          -20 -54 -106 -219 rlineto
          -11 hlineto
          -94 225 -15 48 rlineto
          -171 hlineto
          206 -435 1 -35 -9 -175 rlineto
          162 hlineto
          endchar
        </CharString>
        <CharString name="Z">
          10 0 122 -105 -21 527 122 hstemhm
          29 505 hintmask 10110000
          522 529 rmoveto
          117 vlineto
          -68 -1 rlineto
          -274 hlineto
          -138 2 -12 -126 6 -7 114 9 rlineto
          184 hlineto
          -305 -412 rlineto
          hintmask 01110000
          -116 vlineto
          hintmask 10110000
          87 5 rlineto
          246 hlineto
          hintmask 01110000
          159 -4 rlineto
          hintmask 10110000
          13 126 -6 8 -114 -8 rlineto
          -194 hlineto
          endchar
        </CharString>
        <CharString name="Zacute">
          10 0 122 -105 -21 527 122 hstemhm
          29 505 hintmask 10110000
          394 897 rmoveto
          -14 3 -70 -41 -68 -37 -77 -38 rlinecurve
          25 -66 15 -4 73 23 71 23 80 29 rlinecurve
          5 13 rlineto
          88 -273 rmoveto
          117 vlineto
          -68 -1 rlineto
          -274 hlineto
          -138 2 -12 -126 6 -7 114 9 rlineto
          184 hlineto
          -305 -412 rlineto
          hintmask 01110000
          -116 vlineto
          hintmask 10110000
          87 5 rlineto
          246 hlineto
          hintmask 01110000
          159 -4 rlineto
          hintmask 10110000
          13 126 -6 8 -114 -8 rlineto
          -194 hlineto
          endchar
        </CharString>
        <CharString name="Zcaron">
          10 0 122 -105 -21 527 122 hstemhm
          29 505 hintmask 10110000
          409 888 rmoveto
          -15 hlineto
          -38 -21 -38 -20 -37 -21 -114 62 rcurveline
          -15 hlineto
          -28 -63 52 -35 47 -37 43 -38 rlinecurve
          30 hlineto
          42 38 47 37 52 35 rrcurveto
          85 -296 rmoveto
          117 vlineto
          -68 -1 rlineto
          -274 hlineto
          -138 2 -12 -126 6 -7 114 9 rlineto
          184 hlineto
          -305 -412 rlineto
          hintmask 01110000
          -116 vlineto
          hintmask 10110000
          87 5 rlineto
          246 hlineto
          hintmask 01110000
          159 -4 rlineto
          hintmask 10110000
          13 126 -6 8 -114 -8 rlineto
          -194 hlineto
          endchar
        </CharString>
        <CharString name="Zdotaccent">
          10 0 122 -105 -21 527 122 74 166 hstemhm
          199 162 hintmask 10111000
          283 885 rmoveto
          -52 -32 -34 -52 -51 27 -29 51 51 33 34 53 49 -29 30 -49 hvcurveto
          239 -356 rmoveto
          117 vlineto
          -68 -1 rlineto
          -274 hlineto
          -138 2 -12 -126 6 -7 114 9 rlineto
          184 hlineto
          -305 -412 rlineto
          hintmask 01111000
          -116 vlineto
          hintmask 10111000
          87 5 rlineto
          246 hlineto
          hintmask 01111000
          159 -4 rlineto
          hintmask 10111000
          13 126 -6 8 -114 -8 rlineto
          -194 hlineto
          endchar
        </CharString>
        <CharString name="a">
          -10 21 -21 90 110.5 172.5 135 hstem
          13 503 vstem
          516 hmoveto
          -154 508 rlineto
          -180 hlineto
          -169 -508 rlineto
          147 hlineto
          15 89 80 2 93 -2 2 -8 14 -81 rlineto
          -45 201 rmoveto
          -55 -1 -54 1 55 172 rlineto
          9 hlineto
          endchar
        </CharString>
        <CharString name="a.sups">
          -197 320 81 120 -20 71 81 hstem
          21 106 69 109 vstem
          180 653 rmoveto
          -46 -51 -13 -22 -42 hvcurveto
          13 -76 8 -4 rlineto
          24 42 30 10 27 hhcurveto
          25 11 -11 -25 hvcurveto
          -1 -15 -99 -14 rlineto
          -51 -8 -25 -29 -48 vvcurveto
          -63 43 -38 67 -1 vhcurveto
          26 9 25 17 20 23 rrcurveto
          4 hlineto
          -35 11 15 -13 36 hhcurveto
          21 15 5 14 18 hvcurveto
          11 61 -8 7 rlineto
          -3 -4 -5 0 -5 hhcurveto
          -8 -3 6 13 hvcurveto
          17 5 96 21 vvcurveto
          61 -44 34 -81 vhcurveto
          16 -185 rmoveto
          -50 vlineto
          -11 -13 -14 -6 -13 hhcurveto
          -19 -10 12 20 17 8 7 14 3 hvcurveto
          endchar
        </CharString>
        <CharString name="aacute">
          -10 21 -21 90 110.5 172.5 135 hstem
          13 504 vstem
          205 562 rmoveto
          14 -1 67 36 65 36 74 43 rlinecurve
          3 14 -57 87 -14 1 -61 -55 -60 -49 -68 -52 rlinecurve
          349 -622 rmoveto
          -154 508 rlineto
          -180 hlineto
          -170 -508 rlineto
          147 hlineto
          15 89 80 2 93 -2 2 -8 14 -81 rlineto
          -45 201 rmoveto
          -55 -1 -54 1 55 172 rlineto
          9 hlineto
          endchar
        </CharString>
        <CharString name="abreve">
          -10 21 -21 90 110.5 172.5 135 65 111 19 -20 hstemhm
          13 504 hintmask 00000000
          hintmask 11110100
          272 573 rmoveto
          hintmask 11101100
          94 52 61 69 20 hvcurveto
          hintmask 11110100
          -34 51 rlineto
          -23 hlineto
          -46 -17 -38 -24 -49 hhcurveto
          -49 -38 24 46 -19 hvcurveto
          -22 hlineto
          -34 -51 rlineto
          -66 17 47 -64 93 hhcurveto
          hintmask 11101100
          245 -573 rmoveto
          -154 508 rlineto
          -180 hlineto
          -170 -508 rlineto
          147 hlineto
          15 89 80 2 93 -2 2 -8 14 -81 rlineto
          -45 201 rmoveto
          -55 -1 -54 1 55 172 rlineto
          9 hlineto
          endchar
        </CharString>
        <CharString name="abreveacute">
          -10 21 -21 90 110.5 172.5 135 54 110 hstem
          13 504 vstem
          270 711 rmoveto
          13 3 40 37 40 37 39 39 rlinecurve
          -3 12 -72 47 -11 -3 -31 -46 -31 -44 -32 -44 rlinecurve
          51 -187 rmoveto
          79 58 41 73 27 hvcurveto
          -34 49 rlineto
          -23 hlineto
          -34 -19 -36 -19 -47 hhcurveto
          -50 -38 19 34 -20 hvcurveto
          -22 hlineto
          -34 -49 rlineto
          -73 25 56 -41 78 hhcurveto
          244 -562 rmoveto
          -154 508 rlineto
          -180 hlineto
          -170 -508 rlineto
          147 hlineto
          15 89 80 2 93 -2 2 -8 14 -81 rlineto
          -45 201 rmoveto
          -55 -1 -54 1 55 172 rlineto
          9 hlineto
          endchar
        </CharString>
        <CharString name="abrevedotbelow">
          -10 -210 166 65 -21 90 110.5 172.5 135 65 111 19 -20 hstemhm
          183 162 hintmask 00000000
          hintmask 01111010
          272 573 rmoveto
          hintmask 01110110
          94 52 61 69 20 hvcurveto
          hintmask 01111010
          -34 51 rlineto
          -23 hlineto
          -46 -17 -38 -24 -49 hhcurveto
          -49 -38 24 46 -19 hvcurveto
          -22 hlineto
          -34 -51 rlineto
          -66 17 47 -64 93 hhcurveto
          hintmask 11110110
          245 -573 rmoveto
          -154 508 rlineto
          -180 hlineto
          -170 -508 rlineto
          147 hlineto
          15 89 80 2 93 -2 2 -8 14 -81 rlineto
          -45 201 rmoveto
          -55 -1 -54 1 55 172 rlineto
          9 hlineto
          -7 -417 rmoveto
          -52 -32 -34 -52 -51 27 -29 51 51 33 34 53 49 -29 30 -49 hvcurveto
          endchar
        </CharString>
        <CharString name="abrevegrave">
          -10 21 -21 90 110.5 172.5 135 54 110 hstem
          13 504 vstem
          283 711 rmoveto
          48 38 -32 44 -32 44 -30 46 rlinecurve
          -11 3 -73 -47 -2 -12 39 -39 39 -37 41 -37 rlinecurve
          3 -152 rmoveto
          79 58 41 73 27 hvcurveto
          -34 49 rlineto
          -23 hlineto
          -34 -19 -36 -19 -47 hhcurveto
          -50 -38 19 34 -20 hvcurveto
          -22 hlineto
          -34 -49 rlineto
          -73 25 56 -41 78 hhcurveto
          244 -562 rmoveto
          -154 508 rlineto
          -180 hlineto
          -170 -508 rlineto
          147 hlineto
          15 89 80 2 93 -2 2 -8 14 -81 rlineto
          -45 201 rmoveto
          -55 -1 -54 1 55 172 rlineto
          9 hlineto
          endchar
        </CharString>
        <CharString name="abrevehookabove">
          -10 21 -21 90 110.5 172.5 135 54 110 201 70 hstem
          275 82 vstem
          246 873 rmoveto
          16 13 -7 -16 -20 -20 -29 -33 -24 hvcurveto
          47 -72 55 33 -25 40 rlineto
          43 38 15 21 28 vvcurveto
          46 -39 32 -49 -41 -42 -21 -34 -31 vhcurveto
          25 -40 rlineto
          16 20 26 9 20 hhcurveto
          27 -311 rmoveto
          79 58 41 73 27 hvcurveto
          -34 49 rlineto
          -23 hlineto
          -34 -19 -36 -19 -47 hhcurveto
          -50 -38 19 34 -20 hvcurveto
          -22 hlineto
          -34 -49 rlineto
          -73 25 56 -41 78 hhcurveto
          244 -562 rmoveto
          -154 508 rlineto
          -180 hlineto
          -170 -508 rlineto
          147 hlineto
          15 89 80 2 93 -2 2 -8 14 -81 rlineto
          -45 201 rmoveto
          -55 -1 -54 1 55 172 rlineto
          9 hlineto
          endchar
        </CharString>
        <CharString name="abrevetilde">
          -10 21 -21 90 110.5 172.5 135 55 103 hstem
          13 504 vstem
          153 742 rmoveto
          12 hlineto
          25 22 17 25 21 hhcurveto
          24 72 -27 -5 45 hvcurveto
          13 5 69 91 rlineto
          13 vlineto
          -43 42 rlineto
          -13 hlineto
          -26 -22 -17 -24 -21 hhcurveto
          -23 -73 26 6 -45 hvcurveto
          -13 -5 -68 -92 rlineto
          -12 vlineto
          171 -118 rmoveto
          -47 -36 18 33 -19 hvcurveto
          -21 hlineto
          -32 -47 rlineto
          -69 23 54 -38 73 hhcurveto
          75 55 38 69 25 hvcurveto
          -32 47 rlineto
          -21 hlineto
          -33 -18 -35 -18 -44 hhcurveto
          236 -666 rmoveto
          -154 508 rlineto
          -180 hlineto
          -170 -508 rlineto
          147 hlineto
          15 89 80 2 93 -2 2 -8 14 -81 rlineto
          -45 201 rmoveto
          -55 -1 -54 1 55 172 rlineto
          9 hlineto
          endchar
        </CharString>
        <CharString name="acaron">
          -10 21 -21 90 110.5 172.5 135 203 -20 hstem
          13 504 vstem
          291 566 rmoveto
          52 53 52 51 46 41 -39 59 rcurveline
          -16 hlineto
          -42 -31 -39 -29 -30 -26 -29 26 -39 29 -43 31 rrcurveto
          -15 hlineto
          -39 -59 52 -47 53 -51 45 -47 rlinecurve
          257 -566 rmoveto
          -154 508 rlineto
          -180 hlineto
          -170 -508 rlineto
          147 hlineto
          15 89 80 2 93 -2 2 -8 14 -81 rlineto
          -45 201 rmoveto
          -55 -1 -54 1 55 172 rlineto
          9 hlineto
          endchar
        </CharString>
        <CharString name="acircumflex">
          -10 21 -21 90 110.5 172.5 135 hstem
          13 504 vstem
          149 569 rmoveto
          16 hlineto
          42 31 39 29 30 26 29 -26 39 -29 43 -31 rrcurveto
          15 hlineto
          39 59 -52 47 -53 51 -45 47 rlinecurve
          -31 hlineto
          -52 -53 -52 -51 -46 -41 rrcurveto
          407 -628 rmoveto
          -154 508 rlineto
          -180 hlineto
          -170 -508 rlineto
          147 hlineto
          15 89 80 2 93 -2 2 -8 14 -81 rlineto
          -45 201 rmoveto
          -55 -1 -54 1 55 172 rlineto
          9 hlineto
          endchar
        </CharString>
        <CharString name="acircumflexacute">
          -10 21 -21 90 110.5 172.5 135 hstem
          13 504 vstem
          384 703 rmoveto
          10 hlineto
          101 134 -3 11 -80 34 -10 -5 -70 -134 rlineto
          -186 -174 rmoveto
          15 hlineto
          38 21 38 20 37 21 114 -62 rcurveline
          15 hlineto
          28 63 -52 35 -47 37 -43 38 rlinecurve
          -30 hlineto
          -42 -38 -47 -37 -52 -35 rrcurveto
          399 -632 rmoveto
          -154 508 rlineto
          -180 hlineto
          -170 -508 rlineto
          147 hlineto
          15 89 80 2 93 -2 2 -8 14 -81 rlineto
          -45 201 rmoveto
          -55 -1 -54 1 55 172 rlineto
          9 hlineto
          endchar
        </CharString>
        <CharString name="acircumflexdotbelow">
          -10 -210 166 65 -21 90 110.5 172.5 135 hstem
          183 162 vstem
          149 569 rmoveto
          16 hlineto
          42 31 39 29 30 26 29 -26 39 -29 43 -31 rrcurveto
          15 hlineto
          39 59 -52 47 -53 51 -45 47 rlinecurve
          -31 hlineto
          -52 -53 -52 -51 -46 -41 rrcurveto
          407 -628 rmoveto
          -154 508 rlineto
          -180 hlineto
          -170 -508 rlineto
          147 hlineto
          15 89 80 2 93 -2 2 -8 14 -81 rlineto
          -45 201 rmoveto
          -55 -1 -54 1 55 172 rlineto
          9 hlineto
          -7 -417 rmoveto
          -52 -32 -34 -52 -51 27 -29 51 51 33 34 53 49 -29 30 -49 hvcurveto
          endchar
        </CharString>
        <CharString name="acircumflexgrave">
          -10 21 -21 90 110.5 172.5 135 hstem
          13 504 vstem
          386 703 rmoveto
          10 hlineto
          53 40 -70 134 -11 5 -79 -34 -4 -11 rlineto
          -139 -268 rmoveto
          15 hlineto
          38 21 38 20 37 21 114 -62 rcurveline
          15 hlineto
          28 63 -52 35 -47 37 -43 38 rlinecurve
          -30 hlineto
          -42 -38 -47 -37 -52 -35 rrcurveto
          399 -632 rmoveto
          -154 508 rlineto
          -180 hlineto
          -170 -508 rlineto
          147 hlineto
          15 89 80 2 93 -2 2 -8 14 -81 rlineto
          -45 201 rmoveto
          -55 -1 -54 1 55 172 rlineto
          9 hlineto
          endchar
        </CharString>
        <CharString name="acircumflexhookabove">
          -10 21 -21 90 110.5 172.5 135 353 67 hstem
          387 78 vstem
          359 861 rmoveto
          16 12 -6 -16 -18 -19 -28 -32 -23 hvcurveto
          45 -68 52 31 -23 38 rlineto
          41 36 14 20 27 vvcurveto
          44 -37 30 -47 -39 -40 -21 -32 -30 vhcurveto
          24 -38 rlineto
          15 19 25 9 19 hhcurveto
          -213 -292 rmoveto
          15 hlineto
          38 21 38 20 37 21 114 -62 rcurveline
          15 hlineto
          28 63 -52 35 -47 37 -43 38 rlinecurve
          -30 hlineto
          -42 -38 -47 -37 -52 -35 rrcurveto
          399 -632 rmoveto
          -154 508 rlineto
          -180 hlineto
          -170 -508 rlineto
          147 hlineto
          15 89 80 2 93 -2 2 -8 14 -81 rlineto
          -45 201 rmoveto
          -55 -1 -54 1 55 172 rlineto
          9 hlineto
          endchar
        </CharString>
        <CharString name="acircumflextilde">
          -10 21 -21 90 110.5 172.5 135 hstem
          13 504 vstem
          153 742 rmoveto
          12 hlineto
          25 22 17 25 21 hhcurveto
          24 72 -27 -5 45 hvcurveto
          13 5 69 91 rlineto
          13 vlineto
          -43 42 rlineto
          -13 hlineto
          -26 -22 -17 -24 -21 hhcurveto
          -23 -73 26 6 -45 hvcurveto
          -13 -5 -68 -92 rlineto
          -12 vlineto
          149 -42 rmoveto
          -42 -38 -47 -37 -52 -35 28 -63 rcurveline
          15 hlineto
          38 21 38 20 37 21 114 -62 rcurveline
          15 hlineto
          28 63 -52 35 -47 37 -43 38 rlinecurve
          228 -742 rmoveto
          -154 508 rlineto
          -180 hlineto
          -170 -508 rlineto
          147 hlineto
          15 89 80 2 93 -2 2 -8 14 -81 rlineto
          -45 201 rmoveto
          -55 -1 -54 1 55 172 rlineto
          9 hlineto
          endchar
        </CharString>
        <CharString name="acute">
          649 -20 hstem
          65 260 vstem
          268 736 rmoveto
          -14 1 -61 -55 -60 -49 -68 -52 rlinecurve
          37 -60 14 -1 67 36 65 36 74 43 rlinecurve
          3 14 rlineto
          endchar
        </CharString>
        <CharString name="acute.cap">
          537 186 hstem
          58 269 vstem
          287 720 rmoveto
          -14 3 -70 -41 -68 -37 -77 -38 rlinecurve
          25 -66 15 -4 73 23 71 23 80 29 rlinecurve
          5 13 rlineto
          endchar
        </CharString>
        <CharString name="adieresis">
          -10 21 -21 90 110.5 172.5 135 82 149 hstem
          112 146 36 146 vstem
          183 590 rmoveto
          46 29 30 48 44 -26 27 -44 -47 -29 -30 -48 -45 25 -26 46 hvcurveto
          182 hmoveto
          46 29 30 48 44 -26 27 -44 -47 -29 -30 -48 -45 25 -26 46 hvcurveto
          152 -590 rmoveto
          -154 508 rlineto
          -180 hlineto
          -170 -508 rlineto
          147 hlineto
          15 89 80 2 93 -2 2 -8 14 -81 rlineto
          -45 201 rmoveto
          -55 -1 -54 1 55 172 rlineto
          9 hlineto
          endchar
        </CharString>
        <CharString name="adotbelow">
          -10 -210 166 65 -21 90 110.5 172.5 135 hstem
          183 162 vstem
          517 hmoveto
          -154 508 rlineto
          -180 hlineto
          -170 -508 rlineto
          147 hlineto
          15 89 80 2 93 -2 2 -8 14 -81 rlineto
          -45 201 rmoveto
          -55 -1 -54 1 55 172 rlineto
          9 hlineto
          -7 -417 rmoveto
          -52 -32 -34 -52 -51 27 -29 51 51 33 34 53 49 -29 30 -49 hvcurveto
          endchar
        </CharString>
        <CharString name="ae">
          169 0 108 293 107 -11 11 hstemhm
          -7 714 -357 122.5 hintmask 11010000
          707 103 rmoveto
          -8 10 rlineto
          hintmask 11001000
          -140 -5 rlineto
          -82 hlineto
          -9 77 166 41 -12 98 -9 8 -156 -42 -13 111 rlineto
          69 hlineto
          130 -6 rlineto
          hintmask 10110000
          10 102 -9 11 rlineto
          hintmask 11001000
          -401 hlineto
          -250 -508 rlineto
          136 hlineto
          26 85 8 17 176 49 9 -74 4 -77 rlineto
          346 hlineto
          -371 254 rmoveto
          -102 -28 78 156 rlineto
          9 hlineto
          endchar
        </CharString>
        <CharString name="aeacute">
          169 0 108 293 107 -11 11 hstemhm
          -7 714 -357 122.5 hintmask 11010000
          350 560 rmoveto
          14 -1 67 36 65 36 74 43 rlinecurve
          3 14 -57 87 -14 1 -61 -55 -60 -49 -68 -52 rlinecurve
          394 -517 rmoveto
          -8 10 rlineto
          hintmask 11001000
          -140 -5 rlineto
          -82 hlineto
          -9 77 166 41 -12 98 -9 8 -156 -42 -13 111 rlineto
          69 hlineto
          130 -6 rlineto
          hintmask 10110000
          10 102 -9 11 rlineto
          hintmask 11001000
          -401 hlineto
          -250 -508 rlineto
          136 hlineto
          26 85 8 17 176 49 9 -74 4 -77 rlineto
          346 hlineto
          -371 254 rmoveto
          -102 -28 78 156 rlineto
          9 hlineto
          endchar
        </CharString>
        <CharString name="agrave">
          -10 21 -21 90 110.5 172.5 135 hstem
          13 504 vstem
          368 562 rmoveto
          37 60 -68 52 -60 49 -61 55 rlinecurve
          -14 -1 -57 -87 3 -14 74 -43 65 -36 67 -36 rlinecurve
          163 -561 rmoveto
          -154 508 rlineto
          -180 hlineto
          -170 -508 rlineto
          147 hlineto
          15 89 80 2 93 -2 2 -8 14 -81 rlineto
          -45 201 rmoveto
          -55 -1 -54 1 55 172 rlineto
          9 hlineto
          endchar
        </CharString>
        <CharString name="ahookabove">
          -10 21 -21 90 110.5 172.5 135 81 -20 155 70 hstem
          271 82 vstem
          242 724 rmoveto
          16 13 -7 -16 -20 -20 -29 -33 -24 hvcurveto
          47 -72 55 33 -25 40 rlineto
          43 38 15 21 28 vvcurveto
          46 -39 32 -49 -41 -42 -21 -34 -31 vhcurveto
          25 -40 rlineto
          16 20 26 9 20 hhcurveto
          275 -724 rmoveto
          -154 508 rlineto
          -180 hlineto
          -170 -508 rlineto
          147 hlineto
          15 89 80 2 93 -2 2 -8 14 -81 rlineto
          -45 201 rmoveto
          -55 -1 -54 1 55 172 rlineto
          9 hlineto
          endchar
        </CharString>
        <CharString name="amacron">
          -10 21 -21 90 110.5 172.5 135 107 99 hstem
          13 504 vstem
          138 615 rmoveto
          278 hlineto
          8 88 -10 11 rlineto
          -279 hlineto
          -7 -88 rlineto
          389 -626 rmoveto
          -154 508 rlineto
          -180 hlineto
          -170 -508 rlineto
          147 hlineto
          15 89 80 2 93 -2 2 -8 14 -81 rlineto
          -45 201 rmoveto
          -55 -1 -54 1 55 172 rlineto
          9 hlineto
          endchar
        </CharString>
        <CharString name="ampersand">
          152 -12 110 74 110 136 99 195 -20 hstem
          25 131 135 96 vstem
          686 282 rmoveto
          -216 hlineto
          -10 -10 rlineto
          -112 -6 -53 -62 -99 hhcurveto
          -63 -42 25 47 -23 hvcurveto
          233 105 249 211 51 126 -11 39 -20 32 -30 29 rrcurveto
          -13 hlineto
          -48 -107 -88 -103 -110 -85 rrcurveto
          3 vlineto
          56 -43 41 -89 -141 -89 -103 -160 -168 99 -98 168 133 87 62 122 36 vhcurveto
          135 hlineto
          12 98 rlineto
          -445 148 rmoveto
          26 14 -11 -22 1 hvcurveto
          1 -19 -9 -19 -23 -15 -34 -20 -34 -17 -36 -16 rrcurveto
          87 3 33 52 58 hhcurveto
          endchar
        </CharString>
        <CharString name="aogonek">
          -10 -197 85 133 -21 90 110.5 172.5 135 hstemhm
          349 83 hintmask 00000000
          hintmask 11111000
          535 -85 rmoveto
          -9 hlineto
          -17 -20 -21 -10 -19 hhcurveto
          -22 -12 12 20 16 7 23 32 41 hvcurveto
          46 hlineto
          -154 508 rlineto
          -180 hlineto
          -170 -508 rlineto
          147 hlineto
          15 89 80 2 93 -2 2 -8 14 -81 rlineto
          32 hlineto
          -35 -45 -12 -29 -31 vvcurveto
          -54 37 -38 57 36 30 16 33 37 vhcurveto
          -227 349 rmoveto
          -55 -1 -54 1 55 172 rlineto
          9 hlineto
          endchar
        </CharString>
        <CharString name="approxequal">
          -67 70 375 hstem
          31 440 vstem
          161 326 rmoveto
          33 121 -46 -8 57 hvcurveto
          14 5 85 102 rlineto
          14 vlineto
          -41 52 rlineto
          -13 hlineto
          -31 -29 -22 -27 -23 hhcurveto
          -34 -121 44 10 -57 hvcurveto
          -14 -6 -86 -102 rlineto
          -13 vlineto
          42 -52 rlineto
          14 hlineto
          30 28 22 28 24 hhcurveto
          -198 vmoveto
          33 121 -46 -8 57 hvcurveto
          14 5 85 102 rlineto
          14 vlineto
          -41 51 rlineto
          -13 hlineto
          -30 -29 -22 -28 -23 hhcurveto
          -34 -121 45 10 -57 hvcurveto
          -14 -6 -86 -102 rlineto
          -14 vlineto
          42 -51 rlineto
          14 hlineto
          29 28 22 29 24 hhcurveto
          endchar
        </CharString>
        <CharString name="aring">
          -10 21 -21 90 110.5 172.5 135 69 64 72 65 hstem
          173 64 76 64 vstem
          272 577 rmoveto
          66 39 38 67 61 -33 35 -66 -68 -37 -36 -66 -65 36 -34 63 hvcurveto
          2 136 rmoveto
          28 11 -12 -25 -25 -12 -10 -25 -27 -12 11 27 23 11 11 26 hvcurveto
          243 -713 rmoveto
          -154 508 rlineto
          -180 hlineto
          -170 -508 rlineto
          147 hlineto
          15 89 80 2 93 -2 2 -8 14 -81 rlineto
          -45 201 rmoveto
          -55 -1 -54 1 55 172 rlineto
          9 hlineto
          endchar
        </CharString>
        <CharString name="aringacute">
          -10 21 -21 90 110.5 172.5 135 68 64 72 65 hstem
          174 64 76 64 vstem
          180 796 rmoveto
          14 -6 76 12 73 12 84 17 rlinecurve
          7 13 -26 99 -13 5 -76 -30 -72 -26 -82 -27 rlinecurve
          9 -190 rmoveto
          -65 36 -34 63 66 39 38 67 61 -33 35 -66 -68 -37 -36 -66 vhcurveto
          140 hmoveto
          -25 -12 -10 -25 -27 -12 11 27 23 11 11 26 28 11 -12 -25 vhcurveto
          203 -675 rmoveto
          -154 508 rlineto
          -180 hlineto
          -170 -508 rlineto
          147 hlineto
          15 89 80 2 93 -2 2 -8 14 -81 rlineto
          -45 201 rmoveto
          -55 -1 -54 1 55 172 rlineto
          9 hlineto
          endchar
        </CharString>
        <CharString name="arrowdown">
          -8 12 -21 481 -20 26 -20 hstemhm
          218 102.5 hintmask 10110000
          487 189 rmoveto
          -19 87 rlineto
          -20 hlineto
          -131 -124 rlineto
          hintmask 11010000
          7 320 rlineto
          hintmask 10110000
          -98 6 -11 -10 6 -315 -130 123 rlineto
          -20 hlineto
          -19 -87 206 -198 rlineto
          24 hlineto
          endchar
        </CharString>
        <CharString name="arrowdownleft">
          -8 51.5 89 hstem
          91 88.5 vstem
          429 138 rmoveto
          -179 5 231 221 -66 74 -15 1 -218 -228 -5 179 -14 14 -75 -47 6 -287 16 -16 286 -5 48 74 rlineto
          endchar
        </CharString>
        <CharString name="arrowdownright">
          -8 46.5 89 hstem
          359 89 vstem
          450 352 rmoveto
          -74 47 -14 -14 -6 -179 -221 231 -73 -66 -1 -15 227 -218 -179 -5 -14 -15 48 -74 286 5 17 17 rlineto
          endchar
        </CharString>
        <CharString name="arrowleft">
          -8 187.5 103 hstem
          24 487 vstem
          506 184 rmoveto
          5 98 -10 12 -315 -7 123 130 rlineto
          20 vlineto
          -86 19 -199 -206 rlineto
          -24 vlineto
          199 -205 86 19 rlineto
          20 vlineto
          -123 131 rlineto
          endchar
        </CharString>
        <CharString name="arrowright">
          -8 187.5 103 hstem
          27 487 vstem
          514 252 rmoveto
          -198 205 -87 -19 rlineto
          -20 vlineto
          124 -131 -320 7 -6 -98 10 -12 316 7 -124 -130 rlineto
          -20 vlineto
          87 -19 198 206 rlineto
          endchar
        </CharString>
        <CharString name="arrowup">
          -8 21 -21 hstem
          219.5 103 vstem
          488 288 rmoveto
          -206 199 rlineto
          -24 hlineto
          -205 -199 19 -86 rlineto
          20 hlineto
          131 123 -7 -320 98 -5 12 10 -7 315 130 -123 rlineto
          20 hlineto
          endchar
        </CharString>
        <CharString name="arrowupleft">
          -8 337.5 88.5 hstem
          90 89 vstem
          477 117 rmoveto
          -228 218 180 5 14 14 -48 75 -286 -6 -17 -16 -4 -286 74 -48 14 15 6 179 221 -231 73 66 rlineto
          endchar
        </CharString>
        <CharString name="arrowupright">
          -8 341.5 89 hstem
          359.5 88.5 vstem
          451 125 rmoveto
          -6 287 -16 16 -286 5 -48 -74 15 -15 179 -5 -231 -221 66 -74 15 -1 218 228 5 -179 14 -14 rlineto
          endchar
        </CharString>
        <CharString name="asciicircum">
          -98 390 109 hstem
          15 420 vstem
          435 152 rmoveto
          -140 347 rlineto
          -127 hlineto
          -15 -9 -138 -346 90 -33 11 7 108 272 rlineto
          8 hlineto
          104 -272 88 21 rlineto
          endchar
        </CharString>
        <CharString name="asciitilde">
          -67 168 177 hstem
          20 440 vstem
          150 226 rmoveto
          33 121 -45 -8 57 hvcurveto
          14 5 85 102 rlineto
          13 vlineto
          -41 52 rlineto
          -13 hlineto
          -31 -29 -22 -27 -23 hhcurveto
          -34 -121 45 10 -57 hvcurveto
          -14 -7 -86 -101 rlineto
          -14 vlineto
          42 -52 rlineto
          14 hlineto
          30 28 22 28 24 hhcurveto
          endchar
        </CharString>
        <CharString name="asterisk">
          513 -20 62.5 88.5 0 -20 hstemhm
          22 356 hintmask 10110000
          248 737 rmoveto
          -5 9 -30 -1 -30 -5 -25 -9 rlinecurve
          4 -117 8 -7 46 5 rlineto
          -66 -10 rmoveto
          -106 70 -10 -3 rlineto
          -8 -29 -4 -31 -26 vvcurveto
          110 -31 10 4 rlineto
          hintmask 11010000
          89 47 rmoveto
          -5 -10 21 -41 125 7 6 7 -10 29 -15 27 -15 22 rlinecurve
          -96 -110 rmoveto
          -11 1 -33 -31 45 -121 9 -3 24 19 21 20 16 23 rlinecurve
          -134 71 rmoveto
          -41 21 -97 -81 -1 -11 26 -15 27 -15 26 -7 rlinecurve
          61 97 rlineto
          endchar
        </CharString>
        <CharString name="at">
          306 -216 87 129 127 -112 -21 27 -21 547 98 hstemhm
          24 105 87 128 390 102 hintmask 10011111
          836 318 rmoveto
          203 -141 124 -215 -275 -181 -199 -262 -256 179 -143 269 -1 vhcurveto
          42 73 -6 14 rlineto
          -227 -152 121 210 195 131 144 201 6 hvcurveto
          167 5 106 -93 -146 vvcurveto
          -109 -57 -79 -93 -17 vhcurveto
          5 vlineto
          47 343 -11 7 -84 -22 -84 18 rlineto
          -5 hlineto
          -159 -44 -72 -140 -122 vvcurveto
          hintmask 10101111
          -78 26 -54 87 -27 vhcurveto
          19 hlineto
          38 41 33 49 28 51 rrcurveto
          14 hlineto
          hintmask 10011111
          -19 -135 rlineto
          252 3 142 112 203 vvcurveto
          hintmask 11001111
          -469 -191 rmoveto
          -13 -10 20 60 90 28 59 52 hvcurveto
          64 -19 -2 -19 rlineto
          -130 -55 -44 -61 -20 hhcurveto
          endchar
        </CharString>
        <CharString name="atilde">
          -10 21 -21 90 110.5 172.5 135 196 -20 29 -20 hstemhm
          13 504 hintmask 11101100
          137 576 rmoveto
          14 hlineto
          28 24 18 26 23 hhcurveto
          26 79 -28 -7 49 hvcurveto
          14 6 74 99 rlineto
          13 vlineto
          hintmask 11110100
          -46 46 rlineto
          -14 hlineto
          -28 -24 -18 -27 -23 hhcurveto
          -26 -79 29 6 -49 hvcurveto
          -14 -5 -74 -99 rlineto
          -13 vlineto
          426 -622 rmoveto
          -154 508 rlineto
          -180 hlineto
          -170 -508 rlineto
          147 hlineto
          15 89 80 2 93 -2 2 -8 14 -81 rlineto
          -45 201 rmoveto
          -55 -1 -54 1 55 172 rlineto
          9 hlineto
          endchar
        </CharString>
        <CharString name="b">
          -13 -5 102 -76 -21 202 99 104 104 hstemhm
          68.5 143 112.5 156 -136 155 hintmask 10111010
          398 262 rmoveto
          hintmask 01111100
          52 23 30 42 52 vvcurveto
          85 -72 45 -117 vhcurveto
          -226 -1 7 -359 -7 -149 rlineto
          hintmask 10111010
          -3 55 75 -2 40 hhcurveto
          172 92 45 106 60 -31 37 -70 19 hvcurveto
          hintmask 10111100
          -74 95 rmoveto
          -33 -16 -15 -33 -9 vhcurveto
          -65 2 3 103 rlineto
          15 hlineto
          74 22 -10 -38 hvcurveto
          hintmask 10111010
          -62 -260 rmoveto
          -13 -19 1 3 -21 hvcurveto
          -2 63 1 37 82 2 rlineto
          37 -11 17 -14 -25 vvcurveto
          -38 -31 -18 -51 vhcurveto
          endchar
        </CharString>
        <CharString name="b.sups">
          -176 319 74 164 92 -50 -20 70 -20 hstemhm
          40 114 88 110 hintmask 10111100
          225 649 rmoveto
          -26 -8 -24 -18 -20 -24 rrcurveto
          -3 hlineto
          4 204 -118 -8 4 -339 -4 -125 10 -11 50 15 rlineto
          -10 31 31 -6 29 hhcurveto
          99 64 61 114 98 -46 57 -81 hvcurveto
          -45 -256 rmoveto
          -8 -10 2 3 -11 hvcurveto
          hintmask 11001100
          -1 73 1 73 rlineto
          8 13 12 5 13 hhcurveto
          36 17 -27 -51 hvcurveto
          hintmask 10111100
          -64 -24 -22 -38 vhcurveto
          endchar
        </CharString>
        <CharString name="backslash">
          -265 668 13 hstem
          -17 326 vstem
          102 681 rmoveto
          -107 hlineto
          -12 -13 207 -784 rlineto
          109 hlineto
          10 12 rlineto
          endchar
        </CharString>
        <CharString name="bar">
          -243 -258 1064 hstem
          91.5 119 vstem
          214 795 rmoveto
          -11 11 -110 -9 -1 -517 -1 -524 12 -14 108 9 -1 541 rlineto
          endchar
        </CharString>
        <CharString name="braceleft">
          -249 -113 95 580 96 hstemhm
          32 121 -79 124 -103 127 hintmask 11010000
          219 658 rmoveto
          -94 -51 -44 -77 hvcurveto
          hintmask 11001000
          -58 21 -55 -40 vvcurveto
          hintmask 11100000
          -37 -21 -25 -42 -14 vhcurveto
          -72 vlineto
          hintmask 11001000
          42 -13 21 -26 -36 vvcurveto
          hintmask 11010000
          -41 -21 -55 -58 vvcurveto
          -76 51 -44 94 25 23 3 7 23 vhcurveto
          6 11 -13 79 rlineto
          -3 -12 -10 -2 -12 hhcurveto
          -34 -17 20 37 hvcurveto
          hintmask 11001000
          39 24 47 43 vvcurveto
          hintmask 11100000
          42 -23 38 -46 21 vhcurveto
          6 vlineto
          hintmask 11001000
          46 21 23 37 45 vvcurveto
          hintmask 11010000
          40 -24 49 39 vvcurveto
          36 17 20 34 12 10 -2 -3 12 vhcurveto
          13 79 -6 11 rlineto
          7 -23 -23 4 -25 hhcurveto
          endchar
        </CharString>
        <CharString name="braceright">
          -249 -113 96 579 96 hstemhm
          75 127 -102 124 -80 122 hintmask 11010000
          79 -113 rmoveto
          94 51 44 76 hvcurveto
          hintmask 11100000
          58 -22 55 41 vvcurveto
          hintmask 11001000
          36 21 26 43 13 vhcurveto
          73 vlineto
          hintmask 11100000
          -43 13 -21 25 37 vvcurveto
          hintmask 11010000
          41 22 54 58 vvcurveto
          77 -51 44 -94 -26 -22 -4 -7 -23 vhcurveto
          -6 -11 12 -79 rlineto
          3 12 11 2 12 hhcurveto
          33 18 -19 -37 hvcurveto
          hintmask 11100000
          -40 -25 -47 -42 vvcurveto
          hintmask 11001000
          -43 24 -38 45 -21 vhcurveto
          -6 vlineto
          hintmask 11100000
          -45 -21 -24 -37 -45 vvcurveto
          hintmask 11010000
          -39 25 -50 -38 vvcurveto
          -37 -18 -19 -33 -12 -11 2 3 -12 vhcurveto
          -12 -80 6 -11 rlineto
          -6 23 22 -4 26 hhcurveto
          endchar
        </CharString>
        <CharString name="bracketleft">
          -249 556 92 0 -20 hstemhm
          75.5 124.5 95 7 hintmask 01110000
          302 640 rmoveto
          -7 8 -224 -10 9 -376 -9 -377 224 -10 7 8 rlineto
          71 vlineto
          -102 13 rlineto
          hintmask 10110000
          589 vlineto
          102 14 rlineto
          endchar
        </CharString>
        <CharString name="bracketright">
          -249 556 92 0 -20 hstemhm
          98 124 hintmask 01100000
          -4 -117 rmoveto
          6 -8 224 10 -8 377 8 376 -224 10 -6 -7 rlineto
          hintmask 10100000
          -71 vlineto
          102 -14 rlineto
          -588 vlineto
          -102 -14 rlineto
          endchar
        </CharString>
        <CharString name="breve">
          532 111 70 -20 hstem
          33 323 vstem
          322 713 rmoveto
          -23 hlineto
          -46 -17 -38 -24 -49 hhcurveto
          -49 -38 24 46 -19 hvcurveto
          -22 hlineto
          -34 -51 rlineto
          -66 17 47 -64 93 hhcurveto
          94 52 61 69 20 hvcurveto
          endchar
        </CharString>
        <CharString name="breve.cap">
          541 110 4 -20 69 -20 hstemhm
          33 323 hintmask 10110000
          322 704 rmoveto
          -23 hlineto
          -34 -19 -36 -19 -47 hhcurveto
          -50 -38 19 34 -20 hvcurveto
          -22 hlineto
          -34 -49 rlineto
          -73 25 56 -41 78 hhcurveto
          hintmask 01110000
          79 58 41 73 27 hvcurveto
          endchar
        </CharString>
        <CharString name="breveacute">
          521 110 77 -20 hstem
          33 323 vstem
          319 798 rmoveto
          -73 47 -11 -3 -30 -46 -32 -44 -32 -44 rlinecurve
          48 -38 13 3 41 37 39 37 39 39 rlinecurve
          1 -102 rmoveto
          -23 hlineto
          -34 -19 -36 -19 -47 hhcurveto
          -50 -38 19 34 -20 hvcurveto
          -22 hlineto
          -34 -49 rlineto
          -73 25 56 -41 78 hhcurveto
          79 58 41 73 27 hvcurveto
          endchar
        </CharString>
        <CharString name="brevegrave">
          521 110 77 -20 hstem
          33 323 vstem
          145 845 rmoveto
          -73 -47 -2 -12 39 -39 39 -37 41 -37 rlinecurve
          13 -3 48 38 -32 44 -32 44 -30 46 rlinecurve
          166 -158 rmoveto
          -23 hlineto
          -34 -19 -36 -19 -47 hhcurveto
          -50 -38 19 34 -20 hvcurveto
          -22 hlineto
          -34 -49 rlineto
          -73 25 56 -41 78 hhcurveto
          79 58 41 73 27 hvcurveto
          endchar
        </CharString>
        <CharString name="brevehookabove">
          521 110 201 70 hstem
          194 82 vstem
          188 902 rmoveto
          -41 -42 -21 -34 -31 hvcurveto
          25 -40 rlineto
          16 20 26 9 20 hhcurveto
          16 13 -7 -16 -20 -20 -29 -33 -24 hvcurveto
          47 -72 55 33 -25 40 rlineto
          43 38 15 21 28 vvcurveto
          46 -39 32 -49 vhcurveto
          134 -218 rmoveto
          -23 hlineto
          -34 -19 -36 -19 -47 hhcurveto
          -50 -38 19 34 -20 hvcurveto
          -22 hlineto
          -34 -49 rlineto
          -73 25 56 -41 78 hhcurveto
          79 58 41 73 27 hvcurveto
          endchar
        </CharString>
        <CharString name="brevetilde">
          522 103 hstem
          29 338 vstem
          367 828 rmoveto
          -43 42 rlineto
          -13 hlineto
          -26 -22 -17 -24 -21 hhcurveto
          -23 -73 26 6 -45 hvcurveto
          -13 -5 -68 -92 rlineto
          -12 vlineto
          43 -42 rlineto
          12 hlineto
          25 22 17 25 21 hhcurveto
          24 72 -27 -5 45 hvcurveto
          13 5 69 91 rlineto
          -49 -139 rmoveto
          -21 hlineto
          -33 -18 -34 -18 -44 hhcurveto
          -48 -36 18 33 -18 hvcurveto
          -21 hlineto
          -33 -47 rlineto
          -69 24 53 -38 73 hhcurveto
          75 55 38 69 26 hvcurveto
          endchar
        </CharString>
        <CharString name="brokenbar">
          -243 -258 1064 hstem
          92 120.5 vstem
          214 795 rmoveto
          -11 11 -111 -9 rlineto
          -422 vlineto
          11 -10 108 14 rlineto
          -1 -232 rmoveto
          -12 14 -106 -13 -1 -392 12 -14 108 9 rlineto
          endchar
        </CharString>
        <CharString name="bullet">
          -260 143 215 hstem
          38 210 vstem
          148 358 rmoveto
          -68 -42 -44 -68 -66 36 -37 65 67 42 43 69 65 -37 38 -63 hvcurveto
          endchar
        </CharString>
        <CharString name="bulletoperator">
          -260 143 215 hstem
          37 211 vstem
          147 358 rmoveto
          -68 -42 -44 -68 -66 36 -37 66 67 42 43 69 65 -37 38 -64 hvcurveto
          endchar
        </CharString>
        <CharString name="c">
          -96 -9 125 278 122 0 -20 hstemhm
          27 158 hintmask 11010000
          299 516 rmoveto
          -174 -98 -97 -170 -166 88 -92 174 42 40 5 12 40 hvcurveto
          13 122 -13 8 rlineto
          -14 -32 -44 -8 -35 hhcurveto
          -77 -38 47 103 92 35 36 71 37 43 -11 -18 29 hvcurveto
          11 6 rlineto
          hintmask 10110000
          26 123 rlineto
          hintmask 11010000
          14 -40 -46 8 -52 hhcurveto
          endchar
        </CharString>
        <CharString name="c.sups">
          -279 319 93 146 95 0 -20 hstemhm
          19 112 hintmask 11010000
          181 653 rmoveto
          -102 -60 -63 -109 -102 52 -60 89 30 29 4 8 27 hvcurveto
          12 86 -9 7 rlineto
          -8 -24 -19 -4 -18 hhcurveto
          -38 -19 26 56 43 17 21 33 18 16 -7 -10 21 hvcurveto
          8 5 rlineto
          hintmask 10110000
          20 89 rlineto
          hintmask 11010000
          11 -23 -30 7 -30 hhcurveto
          endchar
        </CharString>
        <CharString name="cacute">
          -96 -9 125 278 122 0 -20 hstemhm
          27 159 hintmask 11010000
          370 777 rmoveto
          -14 1 -61 -55 -60 -49 -68 -52 rlinecurve
          37 -60 14 -1 67 36 65 36 74 43 rlinecurve
          3 14 rlineto
          -128 -174 rmoveto
          -173 -99 -97 -170 -166 88 -92 175 41 40 5 12 41 hvcurveto
          12 122 -13 8 rlineto
          -14 -31 -45 -8 -34 hhcurveto
          -78 -37 47 103 92 34 36 72 36 43 -11 -18 30 hvcurveto
          11 6 rlineto
          hintmask 10110000
          25 123 rlineto
          hintmask 11010000
          14 -40 -46 8 -52 hhcurveto
          endchar
        </CharString>
        <CharString name="caron">
          525 204 hstem
          28 331 vstem
          320 729 rmoveto
          -16 hlineto
          -42 -31 -39 -29 -30 -26 -29 26 -39 29 -43 31 rrcurveto
          -15 hlineto
          -39 -59 52 -47 53 -51 45 -47 rlinecurve
          31 hlineto
          52 53 52 51 46 41 rrcurveto
          endchar
        </CharString>
        <CharString name="caron.alt">
          502 233 hstem
          135 122 vstem
          257 726 rmoveto
          -9 9 -113 -6 5 -218 11 -9 68 11 rlineto
          endchar
        </CharString>
        <CharString name="caron.cap">
          648 -20 21 -20 82 -20 hstemhm
          37 313 hintmask 01110000
          322 711 rmoveto
          -15 hlineto
          -38 -21 -38 -20 -37 -21 -114 62 rcurveline
          -15 hlineto
          hintmask 10110000
          -28 -63 52 -35 47 -37 43 -38 rlinecurve
          30 hlineto
          42 38 47 37 52 35 rrcurveto
          endchar
        </CharString>
        <CharString name="ccaron">
          -96 -9 125 278 122 0 -20 215 -20 hstemhm
          27 159 hintmask 11011000
          401 770 rmoveto
          -16 hlineto
          -42 -31 -39 -29 -30 -26 -29 26 -39 29 -43 31 rrcurveto
          -15 hlineto
          -39 -59 52 -47 53 -51 45 -47 rlinecurve
          31 hlineto
          52 53 52 51 46 41 rrcurveto
          -141 -195 rmoveto
          -173 -99 -97 -170 -166 88 -92 175 41 40 5 12 41 hvcurveto
          12 122 -13 8 rlineto
          -14 -31 -45 -8 -34 hhcurveto
          -78 -37 47 103 92 34 36 72 36 43 -11 -18 30 hvcurveto
          11 6 rlineto
          hintmask 10111000
          25 123 rlineto
          hintmask 11011000
          14 -40 -46 8 -52 hhcurveto
          endchar
        </CharString>
        <CharString name="ccedilla">
          -96 -203 64 130 125 -104 -21 25 -21 399 122 0 -20 hstemhm
          27 159 96 90 hintmask 00000000
          hintmask 11001010
          301 116 rmoveto
          -78 -37 47 103 92 34 36 72 36 43 -11 -18 30 hvcurveto
          11 6 rlineto
          hintmask 10010110
          25 123 rlineto
          hintmask 10011011
          14 -40 -46 8 -52 hhcurveto
          -173 -99 -97 -170 -147 69 -89 137 -18 hvcurveto
          -15 -71 49 -27 rlineto
          10 -5 5 -5 -8 vvcurveto
          -12 -7 -6 -14 -17 -22 10 19 -20 vhcurveto
          -7 -3 -10 -64 rlineto
          -15 24 28 -11 34 hhcurveto
          63 38 33 45 hvcurveto
          hintmask 10101011
          24 -10 20 -32 17 vhcurveto
          -34 19 8 36 36 1 36 5 36 11 rlinecurve
          hintmask 11001010
          12 122 -13 8 rlineto
          -14 -31 -45 -8 -34 hhcurveto
          endchar
        </CharString>
        <CharString name="ccircumflex">
          -96 -9 125 278 122 0 -20 hstemhm
          27 159 hintmask 11010000
          148 569 rmoveto
          16 hlineto
          42 31 39 29 30 26 29 -26 39 -29 43 -31 rrcurveto
          15 hlineto
          39 59 -52 47 -53 51 -45 47 rlinecurve
          -31 hlineto
          -52 -53 -52 -51 -46 -41 rrcurveto
          190 -112 rmoveto
          -173 -99 -97 -170 -166 88 -92 175 41 40 5 12 41 hvcurveto
          12 122 -13 8 rlineto
          -14 -31 -45 -8 -34 hhcurveto
          -78 -37 47 103 92 34 36 72 36 43 -11 -18 30 hvcurveto
          11 6 rlineto
          hintmask 10110000
          25 123 rlineto
          hintmask 11010000
          14 -40 -46 8 -52 hhcurveto
          endchar
        </CharString>
        <CharString name="cdotaccent">
          -96 -9 125 278 122 0 -20 87 166 hstemhm
          27 159 8 162 hintmask 00000000
          hintmask 11011100
          278 749 rmoveto
          -52 -32 -34 -52 -51 27 -29 51 51 33 34 53 49 -29 30 -49 hvcurveto
          21 -233 rmoveto
          hintmask 11011000
          -173 -99 -97 -170 -166 88 -92 175 41 40 5 12 41 hvcurveto
          12 122 -13 8 rlineto
          -14 -31 -45 -8 -34 hhcurveto
          -78 -37 47 103 92 34 36 72 36 43 -11 -18 30 hvcurveto
          11 6 rlineto
          hintmask 10111000
          25 123 rlineto
          hintmask 11011100
          14 -40 -46 8 -52 hhcurveto
          endchar
        </CharString>
        <CharString name="cedilla">
          -204 64 hstemhm
          201 90 hintmask 00000000
          hintmask 11000000
          215 -46 rmoveto
          16 75 rlineto
          -71 hlineto
          -23 -106 49 -27 rlineto
          10 -5 5 -5 -8 vvcurveto
          -12 -7 -6 -14 -17 -22 10 19 -20 vhcurveto
          -7 -3 -10 -64 rlineto
          -15 24 28 -11 34 hhcurveto
          63 38 33 45 24 -10 20 -32 17 hvcurveto
          endchar
        </CharString>
        <CharString name="cent">
          -165 -126 12 624 -20 22 -20 153 -20 20 14 hstemhm
          23 151 -14.5 118 -82.5 119 hintmask 10110100
          265 152 rmoveto
          -60 -31 44 86 70 28 37 53 hvcurveto
          hintmask 10101101
          27 26 -10 -15 32 hvcurveto
          12 5 26 124 -20 9 -23 6 -25 4 rlinecurve
          8 133 -16 14 rlineto
          -103 hlineto
          hintmask 11010101
          -8 -149 rlineto
          hintmask 11010100
          -107 -24 -61 -87 -133 vvcurveto
          -123 51 -81 90 -25 vhcurveto
          hintmask 10110010
          -9 -151 12 -12 rlineto
          106 hlineto
          9 157 25 3 24 5 23 6 rlinecurve
          16 119 -12 9 rlineto
          hintmask 10110100
          -13 -35 -30 -8 -28 hhcurveto
          endchar
        </CharString>
        <CharString name="circle1">
          -82 9 -21 hstem
          -5 476 vstem
          233 464 rmoveto
          -131 -107 -107 -131 -131 107 -107 131 131 107 107 131 131 -107 107 -131 hvcurveto
          endchar
        </CharString>
        <CharString name="circle2">
          97 649 -20 hstem
          -10 663 vstem
          321 649 rmoveto
          -183 -148 -149 -183 -183 148 -148 183 183 149 148 183 183 -149 149 -183 hvcurveto
          endchar
        </CharString>
        <CharString name="circumflex">
          587 -20 hstem
          28 331 vstem
          67 528 rmoveto
          16 hlineto
          42 30 39 30 30 26 29 -26 39 -30 43 -30 rrcurveto
          15 hlineto
          39 59 -52 46 -53 52 -45 47 rlinecurve
          -31 hlineto
          -52 -54 -52 -51 -46 -40 rrcurveto
          endchar
        </CharString>
        <CharString name="circumflex.cap">
          548 172 hstem
          37 313 vstem
          65 548 rmoveto
          15 hlineto
          38 20 38 21 37 21 38 -21 38 -21 38 -20 rrcurveto
          15 hlineto
          28 62 -52 36 -47 36 -43 38 rlinecurve
          -30 hlineto
          -42 -38 -47 -36 -52 -36 rrcurveto
          endchar
        </CharString>
        <CharString name="circumflexacute">
          590 -20 130 -20 22 -20 hstemhm
          37 378 hintmask 10110000
          411 807 rmoveto
          -79 34 -11 -5 -70 -134 53 -40 rlineto
          10 hlineto
          101 134 rlineto
          -350 -268 rmoveto
          15 hlineto
          38 20 38 21 37 21 38 -21 38 -21 38 -20 rrcurveto
          15 hlineto
          28 62 rlineto
          hintmask 11010000
          -52 36 -47 36 -43 38 rrcurveto
          -30 hlineto
          -42 -38 -47 -36 -52 -36 rrcurveto
          endchar
        </CharString>
        <CharString name="circumflexgrave">
          590 -20 130 -20 hstem
          37 331 vstem
          298 836 rmoveto
          -11 5 -79 -34 -4 -11 101 -134 rlineto
          10 hlineto
          53 40 rlineto
          -303 -174 rmoveto
          15 hlineto
          38 20 38 21 37 21 38 -21 38 -21 38 -20 rrcurveto
          15 hlineto
          28 62 -52 36 -47 36 -43 38 rlinecurve
          -30 hlineto
          -42 -38 -47 -36 -52 -36 rrcurveto
          endchar
        </CharString>
        <CharString name="circumflexhookabove">
          590 -20 130 -20 140 67 hstem
          306 78 vstem
          300 887 rmoveto
          -39 -40 -21 -32 -29 hvcurveto
          23 -38 rlineto
          15 20 25 9 18 hhcurveto
          16 12 -6 -16 -18 -19 -28 -31 -23 hvcurveto
          45 -68 52 31 -24 38 rlineto
          41 36 14 20 27 vvcurveto
          44 -37 30 -47 vhcurveto
          -235 -359 rmoveto
          15 hlineto
          38 20 38 21 37 21 38 -21 38 -21 38 -20 rrcurveto
          15 hlineto
          28 62 -52 36 -47 36 -43 38 rlinecurve
          -30 hlineto
          -42 -38 -47 -36 -52 -36 rrcurveto
          endchar
        </CharString>
        <CharString name="circumflextilde">
          590 -20 130 -20 hstem
          29 338 vstem
          367 828 rmoveto
          -43 42 rlineto
          -13 hlineto
          -26 -22 -17 -24 -21 hhcurveto
          -23 -73 26 6 -45 hvcurveto
          -13 -5 -68 -92 rlineto
          -12 vlineto
          43 -42 rlineto
          12 hlineto
          25 22 17 25 21 hhcurveto
          24 72 -27 -5 45 hvcurveto
          13 5 69 91 rlineto
          -302 -287 rmoveto
          15 hlineto
          38 20 38 21 37 21 38 -21 38 -21 38 -20 rrcurveto
          15 hlineto
          28 62 -52 36 -47 36 -43 38 rlinecurve
          -30 hlineto
          -42 -38 -47 -36 -52 -36 rrcurveto
          endchar
        </CharString>
        <CharString name="colon">
          -319 -8 166 94 165 hstem
          28 162 vstem
          113 417 rmoveto
          -53 -32 -33 -53 -50 28 -29 50 52 32 33 53 50 -28 29 -49 hvcurveto
          -259 vmoveto
          -53 -32 -34 -52 -51 28 -29 50 52 32 34 53 49 -28 30 -49 hvcurveto
          endchar
        </CharString>
        <CharString name="comma">
          -319 -133 286 hstem
          67 129 vstem
          150 153 rmoveto
          -41 -11 -38 -17 -36 -20 -1 -14 rcurveline
          22 -20 11 -20 -26 vvcurveto
          -38 -19 -33 -37 -31 vhcurveto
          1 -12 51 -44 rlineto
          91 64 42 61 67 vvcurveto
          37 -15 30 -31 27 vhcurveto
          endchar
        </CharString>
        <CharString name="commaaccent">
          -547 -66 -21 hstem
          71 114 vstem
          145 -33 rmoveto
          -36 -10 -34 -14 -32 -19 rrcurveto
          -11 vlineto
          19 -18 9 -18 -23 vvcurveto
          -33 -16 -29 -33 -28 vhcurveto
          2 -10 44 -39 rlineto
          80 56 37 54 59 vvcurveto
          33 -13 26 -27 24 vhcurveto
          endchar
        </CharString>
        <CharString name="copyright">
          141 -12 52 88 85 166 85 82 52 hstem
          42 53 96 110 291 53 vstem
          343 598 rmoveto
          -180 -121 -122 -183 -183 121 -122 180 182 120 122 183 183 -120 122 -182 hvcurveto
          -52 vmoveto
          149 100 -102 -151 -151 -100 -102 -149 -148 -100 102 151 151 100 102 148 hvcurveto
          26 -82 rmoveto
          -114 -64 -63 -108 -107 56 -58 116 23 26 1 8 26 hvcurveto
          8 82 -9 4 rlineto
          -6 -19 -28 -4 -19 hhcurveto
          -49 -21 29 62 55 19 20 45 20 27 -5 -10 19 hvcurveto
          6 4 19 83 rlineto
          8 -27 -29 5 -31 hhcurveto
          endchar
        </CharString>
        <CharString name="currency">
          -113 181 84 160 84 0 -20 hstemhm
          61 84 160 84 hintmask 11011000
          439 496 rmoveto
          -72 69 -14 -3 -59 -70 rlineto
          10 -21 -23 7 -25 hhcurveto
          -27 -25 -7 -13 -22 hvcurveto
          hintmask 10111000
          -62 70 -13 1 -68 -72 2 -14 69 -58 rlineto
          -11 -21 -7 -24 -26 vvcurveto
          -27 7 -26 13 -22 vhcurveto
          -69 -60 -1 -14 73 -68 14 2 57 69 rlineto
          -11 21 24 -7 25 hhcurveto
          28 27 7 14 22 hvcurveto
          61 -70 rlineto
          13 hlineto
          69 72 -3 15 -70 57 rlineto
          10 21 7 23 25 vvcurveto
          hintmask 11011000
          27 -7 26 -13 23 vhcurveto
          70 62 rlineto
          -214 -58 rmoveto
          48 32 -32 -48 -48 -32 -32 -48 -48 -32 32 48 48 32 32 48 hvcurveto
          endchar
        </CharString>
        <CharString name="d">
          25 -7 113 -85 -21 393 119 hstemhm
          68.5 143.5 177 156 hintmask 10111000
          65 508 rmoveto
          7 -359 rlineto
          hintmask 01111000
          -7 -149 rlineto
          hintmask 10111000
          -4 62 86 -3 51 hhcurveto
          181 100 100 181 153 -87 85 -158 hvcurveto
          -9 -406 rmoveto
          -17 -36 3 4 -27 hvcurveto
          -2 51 6 226 rlineto
          2 26 30 1 16 hhcurveto
          72 30 -40 -115 -97 -38 -35 -60 hvcurveto
          endchar
        </CharString>
        <CharString name="d.sups">
          -172 321 88 163 80 -3 -20 hstemhm
          19 110 88 111 hintmask 11011000
          333 803 rmoveto
          -117 -8 rlineto
          hintmask 10111000
          2 -146 rlineto
          hintmask 11011000
          1 -13 -11 2 -8 hhcurveto
          -102 -65 -58 -113 -98 52 -62 85 hvcurveto
          24 9 23 16 19 21 rrcurveto
          5 hlineto
          -36 12 19 -10 31 hhcurveto
          23 20 5 14 18 hvcurveto
          13 61 -8 7 rlineto
          -3 -6 -5 0 -4 hhcurveto
          -8 -4 6 12 hvcurveto
          -144 149 rmoveto
          11 12 -1 -4 11 hvcurveto
          3 -138 rlineto
          -13 -15 -14 -7 -15 hhcurveto
          -31 -17 26 61 58 17 18 38 hvcurveto
          endchar
        </CharString>
        <CharString name="dagger">
          -36 -73 -21 28 -21 398 105 176 -20 hstemhm
          199 107 hintmask 01111000
          465 311 rmoveto
          8 94 -10 11 rlineto
          -156 hlineto
          2 167 -9 9 -100 -8 -1 -168 rlineto
          -153 hlineto
          -7 -94 10 -11 rlineto
          150 -31 hlineto
          hintmask 10111000
          -363 vlineto
          10 -11 rlineto
          hintmask 01111000
          97 7 rlineto
          377 vlineto
          21 vlineto
          endchar
        </CharString>
        <CharString name="daggerdbl">
          -36 -73 -21 28 -21 148 105 158 105 163 -20 hstemhm
          199 107 hintmask 01111100
          463 166 rmoveto
          -157 124 hlineto
          34 159 vlineto
          8 95 -10 10 rlineto
          -156 hlineto
          2 154 -9 9 -100 -8 -1 -155 rlineto
          -153 hlineto
          -7 -94 10 -11 rlineto
          150 -44 hlineto
          -114 -153 vlineto
          -7 -94 10 -11 rlineto
          150 hlineto
          hintmask 10111100
          -144 vlineto
          10 -11 rlineto
          hintmask 01111100
          97 7 rlineto
          148 159 vlineto
          8 95 rlineto
          endchar
        </CharString>
        <CharString name="dcaron">
          25 -7 113 -85 -21 393 119 199 -20 hstemhm
          68.5 143.5 177 157 hintmask 10111100
          287 566 rmoveto
          52 53 52 51 46 41 -39 59 rcurveline
          -16 hlineto
          -42 -31 -39 -29 -30 -26 -29 26 -39 29 -43 31 rrcurveto
          -15 hlineto
          -39 -59 52 -47 53 -51 45 -47 rlinecurve
          -191 -58 rmoveto
          7 -359 rlineto
          hintmask 01111100
          -7 -149 rlineto
          hintmask 10111100
          -4 62 87 -3 50 hhcurveto
          181 101 100 181 153 -88 85 -158 hvcurveto
          -8 -406 rmoveto
          -17 -36 3 4 -28 hvcurveto
          -2 51 6 226 rlineto
          2 26 30 1 17 hhcurveto
          72 29 -40 -115 -97 -37 -35 -60 hvcurveto
          endchar
        </CharString>
        <CharString name="dcroat">
          25 -7 113 -85 -21 393 119 103 99 hstemhm
          68.5 143.5 177 157 hintmask 10111100
          133 615 rmoveto
          278 hlineto
          8 88 -10 11 rlineto
          -279 hlineto
          -7 -88 rlineto
          -58 -118 rmoveto
          7 -359 rlineto
          hintmask 01111100
          -7 -149 rlineto
          hintmask 10111100
          -4 62 87 -3 50 hhcurveto
          181 101 100 181 153 -88 85 -158 hvcurveto
          -8 -406 rmoveto
          -17 -36 3 4 -28 hvcurveto
          -2 51 6 226 rlineto
          2 26 30 1 17 hhcurveto
          72 29 -40 -115 -97 -37 -35 -60 hvcurveto
          endchar
        </CharString>
        <CharString name="degree">
          -255 392 66 131 66 hstem
          14 66 132 66 vstem
          146 655 rmoveto
          -73 -59 -58 -73 -74 59 -58 73 74 58 58 74 73 -58 58 -74 hvcurveto
          -66 vmoveto
          38 28 -28 -37 -38 -28 -28 -38 -38 -28 28 38 37 28 28 38 hvcurveto
          endchar
        </CharString>
        <CharString name="dieresis">
          549 149 hstem
          31 146 36 146 vstem
          107 698 rmoveto
          -47 -29 -30 -48 -45 25 -26 46 46 29 30 48 44 -26 27 -44 hvcurveto
          182 hmoveto
          -47 -29 -30 -48 -45 25 -26 46 46 29 30 48 44 -26 27 -44 hvcurveto
          endchar
        </CharString>
        <CharString name="dieresis.i">
          549 149 hstemhm
          39 146 19 146 hintmask 11000000
          115 698 rmoveto
          -47 -29 -30 -48 -45 25 -26 46 46 29 30 48 44 -26 27 -44 hvcurveto
          hintmask 11100000
          165 hmoveto
          -47 -29 -30 -48 -45 25 -26 46 46 29 30 48 44 -26 27 -44 hvcurveto
          endchar
        </CharString>
        <CharString name="dieresisacute">
          531 144 hstem
          32 142 40 142 vstem
          301 865 rmoveto
          -13 6 -76 -28 -74 -25 -82 -24 rlinecurve
          13 -69 14 -6 76 8 74 11 84 14 rlinecurve
          7 13 rlineto
          -217 -90 rmoveto
          -46 -29 -29 -46 -44 25 -25 44 45 28 29 46 44 -25 25 -42 hvcurveto
          181 hmoveto
          -46 -28 -29 -46 -44 25 -25 44 45 28 29 46 44 -25 25 -43 hvcurveto
          endchar
        </CharString>
        <CharString name="dieresiscaron">
          531 144 hstem
          32 142 40 142 vstem
          322 857 rmoveto
          -15 hlineto
          -38 -20 -38 -21 -37 -21 -38 21 -38 21 -38 20 rrcurveto
          -15 hlineto
          -28 -62 52 -36 47 -37 43 -37 rlinecurve
          30 hlineto
          42 37 47 37 52 36 rrcurveto
          -243 -120 rmoveto
          -46 -29 -29 -46 -44 25 -25 44 45 28 29 46 44 -25 25 -42 hvcurveto
          181 hmoveto
          -46 -28 -29 -46 -44 25 -25 44 45 28 29 46 44 -25 25 -43 hvcurveto
          endchar
        </CharString>
        <CharString name="dieresisgrave">
          531 144 hstem
          32 142 40 142 vstem
          79 865 rmoveto
          -23 -100 8 -13 83 -14 75 -11 75 -8 rlinecurve
          14 6 13 69 -82 24 -74 25 -75 28 rlinecurve
          14 -196 rmoveto
          -46 -29 -29 -46 -44 25 -25 44 45 28 29 46 44 -25 25 -42 hvcurveto
          181 hmoveto
          -46 -28 -29 -46 -44 25 -25 44 45 28 29 46 44 -25 25 -43 hvcurveto
          endchar
        </CharString>
        <CharString name="dieresismacron">
          531 144 53 99 hstem
          32 142 40 142 vstem
          349 816 rmoveto
          -11 11 rlineto
          -289 hlineto
          -8 -88 11 -11 rlineto
          289 hlineto
          -234 -53 rmoveto
          -46 -29 -29 -46 -44 25 -25 44 45 28 29 46 44 -25 25 -42 hvcurveto
          181 hmoveto
          -46 -28 -29 -46 -44 25 -25 44 45 28 29 46 44 -25 25 -43 hvcurveto
          endchar
        </CharString>
        <CharString name="divide">
          -67 22 141 42 106 44 141 hstem
          183 139 vstem
          256 496 rmoveto
          -45 -28 -28 -45 -44 24 -24 43 44 28 28 46 42 -24 25 -42 hvcurveto
          208 -195 rmoveto
          -10 10 rlineto
          -423 hlineto
          -8 -95 10 -11 rlineto
          423 hlineto
          -200 -42 rmoveto
          -45 -28 -28 -45 -44 24 -24 43 44 28 28 46 42 -24 25 -42 hvcurveto
          endchar
        </CharString>
        <CharString name="divisionslash">
          -265 -116 12 772 13 hstem
          -11 326 vstem
          315 668 rmoveto
          -12 13 rlineto
          -107 hlineto
          -207 -785 9 -12 rlineto
          110 hlineto
          endchar
        </CharString>
</ttFont>
